<?xml version="1.0" encoding="utf-8"?>
<!-- Generator: Adobe Illustrator 24.2.1, SVG Export Plug-In . SVG Version: 6.00 Build 0)  -->
<svg version="1.1" xmlns="http://www.w3.org/2000/svg" xmlns:xlink="http://www.w3.org/1999/xlink" x="0px" y="0px"
	 viewBox="0 0 445.5 418.5" style="enable-background:new 0 0 445.5 418.5;" xml:space="preserve">
<style type="text/css">
	.st0{display:none;}
	.st1{display:inline;fill:#FFFFFF;}
	.st2{opacity:0.3;fill:#93D5F5;}
	.st3{fill:#CBBFEF;}
	.st4{fill:none;stroke:#4E76CF;stroke-width:2;stroke-linecap:round;stroke-miterlimit:10;}
	.st5{fill:#92D6F3;}
	.st6{fill:#4C58DF;}
	.st7{fill:#FFB957;}
	.st8{fill:#FDCE9E;}
	.st9{fill:#8E7CC4;}
	.st10{font-family:'Montserrat-Black';}
	.st11{font-size:18.75px;}
	.st12{fill:#F56281;}
	.st13{fill:#120B51;}
	.st14{fill:#100D42;}
	.st15{fill:#F03C1F;}
	.st16{fill:#E7A19F;}
	.st17{fill:none;stroke:#353535;stroke-miterlimit:10;}
	.st18{fill:#FE9B24;}
	.st19{fill:#353535;}
	.st20{fill:#C67373;}
	.st21{fill:#8270BA;}
	.st22{fill:#9378D7;}
	.st23{fill:#D69494;}
	.st24{fill:#DB8321;}
	.st25{fill:#F8CEC8;}
	.st26{fill:#7A461F;}
	.st27{fill:#D6A5A3;}
	.st28{fill:#1B145D;}
	.st29{fill:#393CB6;}
	.st30{fill:#49221F;}
	.st31{fill:#0C0947;}
	.st32{fill:#E8BCB8;}
	.st33{fill:#FBCF9E;}
	.st34{fill:none;stroke:#F69C32;stroke-width:2;stroke-linecap:round;stroke-miterlimit:10;}
	.st35{fill:none;stroke:#F69C32;stroke-linecap:round;stroke-miterlimit:10;}
	.st36{fill:#3F64C3;}
	.st37{fill:#93D5F5;}
	.st38{fill:#96D7F6;}
	.st39{fill:#F69C32;}
	.st40{fill:#E2B3AF;}
	.st41{fill:#5761F6;}
	.st42{fill:#FF9A26;}
	.st43{fill:#4456C1;}
	.st44{fill:#FD9B2A;}
	.st45{fill:#EAC0BB;}
	.st46{fill:#E5B7B3;}
</style>
<g id="BACKGROUND" class="st0">
	<rect x="-26" y="-34.6" class="st1" width="499.9" height="499.3"/>
</g>
<g id="OBJECTS">
	<ellipse class="st2" cx="228.1" cy="386.8" rx="190.3" ry="10.7"/>
	<g>
		<path class="st3" d="M391.4,372.9c0,0-6.8-31.4,8.1-47.7c14.9-16.3,26,3.3,18.9,6.1c-7,2.8-2,4.6-4.8,8.8
			c-2.8,4.2-1.7,11-5.5,13.1c-3.7,2.1-3.1,6.3-7.1,10.3C397,367.5,391.4,372.9,391.4,372.9z"/>
		<path class="st4" d="M389.8,385.3c0,0,3.5-48.8,21-59.4"/>
		<path class="st4" d="M402.9,334.4c0,0,5.8-1.4,9.4-2.4"/>
		<path class="st4" d="M400.3,339.3c0,0-3.6-5.8-1.8-9.8"/>
		<path class="st4" d="M396.9,347.9c0,0,6.5-0.6,12.3-3.4"/>
		<path class="st4" d="M395.6,352.2c0,0-3.2-5.6-3.5-8.8"/>
		<path class="st4" d="M393.1,362.8c0,0,5.3-0.9,7.7-2.8"/>
	</g>
	<g>
		<path class="st3" d="M387.3,373.7c0,0-15.1-17.8-11.2-33.4c4-15.6,17.8-6.8,14.2-2.6c-3.5,4.2,0.3,3.6-0.1,7.3
			c-0.4,3.6,2.7,7.7,1,10.3c-1.7,2.6,0.2,5.1-1,9.1C389,368.3,387.3,373.7,387.3,373.7z"/>
		<path class="st4" d="M390.5,382.2c0,0-14.5-32.5-6.9-45.4"/>
		<path class="st4" d="M381.4,345c0,0,3.2-2.9,5.2-4.8"/>
		<path class="st4" d="M381.4,349c0,0-4.3-2.5-4.5-5.7"/>
		<path class="st4" d="M382.2,355.7c0,0,4-2.6,6.7-6.4"/>
		<path class="st4" d="M382.8,358.9c0,0-3.9-2.5-5.3-4.4"/>
		<path class="st4" d="M384.8,366.6c0,0,3.1-2.4,4-4.4"/>
	</g>
	<g>
		<path class="st5" d="M110.7,67.5c0,0,0.2-14.9,8.6-20.7c8.4-5.8,11.4,4.1,7.9,4.7s-1.4,1.9-3.1,3.5c-1.7,1.6-1.9,4.8-3.8,5.4
			s-2,2.5-4.3,3.9C113.8,65.6,110.7,67.5,110.7,67.5z"/>
		<g>
			<g>
				<path class="st6" d="M123.4,48c0.2-0.1,0.4-0.2,0.7-0.3c0.3-0.1,0.7,0.1,0.8,0.4c0.1,0.3-0.1,0.7-0.4,0.8
					c-8.6,2.8-15.1,24-15.2,24.2c-0.1,0.3-0.5,0.5-0.8,0.4c-0.3-0.1-0.5-0.5-0.4-0.8C108.4,71.9,114.6,51.8,123.4,48z"/>
			</g>
		</g>
		<g>
			<g>
				<path class="st6" d="M119.6,50.8c0.1,0,0.2-0.1,0.2-0.1c0,0,2.8,0,4.4-0.1c0.4,0,0.6,0.3,0.7,0.6c0,0.4-0.3,0.7-0.6,0.7
					c-1.7,0.1-4.5,0.1-4.5,0.1c-0.4,0-0.6-0.3-0.6-0.6C119.2,51.1,119.4,50.9,119.6,50.8z"/>
			</g>
		</g>
		<g>
			<g>
				<path class="st6" d="M118.1,48.1c0.2-0.1,0.4-0.1,0.6,0.1c0.3,0.2,0.3,0.6,0.1,0.9c-0.8,1.1-0.3,3.3-0.1,4
					c0.1,0.3-0.1,0.7-0.4,0.8c-0.3,0.1-0.7-0.1-0.8-0.4c0-0.1-1.1-3.3,0.3-5.2C117.9,48.2,118,48.1,118.1,48.1z"/>
			</g>
		</g>
		<g>
			<g>
				<path class="st6" d="M115.5,56.2c0.1,0,0.2-0.1,0.3,0c0,0,2.9,0.4,5.7-0.3c0.3-0.1,0.7,0.1,0.8,0.5c0.1,0.3-0.1,0.7-0.5,0.8
					c-3,0.7-6,0.3-6.1,0.3c-0.3,0-0.6-0.4-0.5-0.7C115.2,56.5,115.3,56.3,115.5,56.2z"/>
			</g>
		</g>
		<g>
			<g>
				<path class="st6" d="M113.8,53.7c0.1,0,0.2-0.1,0.3,0c0.3,0,0.6,0.4,0.6,0.7c-0.1,1.1,0.4,3.3,0.7,4.1c0.1,0.3-0.1,0.7-0.4,0.8
					c-0.3,0.1-0.7-0.1-0.8-0.4c0-0.1-0.9-3-0.7-4.6C113.5,54,113.6,53.8,113.8,53.7z"/>
			</g>
		</g>
		<g>
			<g>
				<path class="st6" d="M112.3,62.5c0.1,0,0.2-0.1,0.3-0.1c0.6,0,2.5,0,3.4-0.4c0.3-0.1,0.7,0,0.9,0.3c0.2,0.3,0,0.7-0.3,0.9
					c-1.4,0.7-3.8,0.6-4.1,0.5c-0.4,0-0.6-0.3-0.6-0.7C111.9,62.8,112,62.6,112.3,62.5z"/>
			</g>
		</g>
	</g>
	<g>
		<g>
			<g>
				<path class="st7" d="M350.8,240.1l0-0.2c0-0.9,0.7-1.6,1.5-1.5c4.4,0.1,7.9,1.5,10.6,4.1c3.5,3.3,4.5,7.8,4.8,10.2
					c0.1,0.9-0.6,1.7-1.5,1.7l0,0l-0.2,0c-0.8,0-1.4-0.6-1.5-1.3c-0.2-1.9-1.1-5.6-3.8-8.3c-2.1-2-4.9-3.1-8.5-3.2
					C351.4,241.5,350.8,240.8,350.8,240.1z"/>
			</g>
		</g>
		<g>
			<g>
				<path class="st8" d="M350.9,245.6l0-0.3c0-0.8,0.6-1.4,1.4-1.4c2.7,0.2,4.9,1.1,6.6,2.7c2.1,2,2.9,4.7,3.2,6.4
					c0.1,0.8-0.5,1.6-1.3,1.6l0,0l-0.3,0c-0.7,0-1.2-0.5-1.3-1.1c-0.2-1.2-0.8-3.3-2.3-4.7c-1.2-1.1-2.8-1.7-4.7-1.9
					C351.4,246.8,350.9,246.3,350.9,245.6z"/>
			</g>
		</g>
		<path class="st7" d="M355.3,255c-1.2,1.3-3.3,1.4-4.6,0.2c-1.3-1.2-1.4-3.3-0.2-4.6c1.2-1.3,3.3-1.4,4.6-0.2
			C356.5,251.6,356.5,253.6,355.3,255z"/>
	</g>
	<g>
		<text transform="matrix(0.8938 -0.4484 0.4484 0.8938 71.4656 149.7047)" class="st9 st10 st11">4G</text>
	</g>
	<g>
		<g>
			<g>
				<path class="st12" d="M45.1,225l-2.4-2.4c-9.1-9.1-8.6-24.1,1.2-32.6c49.3-43.2,102.3-64.5,158-63.4
					c71.9,1.4,128.6,40.1,156.2,63.3c10.3,8.6,10.6,24.3,0.8,33.4l0,0l-2.5,2.4c-8.2,7.7-20.9,8-29.5,0.8
					c-22.5-18.8-69.3-51-126.3-51.9c-43.1-0.7-85.1,16.6-125,51.5C66.7,233.8,53.4,233.3,45.1,225z"/>
			</g>
		</g>
		<g>
			<g>
				<path class="st12" d="M102.3,284.5l-2.7-2.7c-8.3-8.3-7.8-22.1,1.3-29.6c31-25.6,64.5-38.3,99.8-37.9
					c44.2,0.6,80,22.1,100.1,37.6c9.8,7.5,10.6,22,1.6,30.5h0l-2.8,2.6c-7.2,6.8-18.2,7.4-26.1,1.4c-15.1-11.5-42-27.9-73.8-28.2
					c-24.2-0.2-47.9,9-70.6,27.6C121.2,292.4,109.6,291.8,102.3,284.5z"/>
			</g>
		</g>
		<circle class="st12" cx="197.6" cy="342" r="49"/>
	</g>
	<g>
		<path class="st13" d="M194.9,206.9l-0.4,1.4c0,0,1.3,6.3,5,12.3s3.7,5.9,5.4,7.6s5.9,3.3,8.8,3.3l-13.9-17.9L194.9,206.9z"/>
		<path class="st13" d="M269,201.5c0,0,0.2,0,0.7,0.9s-1.5,12.5-4.5,17.9s-3.1,6.7-12.1,8.9L269,201.5z"/>
		<polygon class="st14" points="223.2,137.4 229.2,137.4 229.2,138.9 223.7,141.2 		"/>
		<path class="st15" d="M220.8,56.1c-1.2,2.5-3.8,4.3-6.8,4.3c-0.7,0-1.4-0.1-2.1-0.3c-3.1-0.9-5.4-3.8-5.4-7.2
			c0-3.3,2.2-6.2,5.2-7.1c1,2.9,2.1,5,2.5,5.7c0.6,0.9,1.6,1.7,2.8,2.5C218.2,54.7,219.5,55.5,220.8,56.1z"/>
		<path class="st15" d="M226.8,61c0,0.6-0.1,1.1-0.2,1.6c-0.7,3.4-3.7,5.9-7.3,5.9c-4.1,0-7.5-3.4-7.5-7.5c0-0.3,0-0.6,0.1-0.9
			c0.4-2.9,2.4-5.3,5.1-6.2c1.2,0.8,2.6,1.6,3.8,2.2c2.1,1,3.8,1.7,3.8,1.7l-0.1-2.2c0.2,0.2,0.4,0.4,0.6,0.7c0,0,0,0,0,0
			C226.2,57.5,226.8,59.2,226.8,61z"/>
		<path class="st15" d="M239.9,57.8c0,0.8-0.1,1.5-0.3,2.2v0c-1,3.1-3.8,5.3-7.2,5.3c-2.3,0-4.4-1.1-5.8-2.7c-1.1-1.3-1.7-3-1.7-4.8
			c0-0.5,0.1-1.1,0.2-1.6c0,0,0,0,0,0c0.1-0.7,0.4-1.3,0.7-1.8l2.8,0.2l4.8,0.3l-0.5,3c0,0,3.2-0.4,6.7-2.5
			C239.8,56.1,239.9,56.9,239.9,57.8z"/>
		<path class="st15" d="M243.5,53.5c0,2.8-1.6,5.3-3.9,6.6v0c-1.1,0.6-2.3,0.9-3.6,0.9c-3.8,0-6.9-2.8-7.4-6.4l4.8,0.3l-0.5,3
			c0,0,3.2-0.4,6.7-2.5c1.3-0.8,2.6-1.8,3.8-3.2C243.4,52.6,243.5,53,243.5,53.5z"/>
		<path class="st15" d="M214,60.4c0,2.9-2.4,5.3-5.3,5.3c-2.9,0-5.3-2.4-5.3-5.3s2.4-5.3,5.3-5.3C211.6,55,214,57.4,214,60.4z"/>
		<path class="st15" d="M211.8,68c0,2.9-2.4,5.3-5.3,5.3c-2.9,0-5.3-2.4-5.3-5.3c0-2.9,2.4-5.3,5.3-5.3
			C209.4,62.7,211.8,65,211.8,68z"/>
		<path class="st15" d="M212.9,70.4c0,2.9-2.4,5.3-5.3,5.3c-2.9,0-5.3-2.4-5.3-5.3c0-2.9,2.4-5.3,5.3-5.3
			C210.5,65.1,212.9,67.5,212.9,70.4z"/>
		<path class="st16" d="M202.7,71.4c0,0-9.6,21.9-10,23.4c-0.4,1.6,11.9,26.4,11.9,26.4l3.9-4.1c0,0-3.8-11-4.7-14.5
			s-2.7-7.6-3.2-7.6l7.9-17.9L202.7,71.4z"/>
		<path class="st16" d="M255.9,71.4c0,0,9.6,21.9,10,23.4c0.4,1.6-11.9,26.4-11.9,26.4l-3.9-4.1c0,0,3.8-11,4.7-14.5
			s2.7-7.6,3.2-7.6L250,77.1L255.9,71.4z"/>
		<path class="st15" d="M237.2,15.8c0,0-12.3-5.6-22.2,6.1s-2.2,27.4-0.8,29.4c2.2,3.3,10.4,6.3,10.4,6.3l-0.1-3.4l8.9,0.6l-0.5,3
			c0,0,11.2-1.5,14.1-12.5c2.9-11,0-17.5,0-17.5L237.2,15.8z"/>
		<path class="st16" d="M250.1,42.2c0,1.7-1.4,3.2-3.2,3.2c-1.7,0-3.2-1.4-3.2-3.2c0-1.7,1.4-3.2,3.2-3.2
			C248.7,39,250.1,40.4,250.1,42.2z"/>
		<circle class="st16" cx="211.8" cy="39" r="3.2"/>
		<circle class="st16" cx="230" cy="37.6" r="17.6"/>
		<path class="st15" d="M233.3,17.2c0,0,7.4-4,11.4,0c4,4,5.8,9,3.4,15.2s3.4,5.3,3.4,5.3s-5.8,3.6-10.6,0.1
			c-4.8-3.6-7.2-7.3-7.5-9.3c0,0-5.3,9.6-17.8,7.4c0,0-2.5,5.4-2.2,7.6l-1-8.6C212.4,34.8,218,10.8,233.3,17.2z"/>
		<path class="st17" d="M202.9,117.1"/>
		<path class="st17" d="M253.2,117.1"/>
		<path class="st18" d="M235,59.8c0,0,13.1,1.9,16.7,3.1c3.6,1.2,10.3,19.3,12,19.8c0,0-9.3,6-13.3,7.4L249.3,80c0,0,0.2,4.6-1,8.8
			c-1.2,4.1-5,7.9,2.5,28.3h-44.4c7.5-20.4,3.7-24.1,2.5-28.3c-1.2-4.1-0.4-9-0.4-9l-1.7,11.9c-4-1.4-13.1-9-13.1-9
			c1.7-0.5,8.1-18.6,11.7-19.8c3.6-1.2,16.7-3.1,16.7-3.1H235z"/>
		<path class="st16" d="M233.4,54.9c0,0-1.6,7.2,0,8.2h-9.8c0,0,1.5-2.3,0.9-8.7L233.4,54.9z"/>
		<path class="st13" d="M202.2,137.4c0,0,3.4,4.5,7.9,5.7c0,0-5.7,14.7-5.7,25.5c0.1,10.7-6.4,30.7-6.4,30.7s5.4,5.2,9.8,2.1
			c4.4-3.1,17.5-49.1,20-55.2c2.5-6.1-5.8-9.9-5.8-9.9L202.2,137.4z"/>
		<path class="st13" d="M248.8,134.2c0,0-2.5,5-6.7,7.1c0,0,8.4,13.4,10.3,24c1.9,10.6,12,29,12,29s-4.4,6.1-9.3,3.9
			c-4.9-2.2-26.3-45-29.9-50.5c-3.6-5.6,3.8-10.8,3.8-10.8L248.8,134.2z"/>
		<circle class="st17" cx="236.7" cy="40.3" r="5.3"/>
		<path class="st19" d="M237.5,42.2c0,1-0.3,1.9-0.8,1.9c-0.4,0-0.8-0.8-0.8-1.9c0-1,0.3-1.9,0.8-1.9
			C237.1,40.3,237.5,41.1,237.5,42.2z"/>
		<circle class="st17" cx="223.1" cy="40" r="5.3"/>
		<path class="st19" d="M223.9,42c0,1-0.3,1.9-0.8,1.9c-0.4,0-0.8-0.8-0.8-1.9c0-1,0.3-1.9,0.8-1.9C223.6,40.1,223.9,40.9,223.9,42z
			"/>
		<path class="st17" d="M228.2,41.6c0,0,1.6-1.7,3.3,0"/>
		<line class="st17" x1="217.8" y1="40" x2="212.5" y2="35.7"/>
		<g>
			<path class="st20" d="M226.2,49.9c0,0,0.4,0.1,1,0.2c0.6,0.1,1.4,0.2,2.1,0.2c0.4,0,0.8,0,1.1-0.1c0.4-0.1,0.7-0.1,1-0.2
				c0.3-0.1,0.6-0.1,0.7-0.2c0.2,0,0.3-0.1,0.3-0.1s-0.1,0.1-0.2,0.2c-0.1,0.1-0.3,0.3-0.6,0.5c-0.1,0.1-0.3,0.2-0.5,0.3
				c-0.2,0.1-0.4,0.2-0.6,0.2c-0.2,0-0.4,0.1-0.6,0.1c-0.2,0-0.4,0.1-0.7,0.1c-0.2,0-0.5,0-0.7-0.1c-0.2,0-0.4-0.1-0.6-0.1
				c-0.4-0.1-0.8-0.3-1-0.5C226.4,50.3,226.2,49.9,226.2,49.9z"/>
		</g>
		<path class="st16" d="M235,59.8h-3l-2.4-0.5h-6.2l-1.1,0.5l-2.3,0.4c0,0,1.4,5.3,3.7,6.4c2.4,1,8.5,1.2,11-0.6
			c2.5-1.8,3-5.7,3-5.7L235,59.8z"/>
		<path class="st15" d="M245,39.3c0,0,0.7,2.7,0.5,5.4c0,0,1.9-4.3,1.9-6.1L245,39.3z"/>
		<line class="st17" x1="242" y1="40.8" x2="248.1" y2="38.8"/>
		<path class="st16" d="M233.4,54.9c0,0-1.4,4.9,4.2,5.3l-1.6,1.2l-5.2-1.1l-0.5-4.2L233.4,54.9z"/>
		<path class="st16" d="M224.4,54.3c0,0,0.6,5.6-4.5,5.9l1.2,0.8h6.3l-0.5-4.1L224.4,54.3z"/>
		<polygon class="st21" points="252,137.4 200.6,137.4 200.6,135.5 252.4,135.5 		"/>
		<polygon class="st22" points="267.4,109.1 192.1,109.1 200.6,135.5 252.4,135.5 		"/>
		<rect x="192.1" y="106.5" class="st21" width="75.3" height="2.6"/>
		<path class="st18" d="M198.1,199.2c0,0-3,6.2-3.2,8c-0.3,1.8,3.6,13.7,11,21.2c0,0,9.3,6.2,12.9,1.2c3.6-5-1-11.2-3.1-12.4
			c-2-1.2-6.5-14.3-6.8-17C208.9,200.2,203.8,204.3,198.1,199.2z"/>
		<path class="st18" d="M264.4,194.2c0,0,4.1,5.5,4.7,7.3c0.6,1.7-1,14.1-6.9,22.9c0,0-8,7.8-12.5,3.5s-1.1-11.2,0.7-12.8
			s3.7-15.2,3.5-17.9C253.9,197.2,259.7,200.3,264.4,194.2z"/>
		<path class="st15" d="M207.9,201.4c0,0,3.2,8.9,4.5,12.2c1.3,3.2,2.6,3.6,3.2,5.6c0.6,2-5.7,4.3-7.1,3.4
			c-1.4-0.9-8.6-16.6-5.8-20.5L207.9,201.4z"/>
		<path class="st15" d="M255.1,198.1c0,0-1.5,9.4-2.2,12.8c-0.7,3.4-1.9,4-2.1,6.1c-0.2,2,6.4,3.1,7.6,2s5.4-18,1.9-21.2
			L255.1,198.1z"/>
		<path class="st21" d="M235.8,123.2c-0.5,1-1.7,1.7-3,1.7c-1.8,0-3.3-1.3-3.3-3c0-1.2,0.8-2.2,1.9-2.6c-0.7-0.2-1.4-0.3-2.1-0.3
			c-3.3,0-6.1,2.1-6.7,4.8c0.3,0,0.7-0.1,1-0.1c0.7,0,1.5,0.1,2.1,0.3c-1.1,0.5-1.9,1.5-1.9,2.6c0,1.6,1.5,3,3.3,3
			c1.3,0,2.4-0.7,3-1.7c0.2,0.6,0.3,1.2,0.3,1.9c0,0.5-0.1,0.9-0.2,1.3c3.3-0.4,5.9-3,5.9-6.1C236.1,124.5,236,123.8,235.8,123.2z"
			/>
		<path class="st23" d="M224.3,56.6c0,0,7.3,1.4,8.9-0.3l0.2-1.4c0,0-5.3,1.1-8.9-0.6C224.4,54.3,224.5,55.9,224.3,56.6z"/>
		<path class="st23" d="M196.7,85.1c0,0,5.4,4,6.2,4.5l-0.4,0.9c0,0-6.1-3.3-6.2-4.6L196.7,85.1z"/>
		<path class="st23" d="M254.9,88l6.5-3.8l0.3,0.7c0,0-6.3,3.7-6.6,3.7L254.9,88z"/>
		<path class="st23" d="M233.3,28.4c0,0-1.5,2.4,3.8,6.1C237.1,34.5,234.1,31.7,233.3,28.4z"/>
		<path class="st23" d="M227.4,34.1c0,0,3.6-1.9,6-5.7C233.3,28.4,233.3,33.2,227.4,34.1z"/>
		<circle class="st23" cx="236" cy="47.7" r="0.3"/>
		<circle class="st23" cx="239.3" cy="46.8" r="0.3"/>
		<circle class="st23" cx="239" cy="49.6" r="0.3"/>
		<circle class="st23" cx="222.7" cy="47.1" r="0.3"/>
		<circle class="st23" cx="219.3" cy="46.2" r="0.3"/>
		<circle class="st23" cx="220.4" cy="49.3" r="0.3"/>
		<path class="st24" d="M218.5,60.4c0,0,0.6,3.2,1.9,5c1.3,1.7,2.2,2.6,6.9,3.2c4.8,0.6,7-0.4,8-1.2c1-0.7,3-2.2,3.6-6.9l-1.4-0.2
			c0,0-0.3,2.7-1.9,4.6c-1.6,1.9-4.3,2.6-6.6,2.5c-2.4-0.1-6,0.1-7.3-2.5c-1.3-2.7-1.7-3.5-1.9-4.6L218.5,60.4z"/>
	</g>
	<g>
		<path class="st25" d="M162.8,195.3c0,0,6.9,16.9,7.4,19.6c0.5,2.7-12.2,6.9-12.2,6.9l-4.4-9.2l5.5-2.9l-2.4-11.1L162.8,195.3z"/>
		<path class="st25" d="M109.7,246.7c0,0,5,0.9,6.5-1.6c0,0,1-1.8,0.4-4.3l-1-1C115.7,239.9,108.7,241.8,109.7,246.7z"/>
		<path class="st25" d="M149.8,214.3l-37,16.1c-0.8,0.4-1.5,1-2,1.8l-3.8,7.6c-0.7,1.3-0.5,2.9,0.3,4c0.9,1.3,2,2.7,2.3,2.8
			c0.6,0.1,6.9-5.8,6.9-5.8l2.6-4.9l35-12.5L149.8,214.3z"/>
		<path class="st26" d="M114.9,235.2c0,0-1.9,1.4-2.5,3.1c-0.7,1.7-3.5,2.8-2,4.5c1.5,1.7,2.6-1.5,3.8-1.8c1.2-0.3,2.3,0,4.3-1.7
			c2-1.6,1.5-2.7,2.5-3c0.9-0.3,2.8-1,2.8-1l-1.5-1.3L114.9,235.2z"/>
		<path class="st27" d="M112.3,236.5c0,0-2.8,2.5-2.2,5.1c0.6,2.6,0.4,4.2,1.1,4c0.7-0.2,5.3-1.4,5.3-1.4l1.8-3.2
			c0,0-0.4-3.1-1.1-3.5C116.5,237.2,112.3,236.5,112.3,236.5z"/>
		<path class="st25" d="M114.3,234.6c0,0-1.9,1.4-2.5,3.1c-0.7,1.7-3.5,2.8-2,4.5c1.5,1.7,2.6-1.5,3.8-1.8c1.2-0.3,2.3,0,4.3-1.7
			c2-1.6,1.5-2.7,2.5-3c0.9-0.3,2.8-1,2.8-1l-1.5-1.3L114.3,234.6z"/>
		<path class="st25" d="M132.3,142.6c0,0-6.3,5.6-3.6,14c0,0-5.1-0.6-3.6,2.8c1.6,3.5,3.1,2.9,3.1,2.9s-0.4,7.8,7.9,10.7
			c8.4,2.8,16.2,0.9,16.2,0.9l3.8-22.6c0,0-7.2-10.2-7.6-10.3c-0.4-0.1-11.9,2.3-11.9,2.3L132.3,142.6z"/>
		<path class="st28" d="M110.4,330.9c0,0,2.9,3.6,3.4,4.2c0.4,0.6-4.7,14.1-8.3,17.3s1.6,9.4,3.3,9.9c1.7,0.5,15.2-12.8,19.8-21.1
			c4.7-8.2,3.3-6.3,3.3-8l-13.2-10.8L110.4,330.9z"/>
		<path class="st19" d="M110.7,364l-1.9-1.8c1.7,0.5,15.2-12.8,19.8-21.1c4.7-8.2,3.3-6.3,3.3-8l2.1,2.4
			C126.3,354.1,110.7,364,110.7,364z"/>
		<path class="st29" d="M112.9,335.4c0,0,1.2-1.5,5.3-0.5c4,1-1.7,2.1-1.7,2.1s-2.5-1.1-4,0.4L112.9,335.4z"/>
		<path class="st29" d="M111.7,339.3c0,0,1.4-1.4,5.3,0.1c3.9,1.5-1.9,1.8-1.9,1.8s-2.4-1.4-4-0.1L111.7,339.3z"/>
		<path class="st25" d="M113.6,334.5l-0.3,0c-1-1.2-2.9-3.6-2.9-3.6l8.4-8.5l3.3,2.7C122,325.1,125.3,333.7,113.6,334.5z"/>
		<path class="st28" d="M108.7,368.4c0,0-1.2,4.4-1.5,5.2c-0.2,0.7-14.2,4.3-19,3.2c-4.8-1.1-6.8,6.7-6.2,8.4
			c0.6,1.7,19.2,5,28.6,4.1c9.4-0.9,7.1-0.9,8.4-1.9l1.3-17L108.7,368.4z"/>
		<path class="st19" d="M81.8,387.8l0.4-2.6c0.6,1.7,19.2,5,28.6,4.1c9.4-0.9,7.1-0.9,8.4-1.9l-0.8,3.1
			C98.8,394.8,81.8,387.8,81.8,387.8z"/>
		<path class="st29" d="M106.4,373.1c0,0,2,0.1,3.4,4c1.5,3.9-2.6-0.2-2.6-0.2s-0.6-2.7-2.6-3.1L106.4,373.1z"/>
		<path class="st29" d="M102.5,374.4c0,0,1.9,0.4,2.9,4.4c1,4-2.6-0.5-2.6-0.5s-0.3-2.7-2.2-3.3L102.5,374.4z"/>
		<path class="st25" d="M107.6,373.1l-0.2-0.3c0.4-1.5,1.2-4.4,1.2-4.4l11.7,2l-0.3,4.2C120.1,374.6,114.9,382.2,107.6,373.1z"/>
		<path class="st30" d="M142,158.3c0,0-1.7-0.8-1.9-5.9c0,0-9.6-3.4-10.3-8.5c0,0-8.6-6.2-4.1-13.2s8.3,4.4,8.3,4.4
			s-2.1-9.5,5.2-10.2c7.2-0.7,1.2,9.1,1.2,9.1s1.9-4.2,3.8-4c1.9,0.1,2.9,2.3,1.7,4.4c0,0,12.7-5.2,17.9,9.1c0,0,10.3,6.2,0.9,20.7
			c-9.4,14.5-15.7,8.5-16.5,7.4c-0.9-1.1-3.1-9.1-2.3-11.4c0.8-2.3,4.4-3.1,3.9-9.3c-0.4-6.2-5.3-4.3-5.8-1.7
			C143.4,151.9,146.2,159.1,142,158.3z"/>
		<path class="st25" d="M151.3,173.7c-1.7,0.3-5.3,0.7-9.6,0.1l0,0c0,0,1.1,1.9,0.6,4.5c0,0-4,2.8-3.3,4.7c0.6,1.9,6.4-1.2,9.3-2.4
			c2.9-1.2,3.5-2,4.2-2.6c0.7-0.6-0.7-2-1-4.3L151.3,173.7z"/>
		<path class="st17" d="M132.4,153.4c0.4,3.1-0.7,5.8-2.4,6c-1.7,0.2-3.4-2.1-3.8-5.2c-0.4-3.1,0.7-5.8,2.4-6
			C130.3,147.9,132,150.3,132.4,153.4z"/>
		
			<rect x="132.1" y="151.1" transform="matrix(0.9919 -0.127 0.127 0.9919 -18.2719 18.0822)" class="st19" width="1.1" height="2.3"/>
		
			<rect x="132.5" y="150.4" transform="matrix(0.9919 -0.127 0.127 0.9919 -18.0537 18.7856)" class="st19" width="11.5" height="1"/>
		<path class="st28" d="M159.4,191.2c1.2,14.8-3.1,34.5-1.6,44.9c1.5,10.4-2.6,15.5-2.6,18.4c0,2.9-0.2,3.9-6,3.1
			c-5.8-0.9-25.4-1-35.7-10.4c0,0,5.5-19.1,9.7-27.3c4.2-8.2,8.8-29.7,10.4-32.3c0.7-1.1,2.1-3.1,3.6-4.9c2-2.5,4.2-4.8,5-4.8
			c1.4,0.1,10.2-0.3,10.2-0.3s0.7-0.1,1.7,0.3C155.8,178.7,158.6,181.5,159.4,191.2z"/>
		<path class="st31" d="M135.5,211.9c0,0-3.9-4.8-3.9-10.3c0-5.4,1.4-6.1,1.4-6.1l4.4-2.1l2.6,14.2L135.5,211.9z"/>
		<path class="st25" d="M154,177.8L154,177.8c-4.6,3.9-8.7,5.2-13.3,6.9c-4.7,1.7-3.5-2.1-3.5-2.1c2-2.5,4.2-4.8,5-4.8
			c1.4,0.1,10.2-0.3,10.2-0.3S153,177.4,154,177.8z"/>
		<path class="st25" d="M118.4,206.7l26.3-18.4l5,10.4c0,0-33,20.9-34.8,21.1c-1.8,0.2-18.5-28.4-18.5-28.4l5.3-3.4L118.4,206.7z"/>
		<path class="st31" d="M134.1,196.7c0,0,5,2.7,1.8,14.9c0,0,15.7-7.7,17.9-11.6c3.4-5.9,1.8-10.8-1.9-13.4S143.8,185.7,134.1,196.7
			z"/>
		<path class="st28" d="M133,195.5c0,0,5.7,4.1,2.5,16.4c0,0,14.7-8.4,17.5-11.8c2.9-3.4,3.5-11-0.3-13.5
			C149,184,142.8,184.5,133,195.5z"/>
		<path class="st29" d="M153.8,257.7c0,0-1.1,12.1-8.1,21.1c-6.9,9-12.6,33.6-13.2,39.8c0,0-6.2,47.3-9.8,53.6l-16.3-3
			c0,0,6.5-40.7,6.7-52.5c0,0,4.5-39.7,7.2-44.7c0,0-2.1-11.7-1-20.8L153.8,257.7z"/>
		<path class="st29" d="M113.4,247.2c0,0-23.7,22.1-30.3,32.1c0,0-4.6,5.1-0.6,10.8c4,5.7,25.1,33,28.7,46.1c0,0,10.1-5.4,11.9-12.5
			c0,0-12.5-28.5-18.9-35.4c0,0,8.3-10.1,16.1-16.2l8.7-5.5l-1.8-13.8L113.4,247.2z"/>
		<path class="st28" d="M157.8,182.8L157.8,182.8c0.7,2,1.3,4.7,1.7,8.5c0.3,3.2,0.3,6.7,0.1,10.2l-0.1,3.1c4.2-0.5,8.4-7.4,8.4-7.4
			C165.2,193.4,157.9,183,157.8,182.8z"/>
		
			<rect x="91.4" y="159.2" transform="matrix(0.9733 -0.2293 0.2293 0.9733 -36.5811 25.9269)" class="st19" width="3.7" height="22.3"/>
		<path class="st25" d="M97.6,180.8c0,0,1.3-1.9,1.2-2.6c-0.1-0.7-2.7-1.6-2.5-3c0.2-1.4,1.6-2.6,3.2-0.9c1.5,1.7,1.5,2.7,3.5,3.5
			c2,0.8,0.7,8.3-1.3,10.2l-5.2,3.6C96.5,191.6,89.2,179.2,97.6,180.8z"/>
		<path class="st25" d="M90.9,168.4c0,0-3.6,4.2-4.5,5.2c-0.8,1,3.1,13.7,9.9,17.8l2.4-1.6l-4.8-8.3L90.9,168.4z"/>
		<path class="st25" d="M151.9,173.9c0,0-0.5,0.8,0,2c0.5,1.2,0.5,1.6,1,1.7c0.5,0.1,0,0.5,0,0.5s-2.2-1.2-2.3-1.5
			c0-0.3-0.3-0.9-0.2-1.5c0.1-0.5,0.5-1.3,0.5-1.3L151.9,173.9z"/>
		<path class="st25" d="M140.8,174.1c0,0,1,0.2,1.3,1.1c0.4,0.8,0.1,2.4-0.2,2.8c-0.3,0.4,1.7,0.5,1.7,0.5v-3.1c0,0-0.9-1.5-1-1.7
			c-0.1-0.2-1.5-0.4-1.5-0.4L140.8,174.1z"/>
		<path class="st19" d="M130.2,153.7c0,0.8-0.2,1.4-0.3,1.4c-0.2,0-0.3-0.6-0.3-1.4c0-0.8,0.2-1.4,0.3-1.4
			C130.1,152.3,130.2,152.9,130.2,153.7z"/>
		<path class="st25" d="M142.2,177.5c0,0-0.2,0.3-0.5,0.5c-0.3,0.2,4.3,0.4,4.3,0.4l7-0.8l-0.9-0.3h-5.6L142.2,177.5z"/>
		<path class="st32" d="M149.4,173.9l-7.2,3.3c0,0,0.8-2.7-1.4-3.1L149.4,173.9L149.4,173.9z"/>
	</g>
	<g>
		<path class="st33" d="M37.4,381.1c0,0-25.6-28.2,5-50.5C42.4,330.7,66.8,354.6,37.4,381.1z"/>
		<path class="st34" d="M37.4,387.2c0,0,0.6-41.4,3.5-51"/>
		<path class="st34" d="M38.8,352.6c0,0,5.8-4.6,8.6-9.2"/>
		<path class="st34" d="M38.4,359.8c0,0-6.5-2.8-7.5-7"/>
		<path class="st34" d="M38,367.5c0,0,6-2.9,8.7-6.1"/>
		<path class="st34" d="M37.8,373.7c0,0-5.7-3.9-6.6-7.3"/>
	</g>
	<g>
		<path class="st33" d="M39.5,382.2c0,0-0.4-18.9,18.3-17.3C57.8,364.9,59.1,381.8,39.5,382.2z"/>
		<path class="st35" d="M37.5,384.5c0,0,13.7-15.3,17.9-18"/>
		<path class="st35" d="M49.3,372c0,0,3.7,0.2,6.2-0.6"/>
		<path class="st35" d="M46.8,374.5c0,0-1.5-3.2-0.5-5.1"/>
		<path class="st35" d="M44.2,377.3c0,0,3.2,0.9,5.3,0.5"/>
		<path class="st35" d="M42,379.5c0,0-0.9-3.3-0.1-4.9"/>
	</g>
	<g>
		<path class="st33" d="M389.3,166.2c0,0-18.9-0.5-16.4-19.1C372.9,147.1,389.8,146.6,389.3,166.2z"/>
		<path class="st35" d="M391.4,168.3c0,0-14.6-14.4-17.1-18.8"/>
		<path class="st35" d="M379.5,155.9c0,0,0.3-3.6-0.3-6.2"/>
		<path class="st35" d="M381.9,158.6c0,0-3.2,1.4-5.1,0.3"/>
		<path class="st35" d="M384.6,161.3c0,0,1-3.2,0.8-5.2"/>
		<path class="st35" d="M386.7,163.6c0,0-3.4,0.7-4.9-0.1"/>
	</g>
	<g>
		<g>
			<polygon class="st36" points="298,39.8 299.9,42.2 289.9,49.9 299.8,57.6 298,59.9 285,49.9 			"/>
		</g>
		<g>
			<circle class="st37" cx="298.9" cy="58.8" r="4.6"/>
		</g>
		<g>
			<path class="st37" d="M282.8,49.9c0-2.6,2.1-4.6,4.6-4.6c2.6,0,4.6,2.1,4.6,4.6c0,2.6-2.1,4.6-4.6,4.6
				C284.9,54.6,282.8,52.5,282.8,49.9z"/>
		</g>
		<g>
			<circle class="st37" cx="298.9" cy="41" r="4.6"/>
		</g>
	</g>
	<circle class="st38" cx="385.4" cy="294.8" r="3.3"/>
	<path class="st38" d="M36.2,247.2c0,1.8-1.5,3.3-3.3,3.3c-1.8,0-3.3-1.5-3.3-3.3c0-1.8,1.5-3.3,3.3-3.3
		C34.7,243.8,36.2,245.3,36.2,247.2z"/>
	<path class="st25" d="M150.6,96.3c0,1.8-1.5,3.3-3.3,3.3c-1.8,0-3.3-1.5-3.3-3.3c0-1.8,1.5-3.3,3.3-3.3
		C149.1,92.9,150.6,94.4,150.6,96.3z"/>
	<circle class="st39" cx="80.9" cy="340" r="1.9"/>
	<path class="st25" d="M93,177.5c0,0,3.5,2.5,5.1,2.4c1.6-0.1-0.5,2.5-0.5,2.5l-5.9-0.8L93,177.5z"/>
	<path class="st32" d="M132.5,196.8c0,0,3,3.9,1.8,11.5l2-1.3c0,0,0.8-7.2-2.8-11L132.5,196.8z"/>
	<path class="st32" d="M165.5,202.2c0,0-2.1,3.7-5.5,4.7l0.5,6.3l-0.9,1c0,0-0.7,6-0.3,7l-1.4,0.5c0,0,1.4-16.7,1.4-17.3
		c0,0,1.8,0,5.6-3.6L165.5,202.2z"/>
	<path class="st32" d="M120,227.3l-1.3,0.6c0,0-3.4,10.4-3.4,12h0.4L120,227.3z"/>
	<path class="st22" d="M152.6,177.4c0,0-9.6,6-11.3,6.3c-1.7,0.3-3.7,0.9-4.1-1.1l-0.7,0.9c0,0-0.2,1.4,1.1,1.9
		c0.6,0.3,3.1,0.1,4.8-0.5c1.7-0.5,5.6-2.5,6.4-3c0.8-0.6,5.3-3.8,5.4-4.1C154.1,177.5,153.5,177.2,152.6,177.4z"/>
	<g>
		<path class="st28" d="M278.7,354.2c0,0,36.5-27.7,39.7-25.7c7.6,4.5,18.4,23.6,33.2,46.1h-18.3l-20.2-19.2c0,0-6.7,11.8-7.5,15.1
			c-0.8,3.2-17.1-2.3-17.1-2.3l-9.9-5.5V354.2z"/>
		<path class="st40" d="M318.8,358.9c0,0-0.1-2.9,0.9-2.6c1,0.3,2.2,2.2,1.7,3.9c-0.5,1.8-1.2,5.3-9.1,3.9L318.8,358.9z"/>
		<path class="st25" d="M317.2,350.6c0,0,1.5,3.2,1.7,6.8c0.3,3.7,0,4.6,0,5.6s-8.9,2-10.8,0s0.8-11.2,1.7-12.4
			C310.6,349.3,317.2,350.6,317.2,350.6z"/>
		<path class="st25" d="M309.8,350.6c0,0-2.7,2.5-4.1,4.2c-1.3,1.8-2.3,4-1.1,4.7c1.1,0.7,3.4-3.2,3.4-3.2l1.8-2.5V350.6z"/>
		<path class="st28" d="M251.9,384c0,0,4.1,12.7,40.8,8.9c36.7-3.8,39.4-0.3,47.6-0.9c8.3-0.6,41,0.3,44.3,0.3s2.1-14.2,0-15.6
			c-2.1-1.5-23-4.4-26-4.4c-3,0-17.4-0.3-22.1,0c-4.7,0.3-45.5-8-47.9-9.1c-2.3-1.2-6.8-0.5-6.8-0.5l-35.2,0.3L251.9,384z"/>
		<path class="st41" d="M283.6,341.2c-3-3.5-1.2-34.5-3.7-41.3c-2.5-6.8-5-7.1-5-7.1l-1.2,2l2.3,1.6c0,0,5.3,6,3.8,21.5
			c-1,10.8-1.9,21.9-0.7,29.7l1.6,8.1c1,1.2,2.8,2.2,2.7,3.3l0,0l5.9-5.6C289.5,353.3,286.6,344.7,283.6,341.2z"/>
		<path class="st41" d="M275,292.8c0,0,30.6,13.3,36.9,18c6.3,4.7,6.5,40.1,6.5,40.1s-7.3,2.7-10.1,0c-2.8-2.7-5.6-29.7-6.9-31.4
			c-1.3-1.8-21.5-11.4-21.5-11.4l-7.5-11.1L275,292.8z"/>
		<path class="st42" d="M276.1,296.3c0,0,5.3,6,3.8,21.5c-1.4,15.5-2.7,31.5,2.4,37.7c5.1,6.2-6.2,10.8-6.2,10.8s-20.8,5.8-29.4-3.5
			c-8.6-9.3,0.3-59.1,7.9-65.9c7.6-6.7,10.3-8.1,10.3-8.1L276.1,296.3z"/>
		<path class="st43" d="M262.4,286c0,0,7.2-1,13.3,7.1l0.4,3.2l-5.9-2.2L262.4,286z"/>
		
			<rect x="327" y="276.7" transform="matrix(-0.9733 -0.2293 0.2293 -0.9733 582.924 643.505)" class="st19" width="3.7" height="22.3"/>
		<path class="st25" d="M324.5,298.3c0,0-1.3-1.9-1.2-2.6c0.1-0.7,2.7-1.6,2.5-3c-0.2-1.4-1.6-2.6-3.2-0.9c-1.5,1.7-1.5,2.7-3.5,3.5
			c-2,0.8-0.7,8.3,1.3,10.2l5.5,3.1C326,308.7,332.9,296.8,324.5,298.3z"/>
		<path class="st25" d="M331.2,286c0,0,1.2,2.8,2,3.8c0.8,1-0.7,15.5-7.5,19.6l-2.4-1.9l4.8-8.3L331.2,286z"/>
		<path class="st25" d="M280.8,286.6c0,0-7.2,0.8-6.7,4.2c0,0,2.1,4.1,2.1,5.6c0,0-8.1-1.3-11.2-7.5c0,0,2-7.7,5-7.9l6.7,2.9
			L280.8,286.6z"/>
		<path class="st41" d="M262.4,286c0,0,10.2,6.1,13.4,12.4c3.2,6.3,3.4,7.7,2.5,15.3s-6.9,12.8-5.9,23.7c1,10.8,12.1,33.4,14.5,36.3
			c2.4,2.9-30.1,19.9-38.7,10.8c0,0-6.4-10.2-7.5-35.4s2.7-40.3,6-48C250,293.3,262.4,286,262.4,286z"/>
		<path class="st41" d="M269.2,300.4c0,0,24.5,19,27,19.7c2.5,0.7,21.5-14.8,23.3-15.7c1.8-0.9,7.3,5.1,7.5,7.7
			c0.2,2.7-25.8,25-28.8,26.6c-3.1,1.5-33.3-21.5-33.3-21.5s-14-8.9-9.4-15.1C260.1,296,262.5,295.2,269.2,300.4z"/>
		<path class="st42" d="M385.4,378c0,0,4.2-0.8,4.9-1c0.7-0.2,4.9-12.9,4.3-17.4c-0.7-4.5,6.7-5.8,8.2-5.1
			c1.5,0.7,3.3,18.2,1.8,26.8c-1.5,8.7-1.3,6.5-2.3,7.7h-15.9L385.4,378z"/>
		<path class="st19" d="M405.1,354.3l-2.4,0.2c1.5,0.7,3.3,18.2,1.8,26.8c-1.5,8.7-1.3,6.5-2.3,7.7l2.9-0.5
			C410.5,370.6,405.1,354.3,405.1,354.3z"/>
		<path class="st28" d="M389.8,376.2c0,0,0,1.8,3.5,3.5s0-2.5,0-2.5s-2.4-0.7-2.7-2.6L389.8,376.2z"/>
		<path class="st28" d="M391.3,372.6c0,0,0.2,1.8,3.9,3c3.7,1.2-0.3-2.4-0.3-2.4s-2.5-0.4-2.9-2.3L391.3,372.6z"/>
		<path class="st25" d="M389.8,377.3l-0.2-0.2c-1.4,0.3-4.2,0.8-4.2,0.8l1,11h3.9C390.3,389,397.7,384.7,389.8,377.3z"/>
		<path class="st25" d="M298.3,261.9c0,0,5,6.6-1.8,14.6c0,0,5.2,1.3,2.4,4c-2.8,2.8-4,1.6-4,1.6s-2.3,7.9-11.4,7.6
			c-9.1-0.3-16-5.1-16-5.1l4.6-23.2c0,0,10.6-7.2,11.1-7.1c0.4,0,10.6,6.6,10.6,6.6L298.3,261.9z"/>
		<path class="st44" d="M307.4,261.4c2.6-0.6,8-4.6,8.3-4.8c-2.4,0.6-4.7,0.7-7,0.6c-11-0.6-20.5-7.9-20.5-7.9s-10.3-9.7-20.6,2.2
			c0,0-12.2,2.1-8.5,19.6c3.7,17.4,12,13.9,13.2,13.2s6.4-7.7,6.4-10.2c0.1-2.5-3.1-4.6-0.4-10.4c2.7-5.8,6.7-2.2,6.3,0.5
			c-0.5,2.7-5.8,8.7-1.5,9.4c0,0,1.9-0.1,3.9-5c0,0,5.7,0.1,9.6-1.6c8.4-0.2,15.5-4.6,15.5-4.6C308.9,262.8,307.4,261.4,307.4,261.4
			z"/>
		<path class="st19" d="M296.1,274.1c-0.6,1-1.2,1.8-1.4,1.7c-0.2-0.1,0.1-1.1,0.7-2.1s1.2-1.8,1.4-1.7
			C297,272.2,296.7,273.1,296.1,274.1z"/>
		<path class="st25" d="M324.5,298.3c0,0,4.3-2.2,5.3-6.1l1.9,2.6c0,0-2.2,3.6-2.5,4.3c-0.3,0.8-3.9,1.8-3.9,1.8L324.5,298.3z"/>
		<path class="st45" d="M308.5,351.8c0,0,0.7,0.7,2.6,0.9c1.9,0.2,4.7-0.3,5-0.5c0.3-0.1,1.6-0.5,1.6-0.5l-0.2-0.6
			c0,0-5.6,1.4-8.5,0.2L308.5,351.8z"/>
		<path class="st46" d="M266.5,284.3l7.5,5.8c0,0,0.2-1.4,1.3-1.8L266.5,284.3z"/>
		<path class="st46" d="M319.5,304c0,0,1.3-0.8,3,0.8c1.7,1.6,3.4,4,3.5,4.4l-0.3,0.2c0,0-3.1-4.2-5.1-4.8l-1.1-0.2L319.5,304z"/>
	</g>
</g>
<g id="DESIGNED_BY_FREEPIK">
</g>
</svg>
