<?xml version="1.0" encoding="utf-8"?>
<!-- Generator: Adobe Illustrator 24.2.1, SVG Export Plug-In . SVG Version: 6.00 Build 0)  -->
<svg version="1.1" xmlns="http://www.w3.org/2000/svg" xmlns:xlink="http://www.w3.org/1999/xlink" x="0px" y="0px"
	 viewBox="0 0 437.8 421.4" style="enable-background:new 0 0 437.8 421.4;" xml:space="preserve">
<style type="text/css">
	.st0{display:none;}
	.st1{display:inline;fill:#FFFFFF;}
	.st2{opacity:0.64;}
	.st3{opacity:0.25;fill:#38C3D8;stroke:#D7BBFD;stroke-width:0.8731;stroke-miterlimit:10;}
	.st4{opacity:0.19;fill:#38C3D8;}
	.st5{fill:#72C7C7;}
	.st6{fill:#F3FBFD;}
	.st7{fill:#022B5F;}
	.st8{fill:#02214A;}
	.st9{fill:#004FC6;}
	.st10{fill:#2D1F6A;}
	.st11{fill:#C1D3E9;}
	.st12{fill:#FFFFFF;}
	.st13{fill:#02234D;}
	.st14{fill:#E1E9F2;}
	.st15{fill:#FFDB8E;}
	.st16{fill:#A4E0AC;}
	.st17{fill:#BBCAD9;}
	.st18{fill:url(#SVGID_1_);}
	.st19{fill:url(#SVGID_2_);}
	.st20{fill:#FFDDA1;}
	.st21{fill:url(#XMLID_6_);}
	.st22{fill:url(#XMLID_8_);}
	.st23{fill:url(#SVGID_3_);}
	.st24{display:inline;fill:#FFD151;}
	.st25{display:inline;opacity:0.3;fill:url(#XMLID_9_);}
	.st26{display:inline;opacity:0.3;fill:url(#XMLID_10_);}
	.st27{fill:url(#SVGID_4_);}
	.st28{opacity:0.57;fill:url(#SVGID_5_);}
	.st29{fill:url(#XMLID_11_);}
	.st30{fill:url(#XMLID_12_);}
	.st31{fill:#B3B3B3;}
	.st32{fill:#999999;}
	.st33{fill:#FEC27E;}
	.st34{fill:url(#SVGID_6_);}
	.st35{fill:url(#SVGID_7_);}
	.st36{fill:url(#SVGID_8_);}
	.st37{fill:url(#XMLID_14_);}
	.st38{fill:#F28F26;}
	.st39{fill:url(#SVGID_9_);}
	.st40{opacity:0.57;fill:url(#SVGID_10_);}
	.st41{fill:url(#XMLID_15_);}
	.st42{fill:none;stroke:#BBCAD9;stroke-width:0.7302;stroke-linecap:round;stroke-miterlimit:10;}
	.st43{fill:url(#XMLID_16_);}
	.st44{opacity:0.57;fill:url(#XMLID_17_);}
	.st45{fill:url(#XMLID_18_);}
	.st46{fill:url(#XMLID_19_);}
	.st47{fill:url(#XMLID_20_);}
	.st48{opacity:0.57;fill:url(#SVGID_11_);}
	.st49{opacity:0.57;fill:url(#XMLID_23_);}
	.st50{fill:url(#XMLID_25_);}
	.st51{opacity:0.57;fill:url(#SVGID_12_);}
	.st52{fill:url(#XMLID_26_);}
	.st53{fill:url(#XMLID_27_);}
	.st54{fill:url(#XMLID_32_);}
	.st55{fill:url(#XMLID_33_);}
	.st56{fill:url(#XMLID_34_);}
	.st57{fill:#14B8C7;}
	.st58{fill:url(#XMLID_35_);}
	.st59{fill:url(#XMLID_36_);}
	.st60{fill:#424B54;}
	.st61{opacity:0.7;fill:url(#XMLID_37_);}
	.st62{fill:url(#SVGID_13_);}
	.st63{opacity:0.7;fill:url(#XMLID_40_);}
	.st64{fill:#734F2A;}
	.st65{fill:url(#SVGID_14_);}
	.st66{fill:#384047;}
	.st67{fill:none;stroke:#BBCAD9;stroke-width:1.2474;stroke-linecap:round;stroke-miterlimit:10;}
	.st68{fill:url(#SVGID_15_);}
	.st69{fill:#42210B;}
	.st70{fill:url(#SVGID_16_);}
	.st71{fill:url(#SVGID_17_);}
	.st72{fill:url(#SVGID_18_);}
	.st73{fill:url(#SVGID_19_);}
	.st74{fill:url(#SVGID_20_);}
	.st75{fill:url(#SVGID_21_);}
	.st76{fill:url(#SVGID_22_);}
	.st77{fill:url(#SVGID_23_);}
	.st78{fill:url(#SVGID_24_);}
	.st79{fill:url(#SVGID_25_);}
	.st80{fill:#1E252E;}
	.st81{fill:#303C4A;}
	.st82{fill:url(#SVGID_26_);}
	.st83{fill:url(#SVGID_27_);}
</style>
<g id="BACKGROUND" class="st0">
	<rect x="-45.5" y="-35.6" class="st1" width="500" height="500"/>
</g>
<g id="OBJECTS">
	<g class="st2">
		<path class="st3" d="M132.7,84.3c0,0,45.3-46.5,83.7-28.1c38.4,18.4,65.4-17.1,88.1-15.3c22.7,1.9,82.7,49.4,53.1,88.6
			c-29.6,39.2,16.4,34.7,21,67.4c4.5,32.7,5,70.3-61,87.9c-66,17.6-55.9,78.8-105.5,97.5S97.2,403.6,91.6,329.8
			c-5.5-73.8-8.3-82.1-33.6-97.9C32.8,216.1,14.8,108.4,132.7,84.3z"/>
		<path class="st4" d="M266.1,357.6c0,0-47.9,40.2-85.6,12s-66.7,4.2-89.3-2.7C68.5,360,10.6,295.7,42.3,260
			c31.7-35.7-14.8-41-17.7-77.1c-2.9-36.1-1.5-76.7,65.8-81.3c67.3-4.6,60.1-72.7,110.9-82c50.8-9.3,116.6,2.1,118.4,82.7
			c1.9,80.6,4.2,90.1,28.8,112.7C373.2,237.5,385.8,357.3,266.1,357.6z"/>
	</g>
	<ellipse class="st5" cx="222.7" cy="379.9" rx="204" ry="21.3"/>
	<path class="st5" d="M346.3,376.6c-1.1,0-2.1,0-3.2,0c0.1-0.1,0.2-0.3,0.2-0.4c0-4.8-65.6-8.6-146.5-8.6s-146.5,3.9-146.5,8.6
		c0,4.8,65.6,8.6,146.5,8.6c4.6,0,9.1,0,13.6,0c-0.4,0.4-0.6,0.8-0.6,1.3c0,4.1,16.9,7.5,37.6,7.5s37.6-3.3,37.6-7.5
		c0-1-1-2-2.9-2.9c6.5-0.3,12.6-0.6,18.3-0.9c0,0,0,0.1,0,0.1c0,3.2,20.5,5.8,45.8,5.8c25.3,0,45.8-2.6,45.8-5.8
		C392.1,379.2,371.6,376.6,346.3,376.6z"/>
	<g>
		<path class="st6" d="M281.7,202.3c0,0,3.5-13.6,13.7-13.3c10.2,0.3,11.5,7.3,13.7,7.9c2.2,0.6,12.2-4,17.1,3.1
			c4.9,7.1,14.4,6.4,18.8,8.9c4.4,2.4,8,5.8,8,9.8c0,4,6,2.7,6.9,6.4c0.9,3.8-6.2,6.7-41.5,6.7s-48.3,1.5-53-2.8
			c-4.7-4.3,2.7-6.4,3.5-8.1c0.9-1.7,1.3-9.9,6.7-11.9C281.1,206.8,281.7,202.3,281.7,202.3z"/>
		<path class="st6" d="M342.8,179.6c0,0,2.3-8.9,9-8.7c6.7,0.2,7.6,4.8,9,5.2c1.5,0.4,8-2.6,11.2,2c3.2,4.7,9.5,4.2,12.4,5.8
			c2.9,1.6,5.2,3.8,5.2,6.4c0,2.6,3.9,1.7,4.5,4.2c0.6,2.5-4.1,4.4-27.2,4.4c-23.1,0-31.7,1-34.7-1.8c-3.1-2.8,1.7-4.2,2.3-5.3
			c0.6-1.1,0.9-6.5,4.4-7.8C342.4,182.5,342.8,179.6,342.8,179.6z"/>
		<path class="st6" d="M328,341c0,0,1.4-5.5,5.5-5.3c4.1,0.1,4.6,2.9,5.5,3.2c0.9,0.3,4.9-1.6,6.9,1.2c2,2.8,5.8,2.6,7.6,3.6
			c1.8,1,3.2,2.3,3.2,3.9c0,1.6,2.4,1.1,2.8,2.6c0.4,1.5-2.5,2.7-16.6,2.7s-19.4,0.6-21.3-1.1c-1.9-1.7,1.1-2.6,1.4-3.3
			c0.4-0.7,0.5-4,2.7-4.8C327.7,342.8,328,341,328,341z"/>
		<path class="st6" d="M279.5,96c0,0,3.5-13.6,13.7-13.3c10.2,0.3,11.5,7.3,13.7,7.9c2.2,0.6,12.2-4,17.1,3.1
			c4.9,7.1,14.4,6.4,18.8,8.9s8,5.8,8,9.8c0,4,6,2.7,6.9,6.4c0.9,3.8-6.2,6.7-41.5,6.7c-35.3,0-48.3,1.5-53-2.8
			c-4.7-4.3,2.7-6.4,3.5-8.1c0.9-1.7,1.3-9.9,6.7-11.9C278.8,100.5,279.5,96,279.5,96z"/>
		<path class="st6" d="M32.9,109.6c0,0,3.5-13.6,13.7-13.3s11.5,7.3,13.7,7.9c2.2,0.6,12.2-4,17.1,3.1c4.9,7.1,14.4,6.4,18.8,8.9
			c4.4,2.4,8,5.8,8,9.8c0,4,6,2.7,6.9,6.4c0.9,3.8-6.2,6.7-41.5,6.7c-35.3,0-48.3,1.5-53-2.8c-4.7-4.3,2.7-6.4,3.5-8.1
			c0.9-1.7,1.3-9.9,6.7-11.9C32.2,114.2,32.9,109.6,32.9,109.6z"/>
	</g>
	<g>
		<g>
			<path class="st7" d="M192.7,334.7L192.7,334.7c4.5,0,8.2-3.7,8.2-8.2V198c0-4.5-3.7-8.2-8.2-8.2l0,0c-4.5,0-8.2,3.7-8.2,8.2
				v128.5C184.5,331,188.2,334.7,192.7,334.7z"/>
		</g>
		<g>
			<path class="st8" d="M187.5,286.4c4.5,0,8.2-3.7,8.2-8.2v-87.8c3,1.2,5.2,4.2,5.2,7.6v128.5c0,4.5-3.7,8.2-8.2,8.2
				s-8.2-3.7-8.2-8.2v-40.7C185.5,286.2,186.5,286.4,187.5,286.4z"/>
		</g>
		<path class="st9" d="M188.6,245.4L188.6,245.4c0.5,0,0.9-0.4,0.9-0.9v-46.3c0-0.5-0.4-0.9-0.9-0.9l0,0c-0.5,0-0.9,0.4-0.9,0.9
			v46.3C187.7,245,188.1,245.4,188.6,245.4z"/>
		<g>
			<path class="st7" d="M76,333.6L76,333.6c4.2-1.7,6.2-6.5,4.5-10.6L32.7,203.7c-1.7-4.2-6.5-6.2-10.6-4.5l0,0
				c-4.2,1.7-6.2,6.5-4.5,10.6L65.3,329C67,333.2,71.8,335.3,76,333.6z"/>
		</g>
		<g>
			<path class="st8" d="M53.2,290.7c4.2-1.7,6.2-6.5,4.5-10.6L25,198.5c3.3,0,6.4,1.9,7.7,5.1L80.5,323c1.7,4.2-0.4,9-4.5,10.6
				c-4.2,1.7-9-0.4-10.6-4.5l-15.1-37.8C51.2,291.3,52.2,291.1,53.2,290.7z"/>
		</g>
		<path class="st9" d="M38.9,252.2L38.9,252.2c0.5-0.2,0.7-0.7,0.5-1.2l-17.2-43c-0.2-0.5-0.7-0.7-1.2-0.5l0,0
			c-0.5,0.2-0.7,0.7-0.5,1.2l17.2,43C38,252.2,38.5,252.4,38.9,252.2z"/>
		<g>
			<g>
				<path class="st10" d="M306.1,378.4L306.1,378.4c5.2,0,9.5-4.3,9.5-9.5l0,0c0-5.2-4.3-9.5-9.5-9.5l0,0c-5.2,0-9.5,4.3-9.5,9.5
					l0,0C296.6,374.1,300.9,378.4,306.1,378.4z"/>
			</g>
			<g>
				<path class="st11" d="M295.8,373.4h20.6c2.7,0,4.9-2.2,4.9-4.9l0,0c0-2.7-2.2-4.9-4.9-4.9h-20.6c-2.7,0-4.9,2.2-4.9,4.9l0,0
					C290.8,371.2,293.1,373.4,295.8,373.4z"/>
			</g>
		</g>
		<g>
			<g>
				<path class="st10" d="M88.4,378.4L88.4,378.4c5.2,0,9.5-4.3,9.5-9.5l0,0c0-5.2-4.3-9.5-9.5-9.5l0,0c-5.2,0-9.5,4.3-9.5,9.5l0,0
					C78.9,374.1,83.2,378.4,88.4,378.4z"/>
			</g>
			<g>
				<path class="st11" d="M78.1,373.4h20.6c2.7,0,4.9-2.2,4.9-4.9l0,0c0-2.7-2.2-4.9-4.9-4.9H78.1c-2.7,0-4.9,2.2-4.9,4.9l0,0
					C73.1,371.2,75.4,373.4,78.1,373.4z"/>
			</g>
		</g>
		<g>
			<path class="st7" d="M302.1,334.1L302.1,334.1c4.1,1.8,9-0.1,10.8-4.2l51.5-117.7c1.8-4.1-0.1-9-4.2-10.8l0,0
				c-4.1-1.8-9,0.1-10.8,4.2l-51.5,117.7C296.1,327.5,298,332.3,302.1,334.1z"/>
		</g>
		<g>
			<path class="st8" d="M316.7,287.8c4.1,1.8,9-0.1,10.8-4.2l35.2-80.5c2.3,2.3,3.1,5.9,1.7,9l-51.5,117.7c-1.8,4.1-6.6,6-10.8,4.2
				c-4.1-1.8-6-6.6-4.2-10.8l16.3-37.3C314.9,286.8,315.7,287.4,316.7,287.8z"/>
		</g>
		<g>
			<path class="st12" d="M65.3,369.3h259.8c11.1,0,20.2-9.1,20.2-20.2l0,0c0-33.8-27.7-61.5-61.5-61.5H106.6
				c-33.8,0-61.5,27.7-61.5,61.5l0,0C45.1,360.2,54.2,369.3,65.3,369.3z"/>
		</g>
		<g>
			<path class="st7" d="M65.3,353.7c-2.5,0-4.6-2.1-4.6-4.6c0-25.3,20.6-45.9,45.9-45.9h177.2c25.3,0,45.9,20.6,45.9,45.9
				c0,2.5-2.1,4.6-4.6,4.6H65.3z"/>
		</g>
		<g>
			<path class="st13" d="M91,340.5c-2.5,0-4.6-2.1-4.6-4.6c0-12.5,5-23.9,13.2-32.1c-22,3.4-38.9,22.4-38.9,45.4
				c0,2.5,2.1,4.6,4.6,4.6h259.8c2.5,0,4.6-2.1,4.6-4.6c0-3-0.3-5.8-0.8-8.6H91z"/>
		</g>
		<path class="st9" d="M334.1,250.7L334.1,250.7c0.4,0.2,1,0,1.2-0.5l18.6-42.4c0.2-0.4,0-1-0.5-1.2l0,0c-0.4-0.2-1,0-1.2,0.5
			l-18.6,42.4C333.5,250,333.7,250.5,334.1,250.7z"/>
		<g>
			<path class="st14" d="M89.7,347.5c-11.1,0-20.2-9.1-20.2-20.2l0,0c0-12.2,3.6-23.6,9.8-33.2c-20.2,10.1-34.2,31-34.2,55l0,0
				c0,11.1,9.1,20.2,20.2,20.2h259.8c11.1,0,20.2-9.1,20.2-20.2l0,0c0-0.6,0-1.1,0-1.7H89.7z"/>
		</g>
		<path class="st15" d="M138.8,328.5h-16.3c-1.6,0-2.8-1.3-2.8-2.8l0,0c0-1.6,1.3-2.8,2.8-2.8h16.3c1.6,0,2.8,1.3,2.8,2.8l0,0
			C141.6,327.2,140.4,328.5,138.8,328.5z"/>
		<path class="st15" d="M172.9,328.5h-16.3c-1.6,0-2.8-1.3-2.8-2.8l0,0c0-1.6,1.3-2.8,2.8-2.8h16.3c1.6,0,2.8,1.3,2.8,2.8l0,0
			C175.8,327.2,174.5,328.5,172.9,328.5z"/>
		<path class="st15" d="M207.1,328.5h-16.3c-1.6,0-2.8-1.3-2.8-2.8l0,0c0-1.6,1.3-2.8,2.8-2.8h16.3c1.6,0,2.8,1.3,2.8,2.8l0,0
			C209.9,327.2,208.6,328.5,207.1,328.5z"/>
		<path class="st15" d="M241.2,328.5h-16.3c-1.6,0-2.8-1.3-2.8-2.8l0,0c0-1.6,1.3-2.8,2.8-2.8h16.3c1.6,0,2.8,1.3,2.8,2.8l0,0
			C244,327.2,242.7,328.5,241.2,328.5z"/>
		<path class="st16" d="M272.6,335.5h-11c-4.4,0-7.9-3.5-7.9-7.9v-3.9c0-4.4,3.5-7.9,7.9-7.9h11c4.4,0,7.9,3.5,7.9,7.9v3.9
			C280.5,332,277,335.5,272.6,335.5z"/>
		<g>
			
				<image style="overflow:visible;" width="100" height="93" xlink:href="32485C3D.png"  transform="matrix(1 0 0 1 217.5007 279.3573)">
			</image>
		</g>
	</g>
	<g id="XMLID_121_">
		<path class="st17" d="M165.4,321.1c0,0-1,3.5-0.4,4.6c0.6,1.2,3.9,3.3,5.5,3.6c1.6,0.3,3.2,0.7,8.4,5.1c5.2,4.4,11.7,3.6,12.4,3.4
			c0.7-0.2,2.2-3.7,1-4.6C190.9,332.4,165.4,321.1,165.4,321.1z"/>
		<path class="st17" d="M121.8,338.6c0,0-1.3,3.8-1.1,4.5c0.2,0.7,3.7,4.6,5.1,5.9c1.5,1.2,3.2,9.2,10.4,9.2
			c7.2,0,10.6-1.7,10.6-1.7s0.6-1.8,0-3.1S124.4,345.9,121.8,338.6z"/>
		<linearGradient id="SVGID_1_" gradientUnits="userSpaceOnUse" x1="165.3985" y1="325.705" x2="192.2116" y2="325.705">
			<stop  offset="0" style="stop-color:#424B54"/>
			<stop  offset="1" style="stop-color:#343B42"/>
		</linearGradient>
		<path class="st18" d="M166.3,316.8c0,0-2.1,4.6,0,7.8c2.1,3.2,6.9,3.5,8.3,4.4c1.4,0.9,6,6.3,12,7c6,0.7,6.4-3.3,4.6-4.5
			c-1.7-1.2-14-14.4-17.2-15.8C171,314.3,166.3,316.8,166.3,316.8z"/>
		<linearGradient id="SVGID_2_" gradientUnits="userSpaceOnUse" x1="121.6907" y1="344.6653" x2="147.0726" y2="344.6653">
			<stop  offset="0" style="stop-color:#424B54"/>
			<stop  offset="1" style="stop-color:#343B42"/>
		</linearGradient>
		<path class="st19" d="M125.9,334.1c0,0-3.8,1.3-4.2,5.2c-0.4,3.9,5.5,5.8,7.2,9.1c1.7,3.2,2.1,8.4,12.1,7.6
			c9.9-0.8,5.4-4.7,2.6-6.1c-2.7-1.4-5.1-1.5-6.2-5.9c-0.9-3.5-3.8-9.9-3.8-9.9S128.6,332.3,125.9,334.1z"/>
		<path class="st20" d="M127.9,326.1l-0.6,1l-1.3,7c0,0,3.6,4.1,7.5,0.8l4.1-11C137.4,324,129.2,323.9,127.9,326.1z"/>
		<path class="st20" d="M164,311.1l3.1,7.6c0,0,5.2,2.4,7.6-1.9l-4.6-9.7C170.1,307.1,162.8,308.3,164,311.1z"/>
		<linearGradient id="XMLID_6_" gradientUnits="userSpaceOnUse" x1="104.3384" y1="232.7024" x2="155.5123" y2="232.7024">
			<stop  offset="0.1436" style="stop-color:#EDC276"/>
			<stop  offset="0.4424" style="stop-color:#ECBE72"/>
			<stop  offset="0.7167" style="stop-color:#EAB467"/>
			<stop  offset="0.9806" style="stop-color:#E6A255"/>
			<stop  offset="1" style="stop-color:#E6A053"/>
		</linearGradient>
		<path id="XMLID_3_" class="st21" d="M118.2,216.8l-4.9-5.5c-0.7-0.7-1.6-1.2-2.5-1.1l-2.5,0.1c-0.6,0-1.1,0.2-1.6,0.6l-1,0.7
			c-1.1,0.8-1.6,2.4-1.2,3.8l9.2,29.5c0.1,0.4,0.3,0.8,0.6,1.2c2.8,3.5,5.8,4.2,10.2,5l27.5,4.1c1.4,0.2,2.7-0.6,3.3-1.9l0,0
			c0.8-2-0.4-4.3-2.4-4.7l-25.3-5.6c-0.1,0-0.3-0.1-0.4-0.1c-10.2-3.4-8.9-18.2-8.1-23.2C119.2,218.6,118.9,217.6,118.2,216.8z"/>
		<g id="XMLID_339_">
			<linearGradient id="XMLID_8_" gradientUnits="userSpaceOnUse" x1="85.5823" y1="286.7125" x2="85.5823" y2="157.7798">
				<stop  offset="9.497770e-03" style="stop-color:#FFCD42"/>
				<stop  offset="0.2299" style="stop-color:#FEC83F"/>
				<stop  offset="0.4912" style="stop-color:#FBBA38"/>
				<stop  offset="0.7723" style="stop-color:#F7A22C"/>
				<stop  offset="1" style="stop-color:#F2891F"/>
			</linearGradient>
			<path id="XMLID_123_" class="st22" d="M120.4,180.8c0.9-9.7-0.6-15.7-9.1-20.4c-5.3-2.9-11.5-3.3-17.5-1.8
				c-11.6,2.8-14.6,13.7-15.7,22.4c-0.6,5.3-2.1,7.9-4.2,12.8c-3.5,7.9-10,15.1-12.8,17.8c-10,9.7-11.1,21.1-10.3,26.5
				c2.2,15,13.1,11.2,7.3,20.5c-7.5,12.2,3.8,26.6,14.4,22.3c1.1-0.4,2.3,0,3.5,0.7c5.5,3.3,11.7,5.2,18.1,5.1
				c3.9-0.1,8.4-0.6,13.4-2c13.7-3.7-1.1-58.7,7.8-94.4C118.6,188.8,120,184.5,120.4,180.8z"/>
		</g>
		<linearGradient id="SVGID_3_" gradientUnits="userSpaceOnUse" x1="103.4036" y1="214.2623" x2="119.7116" y2="214.2623">
			<stop  offset="0" style="stop-color:#424B54"/>
			<stop  offset="1" style="stop-color:#343B42"/>
		</linearGradient>
		<path class="st23" d="M106.7,204.5c0,0-5.9,4.4-2,17.6c0,0,4.8,6.2,14.9,0.8c0,0,0.9-10.5-2.2-16.2
			C114.4,201,106.7,204.5,106.7,204.5z"/>
		<g id="XMLID_345_" class="st0">
			<path id="XMLID_335_" class="st24" d="M56.5,202.2c11.4-11.3,19.1,5.6,40.3,13.2c21.2,7.6,46.5,28.4,51.9,39.9
				c5.4,11.5,24.3,21.6-54,38.9C16.3,311.6,20.4,238,56.5,202.2z"/>
			
				<linearGradient id="XMLID_9_" gradientUnits="userSpaceOnUse" x1="564.7408" y1="180.8348" x2="512.8321" y2="297.7509" gradientTransform="matrix(0.9781 -0.2082 0.2082 0.9781 -481.3012 127.0943)">
				<stop  offset="0" style="stop-color:#FF931E;stop-opacity:0"/>
				<stop  offset="1" style="stop-color:#B8633C"/>
			</linearGradient>
			<path id="XMLID_344_" class="st25" d="M56.5,202.2c11.4-11.3,19.1,5.6,40.3,13.2c21.2,7.6,46.5,28.4,51.9,39.9
				c5.4,11.5,24.3,21.6-54,38.9C16.3,311.6,20.4,238,56.5,202.2z"/>
			
				<linearGradient id="XMLID_10_" gradientUnits="userSpaceOnUse" x1="519.7844" y1="233.966" x2="534.9169" y2="211.4834" gradientTransform="matrix(0.9781 -0.2082 0.2082 0.9781 -481.3012 127.0943)">
				<stop  offset="0" style="stop-color:#FF931E;stop-opacity:0"/>
				<stop  offset="1" style="stop-color:#B8633C"/>
			</linearGradient>
			<path id="XMLID_343_" class="st26" d="M71.8,201.6c0,0-18.4,12.2-11.1,24.5c7.3,12.3,16.5,2.3,21.2,10.7
				c4.7,8.4,26.1,2.7,26.1,2.7l5.7-21.3l-22.5-18.9L71.8,201.6z"/>
		</g>
		<linearGradient id="SVGID_4_" gradientUnits="userSpaceOnUse" x1="91.9542" y1="288.4918" x2="174.1611" y2="288.4918">
			<stop  offset="1.400000e-07" style="stop-color:#00A6C1"/>
			<stop  offset="1" style="stop-color:#1B1464"/>
		</linearGradient>
		<path class="st27" d="M164,279.1c-7.2-14.4-11.9-13.2-11.9-13.2c-2.3-1.1-5.5-1.5-9.7-1c-17,2.2-45.8-2.4-49.7,0
			c0,0-4.1,16.3,7,21.4c8.1,3.8,34.3-0.7,48.6-4.1c4.7,6.3,12.8,28.7,12.8,28.7c10.2,5.5,13.2-3.2,13.2-3.2S171.2,293.5,164,279.1z"
			/>
		<linearGradient id="SVGID_5_" gradientUnits="userSpaceOnUse" x1="91.9542" y1="288.4919" x2="172.6738" y2="288.4919">
			<stop  offset="1.400000e-07" style="stop-color:#00A6C1"/>
			<stop  offset="1" style="stop-color:#1B1464"/>
		</linearGradient>
		<path class="st28" d="M156.3,274.3c0-0.6,1.9-0.8,4.3-1.1c-5.3-8.1-8.5-7.2-8.5-7.2c-2.3-1.1-5.5-1.5-9.7-1
			c-17,2.2-45.8-2.4-49.7,0c0,0-4.1,16.3,7,21.4c8.1,3.8,34.3-0.7,48.6-4.1c4.7,6.3,12.8,28.7,12.8,28.7c6.4,3.4,9.9,1.3,11.7-0.7
			C162.4,301.8,155.9,289,156.3,274.3z"/>
		<linearGradient id="XMLID_11_" gradientUnits="userSpaceOnUse" x1="78.7809" y1="236.9537" x2="120.6121" y2="236.9537">
			<stop  offset="0" style="stop-color:#424B54"/>
			<stop  offset="1" style="stop-color:#343B42"/>
		</linearGradient>
		<path id="XMLID_30_" class="st29" d="M92,271.6c0,0,27.3-2.4,28.7-14c0,0-11-23.3-4.4-30c5.4-5.3,1.6-18.7-2.8-22.8
			c-0.7-0.6-1.2-1.4-2-1.7c-3.9-1.2-5-0.7-15.6-0.2c-13.4,0.6-17.7,9.2-17,17.6C81.3,249.3,87.2,267.1,92,271.6z"/>
		<linearGradient id="XMLID_12_" gradientUnits="userSpaceOnUse" x1="95.772" y1="189.7879" x2="107.6512" y2="204.4575">
			<stop  offset="0.1436" style="stop-color:#EDC276"/>
			<stop  offset="0.4424" style="stop-color:#ECBE72"/>
			<stop  offset="0.7167" style="stop-color:#EAB467"/>
			<stop  offset="0.9806" style="stop-color:#E6A255"/>
			<stop  offset="1" style="stop-color:#E6A053"/>
		</linearGradient>
		<path id="XMLID_31_" class="st30" d="M101.5,207.7L101.5,207.7c-3.2-0.1-5.8-2.7-5.8-6l0.2-9.3c0.1-3.2,2.7-5.8,6-5.8l0,0
			c3.2,0.1,5.8,2.7,5.8,6l-0.2,9.3C107.4,205.1,104.8,207.7,101.5,207.7z"/>
		<polyline id="XMLID_125_" class="st31" points="139.2,251.3 161,261.4 116.6,272.6 92.8,263.5 		"/>
		<path id="XMLID_127_" class="st32" d="M138.8,252.9l21.8,10.1l-44.4,11.2l-22.5-8.6c-0.8-0.3-1.2-1.1-1-1.9l0-0.2l23.9,9.1
			l44.4-11.2l-21.8-10.1"/>
		<path id="XMLID_126_" class="st32" d="M111.5,272l-0.7-0.3c0-0.1,0-0.1-0.1-0.1l0.1-0.4c0.1,0,0.1,0,0.1-0.1l0.7,0.3
			c0,0.1,0,0.1,0.1,0.1l-0.1,0.4C111.6,271.9,111.6,272,111.5,272z"/>
		<path id="XMLID_129_" class="st32" d="M112.7,272.4l-0.7-0.3c0-0.1,0-0.1-0.1-0.1l0.1-0.4c0.1,0,0.1,0,0.1-0.1l0.7,0.3
			c0,0.1,0,0.1,0.1,0.1l-0.1,0.4C112.8,272.4,112.8,272.4,112.7,272.4z"/>
		<path id="XMLID_130_" class="st32" d="M114,272.8l-0.7-0.3c0-0.1,0-0.1-0.1-0.1l0.1-0.4c0.1,0,0.1,0,0.1-0.1l0.7,0.3
			c0,0.1,0,0.1,0.1,0.1l-0.1,0.4C114,272.8,114,272.8,114,272.8z"/>
		<path class="st33" d="M106.1,258.7c0,0,8.6,0.1,10.6,0c1.6-0.1,4.7,1.5,6,2.2c0.4,0.2,0.7,0.5,0.9,0.8c0.8,1.1,2.6,3.8,2.3,4
			c-0.4,0.3-0.9,0.2-1.4,0c-0.5-0.2-2.3-2.9-2.3-2.9l-2.1-0.8l1.8,1c0,0,2.3,2.4,1.2,3.4c-0.5,0.5-0.8-0.3-0.8-0.3s-0.1,1-0.5,1
			c-1.2,0-1.9-1.6-1.9-1.6s-1.8-1.1-2.4-1.4c-0.2-0.1-1.4-0.4-1.4-0.4s1.6,1,1.7,1.2c1.1,1.2,1.5,2.4,1.4,2.8
			c-0.1,0.4-1,0.1-1.7-0.6c-0.5-0.4-0.8-1.6-3-1.4C113.4,265.9,104.2,265.6,106.1,258.7z"/>
		<linearGradient id="SVGID_6_" gradientUnits="userSpaceOnUse" x1="79.9149" y1="243.6425" x2="114.7854" y2="243.6425">
			<stop  offset="0" style="stop-color:#FFDDA1"/>
			<stop  offset="0.5257" style="stop-color:#FFCF8D"/>
			<stop  offset="1" style="stop-color:#FFC078"/>
		</linearGradient>
		<path class="st34" d="M80.1,222.9c0,0-0.9,23.1,2,28.4c3,5.3,19.6,12.9,31.9,13.7c0,0,2.6-2.2-1.5-5c-4.1-2.8-18.2-11.1-19.7-12.4
			c-1.5-1.3-2.2-1.6-2.2-3.6c0-2,1.7-21.1,1.7-21.1S81.8,221.4,80.1,222.9z"/>
		<linearGradient id="SVGID_7_" gradientUnits="userSpaceOnUse" x1="77.984" y1="217.7761" x2="94.0606" y2="217.7761">
			<stop  offset="0" style="stop-color:#424B54"/>
			<stop  offset="1" style="stop-color:#343B42"/>
		</linearGradient>
		<path class="st35" d="M82.8,207.4c0,0-6.4,3.5-4.5,17.2c0,0,3.9,6.8,14.6,2.9c0,0,2.4-10.3,0.2-16.3
			C90.9,205,82.8,207.4,82.8,207.4z"/>
		<linearGradient id="SVGID_8_" gradientUnits="userSpaceOnUse" x1="96.1501" y1="172.1768" x2="117.5466" y2="196.7906">
			<stop  offset="0.1436" style="stop-color:#FFDDA1"/>
			<stop  offset="0.4212" style="stop-color:#FFDA9D"/>
			<stop  offset="0.676" style="stop-color:#FFD392"/>
			<stop  offset="0.9212" style="stop-color:#FFC580"/>
			<stop  offset="1" style="stop-color:#FFC078"/>
		</linearGradient>
		<path class="st36" d="M92.4,190.8c0,0,1.7,5.4,2.9,6.9c1,1.2,9.7,6.7,14.8,4.8c5.2-1.9,7.2-8,7.7-19.4c0.5-11.3-0.1-13.7-3.4-15.5
			c-3.3-1.8-14.4-0.8-17.3,4C94.4,176.4,90.4,175.3,92.4,190.8z"/>
		<g id="XMLID_243_">
			<linearGradient id="XMLID_14_" gradientUnits="userSpaceOnUse" x1="95.0049" y1="188.3176" x2="86.7995" y2="183.1903">
				<stop  offset="0.1436" style="stop-color:#FFDDA1"/>
				<stop  offset="0.4212" style="stop-color:#FFDA9D"/>
				<stop  offset="0.676" style="stop-color:#FFD392"/>
				<stop  offset="0.9212" style="stop-color:#FFC580"/>
				<stop  offset="1" style="stop-color:#FFC078"/>
			</linearGradient>
			<path id="XMLID_197_" class="st37" d="M91.9,182.7c0,0-1.4-2.6-3.8-1.3c-2.4,1.3-0.1,9.9,5.6,8.9L91.9,182.7z"/>
		</g>
		<g id="XMLID_242_">
			<path id="XMLID_186_" class="st38" d="M114.5,166.1l-8.8-1.3c0,0-0.4,0.7-0.4,1.6c-0.9-0.7-1.9-1.1-1.9-1.1l-16.6,3.5
				c0,0,6.9,23.2,5.7,18.7c-1.2-4.5,2.6-4.6,10.6-12.2c2.5-2.4,3.5-4.3,3.6-5.7l0,0c2.5,2,10.4-2.1,11.6,6.4l0.2-5
				C118.6,168.6,116.9,166.5,114.5,166.1z"/>
		</g>
		<linearGradient id="SVGID_9_" gradientUnits="userSpaceOnUse" x1="125.315" y1="303.1555" x2="149.5702" y2="303.1555">
			<stop  offset="1.400000e-07" style="stop-color:#00A6C1"/>
			<stop  offset="1" style="stop-color:#1B1464"/>
		</linearGradient>
		<path class="st39" d="M131.1,285.7c0,0,6.8-10.6,15.8-8.1c9,2.5-6.5,47.2-10.2,49.5c-3.7,2.2-10.9,3.4-11.3-1.3
			C124.9,321.1,128.7,288.6,131.1,285.7z"/>
		<linearGradient id="SVGID_10_" gradientUnits="userSpaceOnUse" x1="130.9125" y1="303.0072" x2="149.5702" y2="303.0072">
			<stop  offset="1.400000e-07" style="stop-color:#00A6C1"/>
			<stop  offset="1" style="stop-color:#1B1464"/>
		</linearGradient>
		<path class="st40" d="M146.8,277.6c-9-2.5-15.8,8.1-15.8,8.1c-0.1,0.1-0.1,0.2-0.2,0.2c2.4-1.3,5.3-2,8.4-1.2c7.2,2-1.4,31.4-7,44
			c1.6-0.3,3.1-0.9,4.3-1.7C140.4,324.9,155.8,280.1,146.8,277.6z"/>
		<linearGradient id="XMLID_15_" gradientUnits="userSpaceOnUse" x1="126.2183" y1="233.2233" x2="157.0477" y2="266.2838">
			<stop  offset="0.4877" style="stop-color:#CCCCCC"/>
			<stop  offset="0.5963" style="stop-color:#C5C5C6"/>
			<stop  offset="0.751" style="stop-color:#B3B3B4"/>
			<stop  offset="0.9325" style="stop-color:#969498"/>
			<stop  offset="1" style="stop-color:#89878C"/>
		</linearGradient>
		<path id="XMLID_119_" class="st41" d="M160.6,263l-44.4,11.2l0.2-1c0.1-0.4,0.3-0.7,0.6-0.9c1.4-1.1,5.1-33.8,5.1-33.8
			c0.2-1.9,1.5-3.5,3.4-4l39.5-10.1c1.1-0.3,2.2,0.7,2,1.8L160.6,263z"/>
		<path class="st42" d="M180.8,321.4c0,0-1.6-1.2-4.1,3.1"/>
		<path class="st42" d="M183.9,324.2c0,0-1.6-1.2-4.1,3.1"/>
		<path class="st42" d="M186.5,326.4c0,0-1.6-1.2-4.1,3.1"/>
		<path class="st42" d="M136.7,341.6c0,0-2,0-5.4,2.7"/>
		<path class="st42" d="M137.7,344.9c0,0-1.4,0.2-3.8,2.1"/>
		<path class="st42" d="M139.8,348c0,0-1.4-0.1-4.3,2.2"/>
	</g>
	<g id="XMLID_54_">
		<linearGradient id="XMLID_16_" gradientUnits="userSpaceOnUse" x1="217.4252" y1="363.164" x2="279.4438" y2="363.164">
			<stop  offset="1.400000e-07" style="stop-color:#00A6C1"/>
			<stop  offset="1" style="stop-color:#1B1464"/>
		</linearGradient>
		<path id="XMLID_60_" class="st43" d="M272.8,351.3l0-0.1l-36.8-0.1l-0.6,3.2c-7.2-2-14.1-3.7-16.9-2.6l-1.1,5.4l18,3.4v14.6h38.4
			l5.1-6.6c0.5-0.6,0.7-1.4,0.5-2.2c-0.5-2.7-1.7-7.9-4.3-10.1C273.6,355.1,272.9,353.2,272.8,351.3z"/>
		<linearGradient id="XMLID_17_" gradientUnits="userSpaceOnUse" x1="217.4252" y1="363.164" x2="279.4438" y2="363.164">
			<stop  offset="1.400000e-07" style="stop-color:#00A6C1"/>
			<stop  offset="1" style="stop-color:#1B1464"/>
		</linearGradient>
		<path id="XMLID_4_" class="st44" d="M272.8,351.3l0-0.1l-36.8-0.1l-0.6,3.2c-7.2-2-14.1-3.7-16.9-2.6l-1.1,5.4l18,3.4v14.6h38.4
			l5.1-6.6c0.5-0.6,0.7-1.4,0.5-2.2c-0.5-2.7-1.7-7.9-4.3-10.1C273.6,355.1,272.9,353.2,272.8,351.3z"/>
		<g id="XMLID_196_">
			<linearGradient id="XMLID_18_" gradientUnits="userSpaceOnUse" x1="212.5667" y1="382.7592" x2="237.1802" y2="382.7592">
				<stop  offset="0" style="stop-color:#424B54"/>
				<stop  offset="1" style="stop-color:#343B42"/>
			</linearGradient>
			<path id="XMLID_38_" class="st45" d="M230.8,375.4c0,0-15.3-2-17.7,6.1c-2.5,8.1,6,8.8,6,8.8s18.7-2.6,18.2-5.5
				C236.7,381.9,230.8,375.4,230.8,375.4z"/>
			<path id="XMLID_21_" class="st17" d="M228.4,377.3c0,0-7.3,1.2-7.5,3.1c-0.2,1.9,0.4,5.1,1.2,5.1c0.8,0,7.9-1.1,7.9-1.1
				L228.4,377.3z"/>
			<path id="XMLID_70_" class="st17" d="M219,390.3c0,0,18.6-2.6,18.2-5.5c0,0.1-0.3,1.2-7.4,2.6c-7.6,1.6-10.8,3.1-12.3,1.7
				c-1.5-1.4,0.2-1.9-0.5-4.4c-0.7-2.4-3.5-1.9-3.1-3c0.4-1,0.7-3.3,4.5-5.4c-2.5,0.9-4.6,2.5-5.4,5.1
				C210.5,389.6,219,390.3,219,390.3z"/>
		</g>
		<g id="XMLID_198_">
			<linearGradient id="XMLID_19_" gradientUnits="userSpaceOnUse" x1="250.5329" y1="390.74" x2="270.6494" y2="390.74">
				<stop  offset="0" style="stop-color:#424B54"/>
				<stop  offset="1" style="stop-color:#343B42"/>
			</linearGradient>
			<path id="XMLID_39_" class="st46" d="M250.5,387.4c0,0,6.3,13.7,11.4,13.7c5.1,0,10-10.2,8.4-13.7c-1.5-3.6-12.1-7.1-12.1-7.1
				L250.5,387.4z"/>
			<path id="XMLID_62_" class="st17" d="M253,388c0,0,3.7,5.7,5.5,5.5c1.8-0.2,5.5-5.4,5.5-6.3c0-0.9-5.5-4.4-5.5-4.4L253,388z"/>
			<path id="XMLID_64_" class="st17" d="M269.2,385.9c0.1,1.7,0.2,5-0.9,5.6c-1.5,0.9-3.5,0.3-4.6,1.5c-1,1.1,0.6,3.6-0.3,5.1
				c-0.6,1-0.5,2.4-3.9,2.3c0.8,0.5,1.6,0.8,2.4,0.8c5.1,0,10-10.2,8.4-13.7C270.1,386.9,269.7,386.4,269.2,385.9z"/>
		</g>
		<linearGradient id="XMLID_20_" gradientUnits="userSpaceOnUse" x1="227.7356" y1="372.9279" x2="279.4635" y2="372.9279">
			<stop  offset="1.400000e-07" style="stop-color:#00A6C1"/>
			<stop  offset="1" style="stop-color:#1B1464"/>
		</linearGradient>
		<path id="XMLID_28_" class="st47" d="M228.5,382.5c-1.5-2.4-0.7-5.6,1.7-7c8-4.6,24.6-13.8,31.7-14.8c9.5-1.4,17.4,2.7,17.5,6.5
			c0.1,3.8-5.7,11.4-13.2,12.4c-5.9,0.8-24.5,4.3-32.2,5.8c-2,0.4-4-0.5-5.1-2.2L228.5,382.5z"/>
		<linearGradient id="SVGID_11_" gradientUnits="userSpaceOnUse" x1="227.7356" y1="375.0863" x2="279.4636" y2="375.0863">
			<stop  offset="1.400000e-07" style="stop-color:#00A6C1"/>
			<stop  offset="1" style="stop-color:#1B1464"/>
		</linearGradient>
		<path class="st48" d="M256.8,369.2c-2,0.4-4-0.5-5.1-2.2l-0.4-0.6c-0.3-0.5-0.5-1-0.6-1.6c-7.2,3.3-15.4,7.9-20.4,10.8
			c-2.5,1.4-3.2,4.6-1.7,7l0.4,0.6c1.1,1.7,3.1,2.6,5.1,2.2c7.6-1.5,26.2-5,32.2-5.8c7.5-1,13.3-8.6,13.2-12.4
			c0-0.7-0.3-1.4-0.8-2.1C271,366.5,261.7,368.2,256.8,369.2z"/>
		<linearGradient id="XMLID_23_" gradientUnits="userSpaceOnUse" x1="229.1315" y1="374.9538" x2="260.322" y2="374.9538">
			<stop  offset="1.400000e-07" style="stop-color:#00A6C1"/>
			<stop  offset="1" style="stop-color:#1B1464"/>
		</linearGradient>
		<path id="XMLID_105_" class="st49" d="M241.4,383.9c6-1.1,13.4-2.5,18.9-3.4c-3.2-4-7.7-9.4-12.3-14.5c-6.5,3.2-13.4,7-17.8,9.5
			c-0.4,0.2-0.8,0.6-1.1,0.9C233,378.7,237.3,381.4,241.4,383.9z"/>
		<linearGradient id="XMLID_25_" gradientUnits="userSpaceOnUse" x1="213.8661" y1="369.7749" x2="258.5119" y2="369.7749">
			<stop  offset="1.400000e-07" style="stop-color:#00A6C1"/>
			<stop  offset="1" style="stop-color:#1B1464"/>
		</linearGradient>
		<path id="XMLID_29_" class="st50" d="M256.4,386.8c2.4-1.8,2.8-5.3,0.9-7.6c-6-7.2-18.1-21.3-24.4-24.6c-8.5-4.6-17.3-3.5-18.7,0
			c-1.4,3.5,1.4,12.7,8.1,16.2c5.2,2.8,21.2,12.4,28,16.5c1.9,1.1,4.2,1,6-0.3L256.4,386.8z"/>
		<linearGradient id="SVGID_12_" gradientUnits="userSpaceOnUse" x1="213.8782" y1="371.8846" x2="258.5119" y2="371.8846">
			<stop  offset="1.400000e-07" style="stop-color:#00A6C1"/>
			<stop  offset="1" style="stop-color:#1B1464"/>
		</linearGradient>
		<path class="st51" d="M257.3,379.2c-0.1-0.1-0.2-0.2-0.3-0.3c-0.4,0.7-0.9,1.4-1.5,1.9l-0.2,0.1c-1.7,1.3-4.1,1.5-6,0.3
			c-6.8-4.1-22.7-13.7-28-16.5c-3.7-1.9-6.2-5.5-7.5-9c-0.6,4.1,2.3,11.9,8.4,15.1c5.2,2.8,21.2,12.4,28,16.5c1.9,1.1,4.2,1,6-0.3
			l0.2-0.1C258.8,385,259.2,381.5,257.3,379.2z"/>
		<linearGradient id="XMLID_26_" gradientUnits="userSpaceOnUse" x1="255.3086" y1="309.7977" x2="245.4771" y2="360.3762">
			<stop  offset="5.592000e-04" style="stop-color:#4ADBE8"/>
			<stop  offset="0.1767" style="stop-color:#43D2E2"/>
			<stop  offset="0.4617" style="stop-color:#30BAD3"/>
			<stop  offset="0.8181" style="stop-color:#1294BA"/>
			<stop  offset="1" style="stop-color:#007DAB"/>
		</linearGradient>
		<path id="XMLID_63_" class="st52" d="M249.6,311.2c-1.8,0-13.4,5.3-13.4,10.1c0,4.5-7.5,4.6-10.4,5.9c-1.9,0.9,4,1.1,9.3,1
			c3-0.1,5.2,2.7,4.5,5.6l-4.5,19.8c0,0.3,0.2,0.6,0.5,0.7l7.8,5.5c0.7,0.5,1.6,0.8,2.6,0.8c19.2,0.2,24.1-3.9,25.3-5.7
			c0.3-0.4,0.7-0.8,1.1-1c0.5-0.3,0.8-0.8,0.8-1.4l-1.7-10.9c-0.1-0.4-0.1-0.7,0-1.1l1.1-14.6c0.2-2.2,3.3-8.3,1.8-9.9
			c-2-2.2-14.2-5-14.3-5L249.6,311.2z"/>
		<g id="XMLID_1_">
			<linearGradient id="XMLID_27_" gradientUnits="userSpaceOnUse" x1="248.3714" y1="308.3985" x2="261.7299" y2="308.3985">
				<stop  offset="0.1436" style="stop-color:#EDC276"/>
				<stop  offset="0.4424" style="stop-color:#ECBE72"/>
				<stop  offset="0.7167" style="stop-color:#EAB467"/>
				<stop  offset="0.9806" style="stop-color:#E6A255"/>
				<stop  offset="1" style="stop-color:#E6A053"/>
			</linearGradient>
			<path id="XMLID_51_" class="st53" d="M254.8,298.1L254.8,298.1c-3.7,0.1-6.6,3.1-6.5,6.8l0.2,7.3c0.1,3.6,3.1,6.5,6.7,6.5l0,0
				c3.7-0.1,6.6-3.1,6.5-6.8l-0.2-7.3C261.4,301,258.5,298.1,254.8,298.1z"/>
		</g>
		<linearGradient id="XMLID_32_" gradientUnits="userSpaceOnUse" x1="250.756" y1="332.1876" x2="285.1692" y2="332.1876">
			<stop  offset="5.592000e-04" style="stop-color:#4ADBE8"/>
			<stop  offset="0.1767" style="stop-color:#43D2E2"/>
			<stop  offset="0.4617" style="stop-color:#30BAD3"/>
			<stop  offset="0.8181" style="stop-color:#1294BA"/>
			<stop  offset="1" style="stop-color:#007DAB"/>
		</linearGradient>
		<path id="XMLID_58_" class="st54" d="M273.6,315.4c0.8,0.1,1.5,0.6,2,1.2c4.1,6.1,23.5,33.6-8.3,32.2c0,0-10.5,0.5-14.7-4.7
			c-4.2-5.2,0-11.4,0-11.4s20.1,6.2,21.1,3.5c0.1-0.2-1.5-2.8-1.5-3c0,0-2.1-3.7-2.1-5.2c0-2.6-0.9-4.1-0.8-7
			C269.4,318.9,271.6,315.3,273.6,315.4z"/>
		<linearGradient id="XMLID_33_" gradientUnits="userSpaceOnUse" x1="250.4702" y1="332.3793" x2="258.2315" y2="332.3793">
			<stop  offset="0" style="stop-color:#FFDDA1"/>
			<stop  offset="0.5257" style="stop-color:#FFCF8D"/>
			<stop  offset="1" style="stop-color:#FFC078"/>
		</linearGradient>
		<path id="XMLID_61_" class="st55" d="M258.2,335c0,0-4.6-4.1-4.7-5.4c-0.1-1.3-3.3,0-3,1c0.2,1.1,1.1,5.1,1.1,5.1h0.7L258.2,335z"
			/>
		<linearGradient id="XMLID_34_" gradientUnits="userSpaceOnUse" x1="214.1398" y1="320.2846" x2="256.3594" y2="347.7024">
			<stop  offset="0.367" style="stop-color:#CCCCCC"/>
			<stop  offset="0.6383" style="stop-color:#AEADAF"/>
			<stop  offset="1" style="stop-color:#89878C"/>
		</linearGradient>
		<path id="XMLID_22_" class="st56" d="M251.5,351.5H225c-2.4,0-4.3-1.9-4.3-4.3l-6-26.4c0-2.4,1.9-4.3,4.3-4.3h26.6
			c2.4,0,4.3,1.9,4.3,4.3l6,26.4C255.9,349.6,253.9,351.5,251.5,351.5z"/>
		<path id="XMLID_59_" class="st57" d="M258.2,334.9l0.3,10.6c0,0-1,2.8-2,0C255.5,342.7,258.2,334.9,258.2,334.9z"/>
		<linearGradient id="XMLID_35_" gradientUnits="userSpaceOnUse" x1="242.5349" y1="340.7095" x2="258.5346" y2="340.7095">
			<stop  offset="0" style="stop-color:#FFDDA1"/>
			<stop  offset="0.5257" style="stop-color:#FFCF8D"/>
			<stop  offset="1" style="stop-color:#FFC078"/>
		</linearGradient>
		<path id="XMLID_46_" class="st58" d="M244.1,335.5l1.3-0.1l3.9-0.2l8.9-0.4l0.3,6.7c0.1,2.4-1.7,4.4-4.1,4.6l-4.9,0.3
			c-2.1,0.1-3.7-1.7-3.8-3.8l0-0.8c0,0-0.9-0.1-1-0.1c-0.9-0.1-1.4-1.1-1.2-2l0.3-1.2l-0.2-0.1c-0.5-0.2-1-0.7-1-1.2l0-0.2
			C242.5,336.3,243.2,335.6,244.1,335.5z"/>
		<linearGradient id="XMLID_36_" gradientUnits="userSpaceOnUse" x1="214.2042" y1="340.284" x2="224.9706" y2="340.284">
			<stop  offset="0" style="stop-color:#FFDDA1"/>
			<stop  offset="0.5257" style="stop-color:#FFCF8D"/>
			<stop  offset="1" style="stop-color:#FFC078"/>
		</linearGradient>
		<path id="XMLID_106_" class="st59" d="M224.5,338.5c0.4,0.8,0,1.9-0.8,2.2c-0.1,0-1,0.3-1,0.3l0.1,0.7c0.3,2.1-1,4.4-3.1,4.4h-0.9
			c-2.9-1-1.5-2.7-1.5-2.7c-2-0.6-0.9-2.5-0.9-2.5c-2.2-0.9-1.1-2.6-1.1-2.6c-2.6-1.3-0.4-2.7-0.4-2.7l2.8-0.4l3.9-0.6l1.3-0.2
			c0.7-0.1,1.7,0.3,1.8,1l0.1,0.5c0.1,0.5-0.3,1.1-0.7,1.4l-0.2,0.1L224.5,338.5z"/>
		<path id="XMLID_24_" class="st60" d="M262.7,307.7c0,0,14.9-15.4,9.4-30c-3.7-9.9-13.2-7-17.7-11.2c-4.5-4.2-7-7.4-7-7.4l-0.5,5.3
			c0,0-7-0.4-9.1-2.1c-2.2-1.8,0,6,0,6s-4,2.1-6.8,0.4s2.1,8.4,2.1,8.4l-1.1,4.9l3.2,1L262.7,307.7z"/>
		<linearGradient id="XMLID_37_" gradientUnits="userSpaceOnUse" x1="249.5036" y1="246.2243" x2="252.9279" y2="292.88">
			<stop  offset="0" style="stop-color:#FFFFFF"/>
			<stop  offset="1" style="stop-color:#662D91"/>
		</linearGradient>
		<path id="XMLID_47_" class="st61" d="M262.7,307.7c0,0,14.9-15.4,9.4-30c-3.7-9.9-13.2-7-17.7-11.2c-4.5-4.2-7-7.4-7-7.4l-0.5,5.3
			c0,0-7-0.4-9.1-2.1c-2.2-1.8,0,6,0,6s-4,2.1-6.8,0.4s2.1,8.4,2.1,8.4l-1.1,4.9l3.2,1L262.7,307.7z"/>
		<linearGradient id="SVGID_13_" gradientUnits="userSpaceOnUse" x1="254.459" y1="276.9366" x2="245.8155" y2="311.6037">
			<stop  offset="0.1436" style="stop-color:#FFDDA1"/>
			<stop  offset="0.4212" style="stop-color:#FFDA9D"/>
			<stop  offset="0.676" style="stop-color:#FFD392"/>
			<stop  offset="0.9212" style="stop-color:#FFC580"/>
			<stop  offset="1" style="stop-color:#FFC078"/>
		</linearGradient>
		<path class="st62" d="M237.9,279.3c0,0-1.7,5.4-1.1,12.2c0.6,6.8,1.9,17.9,5.2,19c3.4,1.1,12.6,0.8,18.1-3.9
			c5.5-4.7,5.1-10.4,5.1-10.4s0.3-15.4-1.5-16.1s-16.9-5.1-16.9-5.1S239.1,274.6,237.9,279.3z"/>
		<path id="XMLID_7_" class="st20" d="M264.2,290.7c0,0,1-3,4.2-2.3c3.2,0.7,2.1,10.2-4.2,10.6V290.7z"/>
		<path id="XMLID_5_" class="st60" d="M265.8,289.3c0,0-0.1,6.1-1.4,7.4c-1.3,1.3-0.2-6-1.1-7c-0.8-1-3.3-2.5-3.6-3.9
			c-0.3-1.4-0.9-6.2-0.9-6.2s-3.3,2.6-6.6,2.7c0,0,1.4-2.2,1.8-2.7c0,0-5.3,3.3-8.1,3.3c0,0,2.1-1.4,1.5-2.6c0,0-4.3,0-6.4,1.6
			s-3.2,3.5-3.2,3.5s-1.8-4.7,0-5.3c0,0-2.9,1.1-3,2.3c0,0-0.3-5.7,2.5-6.9c2.8-1.2,16-3.6,19.4-2.6c3.4,1,7.8,3.3,9.1,5.7
			C267.1,281,265.8,289.3,265.8,289.3z"/>
		<linearGradient id="XMLID_40_" gradientUnits="userSpaceOnUse" x1="247.9693" y1="246.3369" x2="251.3936" y2="292.9928">
			<stop  offset="0" style="stop-color:#FFFFFF"/>
			<stop  offset="1" style="stop-color:#662D91"/>
		</linearGradient>
		<path id="XMLID_53_" class="st63" d="M265.8,289.3c0,0-0.1,6.1-1.4,7.4c-1.3,1.3-0.2-6-1.1-7c-0.8-1-3.3-2.5-3.6-3.9
			c-0.3-1.4-0.9-6.2-0.9-6.2s-3.3,2.6-6.6,2.7c0,0,1.4-2.2,1.8-2.7c0,0-5.3,3.3-8.1,3.3c0,0,2.1-1.4,1.5-2.6c0,0-4.3,0-6.4,1.6
			s-3.2,3.5-3.2,3.5s-1.8-4.7,0-5.3c0,0-2.9,1.1-3,2.3c0,0-0.3-5.7,2.5-6.9c2.8-1.2,16-3.6,19.4-2.6c3.4,1,7.8,3.3,9.1,5.7
			C267.1,281,265.8,289.3,265.8,289.3z"/>
	</g>
	<g>
		<path class="st64" d="M375.2,359v8.7c0,0-7.5,3.4-7.9,0c-0.4-3.4,0-7.2,0-7.2S370.4,355.8,375.2,359z"/>
		<path class="st64" d="M350.8,359v8.7c0,0-7.5,3.4-7.9,0c-0.4-3.4,0-7.2,0-7.2S346,355.8,350.8,359z"/>
		<linearGradient id="SVGID_14_" gradientUnits="userSpaceOnUse" x1="339.42" y1="306.6392" x2="362.1978" y2="306.6392">
			<stop  offset="0" style="stop-color:#424B54"/>
			<stop  offset="0.2824" style="stop-color:#3C444C"/>
			<stop  offset="0.5039" style="stop-color:#343B42"/>
		</linearGradient>
		<path class="st65" d="M342.9,250.4c0,0-0.9,32.5-1.6,52.6c-0.6,20.1-2.6,57.3-1.6,58c1,0.6,9.4,4.1,13.3,0
			c3.9-4.1,3.7-45.2,3.7-45.2s4.7-35,5.5-39.2C362.9,272.4,353.7,252.5,342.9,250.4z"/>
		<g>
			<path class="st17" d="M351.8,366.3c0,0,2.5,5.9,2.3,9.9c-0.2,4-5.8,5.7-12.3,5.5c-6.5-0.2-11.7,2.5-20.1,0
				c-13.7-4.2,20.1-14.8,20.1-14.8S346.1,369.3,351.8,366.3z"/>
			<path class="st66" d="M351.7,363.7c0,0,2.6,5.9,2.4,9.9c-0.2,4-6.1,5.7-12.8,5.5c-6.8-0.2-12.1,2.4-20.9,0
				c-8.7-2.4,20.9-14.8,20.9-14.8S345.8,366.7,351.7,363.7z"/>
			<path class="st67" d="M334.2,367.6c0,0,3.6,0.9,4.7,5.3"/>
			<path class="st67" d="M330.5,369.3c0,0,3.6,0.9,4.7,5.3"/>
			<path class="st67" d="M326.8,371.3c0,0,3.6,0.9,4.7,5.3"/>
		</g>
		<linearGradient id="SVGID_15_" gradientUnits="userSpaceOnUse" x1="342.8702" y1="304.3629" x2="379.9336" y2="304.3629">
			<stop  offset="0" style="stop-color:#424B54"/>
			<stop  offset="1" style="stop-color:#343B42"/>
		</linearGradient>
		<path class="st68" d="M375.2,250c0,0,8.1,11,3,26.6c0,0-0.6,24.2-0.6,29.6c0,5.4,3.4,50-0.4,54.5c-3.8,4.5-12.4,2.5-13.3,1.9
			c-1-0.6-3.5-40.4-4.8-44.3c-1.3-3.8-2.7-37.6-3.1-42.4c-0.4-4.8-13.4-14-13.2-25.5C343.1,239.1,375.2,250,375.2,250z"/>
		<path id="XMLID_13_" class="st69" d="M377.6,147.4c0-1-0.4-2-1-2.7c0.5-0.8,0.8-1.8,0.5-2.8c-0.2-1-0.9-1.8-1.7-2.3
			c0.3-0.9,0.3-1.9-0.2-2.8c-0.5-0.9-1.3-1.5-2.2-1.8c0.1-1-0.2-1.9-0.9-2.7c-0.7-0.8-1.7-1.1-2.6-1.1c-0.2-0.9-0.7-1.8-1.6-2.4
			c-0.9-0.6-1.9-0.7-2.8-0.4c-0.4-0.9-1.2-1.6-2.1-1.9c-1-0.3-2-0.2-2.8,0.3c-0.6-0.7-1.5-1.2-2.6-1.3c-1,0-2,0.4-2.7,1
			c-0.8-0.5-1.8-0.8-2.8-0.5c-1,0.2-1.8,0.9-2.3,1.7c-0.9-0.3-1.9-0.3-2.8,0.2c-0.9,0.5-1.5,1.3-1.8,2.2c-1-0.1-1.9,0.2-2.7,0.9
			c-0.8,0.7-1.1,1.7-1.1,2.6c-0.9,0.2-1.8,0.7-2.4,1.6c-0.6,0.9-0.7,1.9-0.4,2.8c-0.9,0.4-1.6,1.2-1.9,2.1c-0.3,1-0.2,2,0.3,2.8
			c-0.7,0.6-1.2,1.5-1.3,2.6c0,1,0.4,2,1,2.7c-0.5,0.8-0.8,1.8-0.5,2.8c0.2,1,0.9,1.8,1.7,2.3c-0.3,0.9-0.3,1.9,0.2,2.8
			c0.5,0.9,1.3,1.5,2.2,1.8c-0.1,1,0.2,1.9,0.9,2.7c0.7,0.8,1.7,1.1,2.6,1.1c0.2,0.9,0.7,1.8,1.6,2.4c0.9,0.6,1.9,0.7,2.8,0.4
			c0.4,0.9,1.2,1.6,2.1,1.9c1,0.3,2,0.2,2.8-0.3c0.6,0.7,1.5,1.2,2.6,1.3c1,0,2-0.4,2.7-1c0.8,0.5,1.8,0.8,2.8,0.5
			c1-0.2,1.8-0.9,2.3-1.7c0.9,0.3,1.9,0.3,2.8-0.2c0.9-0.5,1.5-1.3,1.8-2.2c1,0.1,1.9-0.2,2.7-0.9s1.1-1.7,1.1-2.6
			c0.9-0.2,1.8-0.7,2.4-1.6c0.6-0.9,0.7-1.9,0.4-2.8c0.9-0.4,1.6-1.2,1.9-2.1c0.3-1,0.2-2-0.3-2.8
			C377.1,149.4,377.6,148.5,377.6,147.4z"/>
		<path class="st64" d="M320.5,171.9c0,0,2.5-2.8,3.9,0c1.4,2.8-1.1,6.9-2.1,6.3C321.4,177.5,319.4,172.7,320.5,171.9z"/>
		<linearGradient id="SVGID_16_" gradientUnits="userSpaceOnUse" x1="321.4322" y1="216.1558" x2="344.0493" y2="216.1558">
			<stop  offset="7.150880e-02" style="stop-color:#734F2A"/>
			<stop  offset="0.5887" style="stop-color:#63421E"/>
			<stop  offset="1" style="stop-color:#5E3D1A"/>
		</linearGradient>
		<path class="st70" d="M344,210.2c0,0-7.5,16.5-10.9,18.2c-3.4,1.8-11.4-2.3-11.7-5.4c-0.3-3.1,7.8-19.7,7.8-19.7
			S342.5,206.1,344,210.2z"/>
		<linearGradient id="SVGID_17_" gradientUnits="userSpaceOnUse" x1="328.3694" y1="196.2147" x2="351.0698" y2="196.2147">
			<stop  offset="9.497770e-03" style="stop-color:#FFCD42"/>
			<stop  offset="0.3211" style="stop-color:#F9AC31"/>
			<stop  offset="0.6156" style="stop-color:#F2891F"/>
		</linearGradient>
		<path class="st71" d="M350,185.7c0,0,4.5,12.3-5.3,24c0,0-3.8,1.8-9.2-0.6c-5.4-2.3-7.1-5.4-7.1-5.4s3.7-14.8,8.3-18.1
			C341.4,182.5,345.6,179.3,350,185.7z"/>
		<linearGradient id="SVGID_18_" gradientUnits="userSpaceOnUse" x1="337.9764" y1="217.1825" x2="392.5101" y2="217.1825">
			<stop  offset="9.497770e-03" style="stop-color:#FFCD42"/>
			<stop  offset="0.2299" style="stop-color:#FEC83F"/>
			<stop  offset="0.4912" style="stop-color:#FBBA38"/>
			<stop  offset="0.7723" style="stop-color:#F7A22C"/>
			<stop  offset="1" style="stop-color:#F2891F"/>
		</linearGradient>
		<path class="st72" d="M369.8,179.4c0,0,18.2,4.7,21.6,10.2c3.4,5.5-2.3,21-7,28c-4.7,7-9.4,20.2-8.7,30
			c0.7,9.8-30.6,10.4-33.3,1.9c-2.8-8.5-1.5-30.6-2.5-34.4c-1.1-3.8-4.5-27,1.5-31.6C347.3,178.8,367.6,178.5,369.8,179.4z"/>
		<linearGradient id="SVGID_19_" gradientUnits="userSpaceOnUse" x1="359.1279" y1="187.809" x2="366.5037" y2="160.2821">
			<stop  offset="7.150880e-02" style="stop-color:#734F2A"/>
			<stop  offset="0.5887" style="stop-color:#63421E"/>
			<stop  offset="1" style="stop-color:#5E3D1A"/>
		</linearGradient>
		<path class="st73" d="M369.2,162.8c0,0-0.3,11,1.9,17.1c2.2,6.1-10.2,10.1-15,6.8c-4.8-3.3-2.9-5-2.1-9.7c0.8-4.6,1-13.3,1-13.3
			S366.9,156.2,369.2,162.8z"/>
		<linearGradient id="SVGID_20_" gradientUnits="userSpaceOnUse" x1="339.4488" y1="168.0868" x2="366.6779" y2="145.2389">
			<stop  offset="0" style="stop-color:#694321"/>
			<stop  offset="0.2174" style="stop-color:#744D29"/>
			<stop  offset="0.6704" style="stop-color:#865C35"/>
			<stop  offset="1" style="stop-color:#8C6239"/>
		</linearGradient>
		<path class="st74" d="M339.7,146.2c0,0-0.3,2.4,0.6,7.7c0.8,5.3,1.7,16.3,5.5,21.7c3.8,5.4,19.1-3.6,21.7-7.5
			c2.6-4,1.1-9.8,1.1-9.8s1.2,2,3.1-1.1c1.9-3.1,0.1-10.1-5.1-6c0,0,1.2-9.1-7-11.4C351.4,137.5,340,139.9,339.7,146.2z"/>
		<linearGradient id="SVGID_21_" gradientUnits="userSpaceOnUse" x1="385.7619" y1="221.2112" x2="406.5384" y2="221.2112">
			<stop  offset="0" style="stop-color:#694321"/>
			<stop  offset="0.2174" style="stop-color:#744D29"/>
			<stop  offset="0.6704" style="stop-color:#865C35"/>
			<stop  offset="1" style="stop-color:#8C6239"/>
		</linearGradient>
		<path class="st75" d="M401,208.5c0,0,6.6,16.9,5.4,20.5c-1.1,3.7-9.6,6.6-12,4.6c-2.5-2-8.6-19.3-8.6-19.3S396.9,206.7,401,208.5z
			"/>
		<linearGradient id="SVGID_22_" gradientUnits="userSpaceOnUse" x1="378.2454" y1="201.116" x2="401.1321" y2="201.116">
			<stop  offset="9.497770e-03" style="stop-color:#FFCD42"/>
			<stop  offset="0.2299" style="stop-color:#FEC83F"/>
			<stop  offset="0.4912" style="stop-color:#FBBA38"/>
			<stop  offset="0.7723" style="stop-color:#F7A22C"/>
			<stop  offset="1" style="stop-color:#F2891F"/>
		</linearGradient>
		<path class="st76" d="M387.6,187.1c0,0,11.9,5.3,13.5,20.6c0,0-1.4,3.9-6.8,6.2c-5.4,2.3-8.8,1.3-8.8,1.3s-8-13-7.1-18.6
			C379.2,191,380,185.7,387.6,187.1z"/>
		<linearGradient id="SVGID_23_" gradientUnits="userSpaceOnUse" x1="375.2339" y1="244.1442" x2="407.2607" y2="244.1442">
			<stop  offset="0" style="stop-color:#694321"/>
			<stop  offset="0.2174" style="stop-color:#744D29"/>
			<stop  offset="0.6704" style="stop-color:#865C35"/>
			<stop  offset="1" style="stop-color:#8C6239"/>
		</linearGradient>
		<path class="st77" d="M391.3,229c0,0-4.9,7.6-8.9,16.9c-4,9.2-5.2,11.2-6.6,14.3c-1.4,3-0.6,4.1,3.9,5c4.5,1,21.2-21.9,23.2-24.2
			c2.1-2.4,7-3.5,2.2-13.7S391.3,229,391.3,229z"/>
		<linearGradient id="SVGID_24_" gradientUnits="userSpaceOnUse" x1="318.1675" y1="211.2254" x2="333.9428" y2="211.2254">
			<stop  offset="0" style="stop-color:#694321"/>
			<stop  offset="0.2174" style="stop-color:#744D29"/>
			<stop  offset="0.6704" style="stop-color:#865C35"/>
			<stop  offset="1" style="stop-color:#8C6239"/>
		</linearGradient>
		<path class="st78" d="M331.6,232.4c2.3-2.8,2.9-6.6,1.9-10.1c-1.8-5.9-5-16.8-6-22.5c-1.4-8.1-4.3-11.6-7-12
			c-2.7-0.5-1.6,26.3-2.2,31.7C317.6,224.2,325,240.4,331.6,232.4z"/>
		<linearGradient id="SVGID_25_" gradientUnits="userSpaceOnUse" x1="370.7353" y1="265.0254" x2="383.718" y2="265.0254">
			<stop  offset="0" style="stop-color:#694321"/>
			<stop  offset="0.2174" style="stop-color:#744D29"/>
			<stop  offset="0.6704" style="stop-color:#865C35"/>
			<stop  offset="1" style="stop-color:#8C6239"/>
		</linearGradient>
		<path class="st79" d="M376.5,258.9c0,0-4.8,0.4-5.6,3.4s1.9,7.6,4.4,8.8c2.5,1.1,8.5-7.8,8.5-7.8S379.1,258.3,376.5,258.9z"/>
		<path class="st80" d="M329.7,186.9c0,0-3.7-13.4-4.5-14c-0.8-0.6-8.3-6.5-8.7-5.7c-0.4,0.7,4.7,17.2,5.1,18
			c0.4,0.8,7.2,5.8,8.1,5.8C330.6,190.9,329.7,186.9,329.7,186.9z"/>
		<path class="st81" d="M328.6,187.4c0,0-3.7-13.4-4.5-14c-0.8-0.6-8.3-6.5-8.7-5.7c-0.4,0.7,4.7,17.2,5.1,18
			c0.4,0.8,7.2,5.8,8.1,5.8S328.6,187.4,328.6,187.4z"/>
		<linearGradient id="SVGID_26_" gradientUnits="userSpaceOnUse" x1="314.6522" y1="179.8718" x2="329.0249" y2="179.8718">
			<stop  offset="0" style="stop-color:#694321"/>
			<stop  offset="0.2174" style="stop-color:#744D29"/>
			<stop  offset="0.6704" style="stop-color:#865C35"/>
			<stop  offset="1" style="stop-color:#8C6239"/>
		</linearGradient>
		<path class="st82" d="M325,192.1c0,0,4-4.1,4-5.5s-1.4-3.1-1.4-3.1s1.9-2.1,0-3.3c-1.9-1.3-1.2-3.2-2.5-3.7
			c-1.4-0.5-5.5,0.5-5.6,0.8c-0.1,0.3-2.2-10.8-3.9-11c-1.8-0.2-0.2,10.2-0.5,12.6c-0.3,2.5,2.9,10.3,4,13.2
			C320.1,195,325,192.1,325,192.1z"/>
		<path class="st69" d="M366.6,151.2c0,0,1.2,4.4,0,5c0,0,1.7,3,0.3,3.4c0,0-0.5,2.7-1.6,2.1c-1.1-0.5,0-2.2,0-2.2s-1.5-1.1-1.1-2.2
			c0,0-1.7-1.8,0-3.6c0,0-2-0.3-1.3-2.4c0,0-5.2,0-5.2-2.3c0,0-3.9,1.5-4.6-0.7c0,0-3.4,2.1-5,1c0,0-3.4,1.8-4.9,0.4
			c-1.5-1.4-0.6,0-0.6,0s-1.6,2.3-3.4,2.1c-1.8-0.2-5.4-4.6-1.9-8.5c3.5-3.9,10.5-8.4,10.5-8.4s16.9-0.5,18,5.5
			C366.9,146.4,370.5,146.8,366.6,151.2z"/>
		<linearGradient id="SVGID_27_" gradientUnits="userSpaceOnUse" x1="364.607" y1="271.3431" x2="375.2338" y2="271.3431">
			<stop  offset="0" style="stop-color:#424B54"/>
			<stop  offset="1" style="stop-color:#343B42"/>
		</linearGradient>
		<path class="st83" d="M375.2,272.9c0,0-6.6-0.7-10-5.9c0,0-2.8,6.9,3.3,8.4C374.6,276.9,375.2,272.9,375.2,272.9z"/>
		<g>
			<path class="st17" d="M376.7,368.3c0,0,2.5,5.9,2.3,9.9c-0.2,4-5.8,5.7-12.3,5.5c-6.5-0.2-11.7,2.5-20.1,0
				c-13.7-4.2,20.1-14.8,20.1-14.8S371.1,371.2,376.7,368.3z"/>
			<path class="st60" d="M376.6,365.7c0,0,2.6,5.9,2.4,9.9c-0.2,4-6.1,5.7-12.8,5.5c-6.8-0.2-12.1,2.4-20.9,0
				c-8.7-2.4,20.9-14.8,20.9-14.8S370.8,368.7,376.6,365.7z"/>
			<path class="st67" d="M359.1,369.5c0,0,3.6,0.9,4.7,5.3"/>
			<path class="st67" d="M355.5,371.3c0,0,3.6,0.9,4.7,5.3"/>
			<path class="st67" d="M351.8,373.3c0,0,3.6,0.9,4.7,5.3"/>
		</g>
	</g>
	<g>
		<g>
			<g>
				<g>
					<g>
						<path class="st12" d="M215.9,186.3c-2.2,0-4.4-0.8-6-2.5c-8.1-8.1-21.2-8.1-29.3,0c-3.3,3.3-8.7,3.3-12.1,0
							c-3.3-3.3-3.3-8.7,0-12.1c14.7-14.7,38.7-14.7,53.4,0c3.3,3.3,3.3,8.7,0,12.1C220.2,185.5,218,186.3,215.9,186.3z"/>
					</g>
				</g>
				<g>
					<g>
						<path class="st12" d="M233.4,164.9c-2.2,0-4.4-0.8-6-2.5c-17.7-17.7-46.6-17.7-64.3,0c-3.3,3.3-8.7,3.3-12.1,0
							c-3.3-3.3-3.3-8.7,0-12.1c24.4-24.4,64-24.4,88.4,0c3.3,3.3,3.3,8.7,0,12.1C237.7,164,235.5,164.9,233.4,164.9z"/>
					</g>
				</g>
				<g>
					<g>
						<path class="st12" d="M257.7,144.9c-2.2,0-4.4-0.8-6-2.5c-15.1-15.1-35.2-23.4-56.5-23.4c-21.3,0-41.4,8.3-56.5,23.4
							c-3.3,3.3-8.7,3.3-12.1,0c-3.3-3.3-3.3-8.7,0-12.1c18.3-18.3,42.7-28.4,68.6-28.4c25.9,0,50.3,10.1,68.6,28.4
							c3.3,3.3,3.3,8.7,0,12.1C262.1,144,259.9,144.9,257.7,144.9z"/>
					</g>
				</g>
			</g>
		</g>
		<g>
			<g>
				<g>
					<g>
						<path class="st12" d="M144.5,228.9c-0.3,0-0.6-0.1-0.8-0.3c-1.1-1.1-2.9-1.1-4.1,0c-0.5,0.5-1.2,0.5-1.7,0
							c-0.5-0.5-0.5-1.2,0-1.7c2-2,5.4-2,7.4,0c0.5,0.5,0.5,1.2,0,1.7C145.1,228.8,144.8,228.9,144.5,228.9z"/>
					</g>
				</g>
				<g>
					<g>
						<path class="st12" d="M146.9,225.9c-0.3,0-0.6-0.1-0.8-0.3c-2.5-2.5-6.5-2.5-8.9,0c-0.5,0.5-1.2,0.5-1.7,0
							c-0.5-0.5-0.5-1.2,0-1.7c3.4-3.4,8.9-3.4,12.3,0c0.5,0.5,0.5,1.2,0,1.7C147.6,225.8,147.3,225.9,146.9,225.9z"/>
					</g>
				</g>
				<g>
					<g>
						<path class="st12" d="M150.3,223.1c-0.3,0-0.6-0.1-0.8-0.3c-2.1-2.1-4.9-3.3-7.8-3.3c-3,0-5.8,1.2-7.8,3.3
							c-0.5,0.5-1.2,0.5-1.7,0c-0.5-0.5-0.5-1.2,0-1.7c2.5-2.5,5.9-3.9,9.5-3.9s7,1.4,9.5,3.9c0.5,0.5,0.5,1.2,0,1.7
							C150.9,223,150.6,223.1,150.3,223.1z"/>
					</g>
				</g>
			</g>
		</g>
		<g>
			<g>
				<g>
					<g>
						<path class="st12" d="M223.9,314.1c-0.2,0-0.4-0.1-0.5-0.2c-0.7-0.7-1.9-0.7-2.6,0c-0.3,0.3-0.8,0.3-1.1,0
							c-0.3-0.3-0.3-0.8,0-1.1c1.3-1.3,3.4-1.3,4.7,0c0.3,0.3,0.3,0.8,0,1.1C224.3,314.1,224.1,314.1,223.9,314.1z"/>
					</g>
				</g>
				<g>
					<g>
						<path class="st12" d="M225.4,312.2c-0.2,0-0.4-0.1-0.5-0.2c-1.6-1.6-4.1-1.6-5.7,0c-0.3,0.3-0.8,0.3-1.1,0
							c-0.3-0.3-0.3-0.8,0-1.1c2.2-2.2,5.7-2.2,7.9,0c0.3,0.3,0.3,0.8,0,1.1C225.8,312.2,225.6,312.2,225.4,312.2z"/>
					</g>
				</g>
				<g>
					<g>
						<path class="st12" d="M227.6,310.5c-0.2,0-0.4-0.1-0.5-0.2c-1.3-1.3-3.1-2.1-5-2.1c-1.9,0-3.7,0.7-5,2.1
							c-0.3,0.3-0.8,0.3-1.1,0c-0.3-0.3-0.3-0.8,0-1.1c1.6-1.6,3.8-2.5,6.1-2.5c2.3,0,4.5,0.9,6.1,2.5c0.3,0.3,0.3,0.8,0,1.1
							C228,310.4,227.8,310.5,227.6,310.5z"/>
					</g>
				</g>
			</g>
		</g>
		<g>
			<g>
				<g>
					<g>
						<path class="st12" d="M318.3,166.2c-0.3,0-0.6-0.1-0.8-0.3c-1-1-2.7-1-3.8,0c-0.4,0.4-1.1,0.4-1.6,0c-0.4-0.4-0.4-1.1,0-1.6
							c1.9-1.9,5-1.9,6.9,0c0.4,0.4,0.4,1.1,0,1.6C318.8,166.1,318.5,166.2,318.3,166.2z"/>
					</g>
				</g>
				<g>
					<g>
						<path class="st12" d="M320.5,163.4c-0.3,0-0.6-0.1-0.8-0.3c-2.3-2.3-6-2.3-8.3,0c-0.4,0.4-1.1,0.4-1.6,0
							c-0.4-0.4-0.4-1.1,0-1.6c3.2-3.2,8.3-3.2,11.4,0c0.4,0.4,0.4,1.1,0,1.6C321.1,163.3,320.8,163.4,320.5,163.4z"/>
					</g>
				</g>
				<g>
					<g>
						<path class="st12" d="M323.7,160.8c-0.3,0-0.6-0.1-0.8-0.3c-2-2-4.6-3-7.3-3s-5.4,1.1-7.3,3c-0.4,0.4-1.1,0.4-1.6,0
							c-0.4-0.4-0.4-1.1,0-1.6c2.4-2.4,5.5-3.7,8.9-3.7c3.4,0,6.5,1.3,8.9,3.7c0.4,0.4,0.4,1.1,0,1.6
							C324.2,160.7,324,160.8,323.7,160.8z"/>
					</g>
				</g>
			</g>
		</g>
	</g>
</g>
<g id="DESIGNED_BY_FREEPIK">
</g>
</svg>
