<svg xmlns="http://www.w3.org/2000/svg" version="1.1" xmlns:xlink="http://www.w3.org/1999/xlink" xmlns:svgjs="http://svgjs.com/svgjs" width="512" height="512" x="0" y="0" viewBox="0 0 66 66" style="enable-background:new 0 0 512 512" xml:space="preserve" class=""><g><path d="M38.3 29.1c2.9 2.9 2.9 7.7 0 10.6l1.4 1.4c3.7-3.7 3.7-9.7 0-13.4zM26.3 27.7c-1.8 1.8-2.8 4.2-2.8 6.7s1 4.9 2.8 6.7l1.4-1.4c-1.4-1.4-2.2-3.3-2.2-5.3s.8-3.9 2.2-5.3z" fill="#FFFFFF" data-original="#000000" opacity="1"></path><path d="m42 43.4 1.4 1.4c5.8-5.8 5.7-15.1 0-20.9L42 25.3c5 5 5 13.1 0 18.1zM18.2 34.4c0 3.9 1.5 7.7 4.3 10.4l1.4-1.4c-2.4-2.4-3.7-5.6-3.7-9s1.3-6.6 3.8-9L22.6 24c-2.8 2.7-4.4 6.4-4.4 10.4z" fill="#FFFFFF" data-original="#000000" opacity="1"></path><path d="M11.1 33.4c-4.2 0-7.6-3.4-7.6-7.6s3.4-7.6 7.6-7.6c.5 0 .9 0 1.3.1l.9.2.2-.9c.8-3.4 3.9-5.9 7.4-5.9.3 0 .7 0 1 .1l.9.1.2-.9c1.2-4.7 5.4-8 10.2-8s8.9 3.3 10 7.9l.2.9.9-.1c.3 0 .6-.1.8-.1 3.5 0 6.6 2.4 7.4 5.8l.2.9.9-.1c.4-.1.8-.1 1.2-.1 4.2 0 7.6 3.4 7.6 7.6s-3.4 7.6-7.6 7.6v2c5.3 0 9.6-4.3 9.6-9.6s-4.3-9.6-9.6-9.6h-.6c-1.3-4-5.1-6.6-9.4-6.5C43.3 4.5 38.6 1 33.2 1 27.7 1 23 4.5 21.4 9.6H21c-4.2 0-7.8 2.7-9.1 6.5h-.8c-5.3 0-9.6 4.3-9.6 9.6s4.3 9.6 9.6 9.6z" fill="#FFFFFF" data-original="#000000" opacity="1"></path><path d="M13.8 35.4c.2 4.6 2.1 9.1 5.6 12.6l1.4-1.4c-6.7-6.7-6.7-17.6 0-24.4l-1.4-1.4c-3.5 3.5-5.4 8-5.6 12.6zM52.2 33.4c-.3-4.8-2.2-9.2-5.6-12.6l-1.4 1.4c3.3 3.3 5.1 7.6 5.1 12.2s-1.8 8.9-5 12.2l1.4 1.4c3.4-3.4 5.3-7.8 5.6-12.6zM41.2 58.3h-2.5l-2.5-19.8c1.2-.9 2-2.4 2-4 0-2.8-2.3-5.1-5.1-5.1S28 31.7 28 34.5c0 1.8.9 3.3 2.2 4.3l-2.5 19.6h-2.8L21.3 65h23.4zM33 31.2c1.7 0 3.1 1.4 3.1 3.1s-1.4 3.2-3.1 3.2-3.1-1.4-3.1-3.2c0-1.6 1.4-3.1 3.1-3.1zm-1 8.2c.3.1.7.1 1 .1.4 0 .8-.1 1.2-.2l2.4 18.9h-7.1zm-6 20.9h14l1.4 2.7H24.6z" fill="#FFFFFF" data-original="#000000" opacity="1"></path></g></svg>