<svg xmlns="http://www.w3.org/2000/svg" version="1.1" xmlns:xlink="http://www.w3.org/1999/xlink" xmlns:svgjs="http://svgjs.com/svgjs" width="512" height="512" x="0" y="0" viewBox="0 0 682.667 682.667" style="enable-background:new 0 0 512 512" xml:space="preserve" class=""><g><defs><clipPath id="a" clipPathUnits="userSpaceOnUse"><path d="M0 512h512V0H0Z" fill="#000000" data-original="#000000"></path></clipPath></defs><g clip-path="url(#a)" transform="matrix(1.33333 0 0 -1.33333 0 682.667)"><path d="m0 0-23.6-8.63a11.747 11.747 0 0 1-7.71-10.5l-.68-14.93c-1.4-30.419-26.47-54.36-56.92-54.36-7.95 0-15.35-2.78-21.17-7.51a33.568 33.568 0 0 1-11.7-19.18l-7.5-32.75-66.79-8.36-72.93 8.36 12.11 42.96a268.8 268.8 0 0 1 8.17 65.73v232.18h227.21l-12.95-96.66a40.936 40.936 0 0 1 7.14-29.05L5.97 18.61C10.53 11.95 7.59 2.771 0 0" style="fill-opacity:1;fill-rule:nonzero;stroke:none" transform="translate(322.57 233.72)" fill="#FFCEBF" data-original="#ffcebf" class=""></path><path d="M0 0c-7.95 0-15.35-2.78-21.17-7.51a33.568 33.568 0 0 1-11.7-19.18l-7.5-32.75-19.29-4.49-22.33 4.49 7.738 31.374C-70.187-11.583-55.4 0-38.423 0Z" style="fill-opacity:1;fill-rule:nonzero;stroke:none" transform="translate(233.66 145.3)" fill="#FFAF9E" data-original="#ffaf9e"></path><path d="M0 0c-.49-37.84-32.03-67.95-69.87-67.95h-204.48v-131.23c0-15.39-12.47-27.86-27.85-27.86-2.41 0-5.01.38-7.71 1.03-3.71.9-7.1 2.28-10.21 4.09-31.69 18.35-33.99 80.11-40.14 111.22-32.25 159.76 35.37 180.47 103.65 180.47h187.76C-30.52 69.77.5 38.45 0 0" style="fill-opacity:1;fill-rule:nonzero;stroke:none" transform="translate(376.05 421.59)" fill="#678D98" data-original="#678d98"></path><path d="M0 0h8.28v-131.23c0-15.39-12.47-27.86-27.85-27.86-2.41 0-5.01.38-7.71 1.03-3.71.9-7.1 2.28-10.21 4.09 7.12 5.04 11.77 13.35 11.77 22.74v105.51C-25.72-11.52-14.2 0 0 0" style="fill-opacity:1;fill-rule:nonzero;stroke:none" transform="translate(93.42 353.64)" fill="#537984" data-original="#537984"></path><path d="M0 0c-.49-37.84-32.03-67.95-69.87-67.95h-34C-66.03-67.95-34.49-37.84-34 0c.5 38.45-30.52 69.77-68.85 69.77h34C-30.52 69.77.5 38.45 0 0" style="fill-opacity:1;fill-rule:nonzero;stroke:none" transform="translate(376.05 421.59)" fill="#537984" data-original="#537984"></path><path d="M0 0h-234.85v42.56c0 19.534 15.836 35.37 35.37 35.37h139.71c13.59 0 25.97-7.78 31.86-20.02z" style="fill-opacity:1;fill-rule:nonzero;stroke:none" transform="translate(253.06 7.93)" fill="#C8EFFE" data-original="#c8effe" class=""></path><path d="m0 0-34.612.004L-61.93 57.91a35.36 35.36 0 0 1-31.86 20.02h34.02c13.59 0 25.97-7.78 31.86-20.02z" style="fill-opacity:1;fill-rule:nonzero;stroke:none" transform="translate(253.06 7.93)" fill="#99E6FC" data-original="#99e6fc"></path><path d="M0 0v-54.21l-15.37-5.14-15.37 5.14V0l15.375 6.51z" style="fill-opacity:1;fill-rule:nonzero;stroke:none" transform="translate(138.38 412.99)" fill="#6C7FD8" data-original="#6c7fd8"></path><path d="M0 0v-79.71c0-10.22-8.28-18.5-18.49-18.5h-8.2l-22.41 2.92-20.3-2.92h-8.28c-10.21 0-18.49 8.28-18.49 18.5V0c0 10.21 8.28 18.49 18.49 18.49h59.19C-8.28 18.49 0 10.21 0 0" style="fill-opacity:1;fill-rule:nonzero;stroke:none" transform="translate(171.1 340.29)" fill="#8795DE" data-original="#8795de"></path><path d="M0 0v-79.71c0-10.22-8.28-18.5-18.49-18.5h-8.2l-7.17.934 7.17.508c6.65 2.802 11.32 9.383 11.32 17.058V0c0 10.21-8.28 18.49-18.49 18.49h15.37C-8.28 18.49 0 10.21 0 0" style="fill-opacity:1;fill-rule:nonzero;stroke:none" transform="translate(171.1 340.29)" fill="#6C7FD8" data-original="#6c7fd8"></path><path d="M0 0v-59.53h-42.8V0c0 5.12 4.16 9.28 9.28 9.28h24.24C-4.15 9.28 0 5.12 0 0" style="fill-opacity:1;fill-rule:nonzero;stroke:none" transform="translate(144.41 301.61)" fill="#FE646F" data-original="#fe646f"></path><path d="M0 0v-59.53h-15.37V0c0 5.12-4.15 9.28-9.28 9.28h15.37C-4.15 9.28 0 5.12 0 0" style="fill-opacity:1;fill-rule:nonzero;stroke:none" transform="translate(144.41 301.61)" fill="#FD4755" data-original="#fd4755"></path><path d="M0 0v-83.35h-51.65V0a7.73 7.73 0 0 0 7.73 7.73h36.19C-3.46 7.73 0 4.27 0 0" style="fill-opacity:1;fill-rule:nonzero;stroke:none" transform="translate(148.84 496.34)" fill="#FE646F" data-original="#fe646f"></path><path d="M0 0v-83.35h-20.04c2.57 0 4.66 2.09 4.66 4.66V.01c0 4.26-3.46 7.72-7.72 7.72h15.37C-3.46 7.73 0 4.27 0 0" style="fill-opacity:1;fill-rule:nonzero;stroke:none" transform="translate(148.84 496.34)" fill="#FD4755" data-original="#fd4755"></path><path d="M0 0h-20.208c-10.594 0-19.181 8.587-19.181 19.181 0 10.593 8.587 19.18 19.181 19.18H0c10.593 0 19.181-8.587 19.181-19.18C19.181 8.587 10.593 0 0 0" style="fill-opacity:1;fill-rule:nonzero;stroke:none" transform="translate(351.74 98.064)" fill="#537984" data-original="#537984"></path><path d="M0 0v-79.45c0-10.67-8.65-19.33-19.33-19.33h-142.22c-5.18 0-7.42 6.56-3.33 9.73l36.44 28.24V0c0 10.67 8.65 19.33 19.33 19.33h89.78C-8.65 19.33 0 10.67 0 0" style="fill-opacity:1;fill-rule:nonzero;stroke:none" transform="translate(504.5 281.1)" fill="#C8EFFE" data-original="#c8effe" class=""></path><path d="M0 0v-79.45c0-10.67-8.65-19.33-19.33-19.33h-34c10.68 0 19.33 8.66 19.33 19.33V0c0 10.67-8.65 19.33-19.33 19.33h34C-8.65 19.33 0 10.67 0 0" style="fill-opacity:1;fill-rule:nonzero;stroke:none" transform="translate(504.5 281.1)" fill="#99E6FC" data-original="#99e6fc"></path><path d="M0 0h175.391l-27.904 57.909a35.366 35.366 0 0 1-31.86 20.014H-24.094c-19.532 0-35.366-15.834-35.366-35.366V0h24.293" style="stroke-linecap: round; stroke-linejoin: round; stroke-miterlimit: 10; stroke-dasharray: none; stroke-opacity: 1;" transform="translate(77.666 7.934)" fill="none" stroke="#000000" stroke-width="15px" stroke-linecap="round" stroke-linejoin="round" stroke-miterlimit="10" stroke-dasharray="none" stroke-opacity="" data-original="#000000" class=""></path><path d="M0 0h59.188C69.4 0 77.68-8.279 77.68-18.492v-79.71c0-10.213-8.28-18.492-18.492-18.492H0c-10.213 0-18.492 8.279-18.492 18.492v79.71C-18.492-8.279-10.213 0 0 0Z" style="stroke-linecap: round; stroke-linejoin: round; stroke-miterlimit: 10; stroke-dasharray: none; stroke-opacity: 1;" transform="translate(93.419 358.778)" fill="none" stroke="#000000" stroke-width="15px" stroke-linecap="round" stroke-linejoin="round" stroke-miterlimit="10" stroke-dasharray="none" stroke-opacity="" data-original="#000000" class=""></path><path d="M0 0h-42.804v59.523a9.281 9.281 0 0 0 9.281 9.281h24.242A9.28 9.28 0 0 0 0 59.523Z" style="stroke-linecap: round; stroke-linejoin: round; stroke-miterlimit: 10; stroke-dasharray: none; stroke-opacity: 1;" transform="translate(144.415 242.084)" fill="none" stroke="#000000" stroke-width="15px" stroke-linecap="round" stroke-linejoin="round" stroke-miterlimit="10" stroke-dasharray="none" stroke-opacity="" data-original="#000000" class=""></path><path d="M138.383 358.778h-30.74v54.208h30.74z" style="stroke-linecap: round; stroke-linejoin: round; stroke-miterlimit: 10; stroke-dasharray: none; stroke-opacity: 1;" fill="none" stroke="#000000" stroke-width="15px" stroke-linecap="round" stroke-linejoin="round" stroke-miterlimit="10" stroke-dasharray="none" stroke-opacity="" data-original="#000000" class=""></path><path d="M0 0v-24.013h-51.648v83.355a7.724 7.724 0 0 0 7.724 7.724h36.199A7.724 7.724 0 0 0 0 59.342V35.5" style="stroke-linecap: round; stroke-linejoin: round; stroke-miterlimit: 10; stroke-dasharray: none; stroke-opacity: 1;" transform="translate(148.837 437)" fill="none" stroke="#000000" stroke-width="15px" stroke-linecap="round" stroke-linejoin="round" stroke-miterlimit="10" stroke-dasharray="none" stroke-opacity="" data-original="#000000" class=""></path><path d="m0 0-3.158-23.578A40.898 40.898 0 0 1 3.984-52.62l33.293-48.689c4.558-6.667 1.616-15.844-5.97-18.616l-23.605-8.628a11.75 11.75 0 0 1-7.705-10.496l-.688-14.938c-1.398-30.415-26.47-54.357-56.915-54.357a33.491 33.491 0 0 1-21.168-7.511 33.545 33.545 0 0 1-11.704-19.174l-7.496-32.758h-139.721l12.106 42.961a268.585 268.585 0 0 1 8.169 65.732" style="stroke-linecap: round; stroke-linejoin: round; stroke-miterlimit: 10; stroke-dasharray: none; stroke-opacity: 1;" transform="translate(291.268 353.644)" fill="none" stroke="#000000" stroke-width="15px" stroke-linecap="round" stroke-linejoin="round" stroke-miterlimit="10" stroke-dasharray="none" stroke-opacity="" data-original="#000000" class=""></path><path d="M0 0h158.365c38.332 0 69.346-31.319 68.85-69.766-.489-37.84-32.032-67.945-69.876-67.945H16.549" style="stroke-linecap: round; stroke-linejoin: round; stroke-miterlimit: 10; stroke-dasharray: none; stroke-opacity: 1;" transform="translate(148.837 491.355)" fill="none" stroke="#000000" stroke-width="15px" stroke-linecap="round" stroke-linejoin="round" stroke-miterlimit="10" stroke-dasharray="none" stroke-opacity="" data-original="#000000" class=""></path><path d="M0 0v-19.678c0-15.385-12.472-27.856-27.856-27.856-2.405 0-5.012.382-7.706 1.033-41.494 10.018-43.604 81.142-50.353 115.305-28.725 142.288 21.773 174.274 81.399 179.569" style="stroke-linecap: round; stroke-linejoin: round; stroke-miterlimit: 10; stroke-dasharray: none; stroke-opacity: 1;" transform="translate(101.704 242.084)" fill="none" stroke="#000000" stroke-width="15px" stroke-linecap="round" stroke-linejoin="round" stroke-miterlimit="10" stroke-dasharray="none" stroke-opacity="" data-original="#000000" class=""></path><path d="M0 0a19.802 19.802 0 0 0-14.047-5.818c-10.972 0-19.866 8.894-19.866 19.865" style="stroke-linecap: round; stroke-linejoin: round; stroke-miterlimit: 10; stroke-dasharray: none; stroke-opacity: 1;" transform="translate(257.552 195.38)" fill="none" stroke="#000000" stroke-width="15px" stroke-linecap="round" stroke-linejoin="round" stroke-miterlimit="10" stroke-dasharray="none" stroke-opacity="" data-original="#000000" class=""></path><path d="m0 0 75.465-97.951a68.998 68.998 0 0 1 54.659-26.889h37.812" style="stroke-linecap: round; stroke-linejoin: round; stroke-miterlimit: 10; stroke-dasharray: none; stroke-opacity: 1;" transform="translate(144.415 242.084)" fill="none" stroke="#000000" stroke-width="15px" stroke-linecap="round" stroke-linejoin="round" stroke-miterlimit="10" stroke-dasharray="none" stroke-opacity="" data-original="#000000" class=""></path><path d="M0 0h-20.208c-10.594 0-19.181 8.587-19.181 19.181 0 10.593 8.587 19.18 19.181 19.18H0c10.593 0 19.181-8.587 19.181-19.18C19.181 8.587 10.593 0 0 0Z" style="stroke-linecap: round; stroke-linejoin: round; stroke-miterlimit: 10; stroke-dasharray: none; stroke-opacity: 1;" transform="translate(351.74 98.064)" fill="none" stroke="#000000" stroke-width="15px" stroke-linecap="round" stroke-linejoin="round" stroke-miterlimit="10" stroke-dasharray="none" stroke-opacity="" data-original="#000000" class=""></path><path d="M0 0v24.933c0 10.674 8.653 19.328 19.328 19.328h89.786c10.675 0 19.328-8.654 19.328-19.328v-79.45c0-10.674-8.653-19.328-19.328-19.328H-33.107c-5.177 0-7.42 6.555-3.328 9.727L0-35.877" style="stroke-linecap: round; stroke-linejoin: round; stroke-miterlimit: 10; stroke-dasharray: none; stroke-opacity: 1;" transform="translate(376.058 256.167)" fill="none" stroke="#000000" stroke-width="15px" stroke-linecap="round" stroke-linejoin="round" stroke-miterlimit="10" stroke-dasharray="none" stroke-opacity="" data-original="#000000" class=""></path><path d="M0 0h51.377" style="stroke-linecap: round; stroke-linejoin: round; stroke-miterlimit: 10; stroke-dasharray: none; stroke-opacity: 1;" transform="translate(415.104 256.295)" fill="none" stroke="#000000" stroke-width="15px" stroke-linecap="round" stroke-linejoin="round" stroke-miterlimit="10" stroke-dasharray="none" stroke-opacity="" data-original="#000000" class=""></path><path d="M0 0h51.377" style="stroke-linecap: round; stroke-linejoin: round; stroke-miterlimit: 10; stroke-dasharray: none; stroke-opacity: 1;" transform="translate(415.104 222.52)" fill="none" stroke="#000000" stroke-width="15px" stroke-linecap="round" stroke-linejoin="round" stroke-miterlimit="10" stroke-dasharray="none" stroke-opacity="" data-original="#000000" class=""></path></g></g></svg>