<svg xmlns="http://www.w3.org/2000/svg" version="1.1" xmlns:xlink="http://www.w3.org/1999/xlink" xmlns:svgjs="http://svgjs.com/svgjs" width="512" height="512" x="0" y="0" viewBox="0 0 50 50" style="enable-background:new 0 0 512 512" xml:space="preserve" class=""><g><path fill="#2AABF5" d="M35.6 32.9h2.2l4.3 9.5h-3.7" data-original="#2aabf5"></path><path fill="#D7E8FF" d="M14.5 42.4h27.1c.7 0 1.3.6 1.3 1.3V47c0 .7-.6 1.3-1.3 1.3h-33c-.7 0-1.3-.6-1.3-1.3v-3.3c0-.7.6-1.3 1.3-1.3H11M46.1 24.2v-1.4c0-7.2-42.2-7.1-42.2.1v1.4l8.3 2.7v-.9c0-1.2.9-2.1 2.1-2.1h21.3c1.2 0 2.1.9 2.1 2.1v.9z" data-original="#d7e8ff" class=""></path><path fill="#FFFFFF" d="M12.1 42.4c.4-1.6 3.7-12.1 3.9-13.7v-5.6c0-1 .8-1.9 1.9-1.9 1 0 1.9.8 1.9 1.9V25c0 1 .8 1.7 1.7 1.7h7.1c1 0 1.7-.8 1.7-1.7v-1.9c0-1 .8-1.9 1.9-1.9 1 0 1.9.8 1.9 1.9v5.6c.6 4.3 1.9 8 4.3 13.7" data-original="#ffffff" class=""></path><path fill="#34CBA0" d="M16.5 36.5c0 2.1-3.8 9.6-3.8 9.6s-3.8-7.5-3.8-9.6 1.7-3.8 3.8-3.8 3.8 1.7 3.8 3.8z" data-original="#34cba0"></path><circle cx="12.7" cy="36.5" r="1.5" fill="#FFFFFF" data-original="#ffffff" class=""></circle><circle cx="25" cy="34.6" r="2.1" fill="#FFC408" data-original="#ffc408"></circle><path fill="#F3877E" d="M13 29.1 2.7 32.7l-.5-1.5c-1.2-3.2.1-6.7 3-7.8 2.8-1 6 .7 7.2 3.9zM37 29l10.3 3.6.5-1.5c1.2-3.2-.2-6.7-3-7.8-2.8-1-6 .8-7.2 3.9z" data-original="#f3877e"></path><path fill="#2AABF5" d="M48.2 4.2v5.7c0 1.4-1.1 2.5-2.5 2.5h-8.9l-3.1 2.7v-2.7H33c-1.4 0-2.5-1.1-2.5-2.5V4.2c0-1.4 1.1-2.5 2.5-2.5h12.7c1.4.1 2.5 1.2 2.5 2.5z" data-original="#2aabf5"></path><path fill="#FFFFFF" d="M20.4 13.5H3.7c-1.1 0-2-.9-2-2V3.8c0-1.1.9-2 2-2h16.7c1.1 0 2 .9 2 2v7.7c0 1.1-.9 2-2 2z" data-original="#ffffff" class=""></path><path fill="#FFC408" d="m2.5 2.3 7.4 5.3 1.2.9c.5.4 1.3.4 1.8 0l1.3-.9 7.4-5.3" data-original="#ffc408"></path><g fill="none" stroke="#151F81" stroke-linecap="round" stroke-linejoin="round" stroke-width="1.5px"><path stroke-miterlimit="10" d="M35.6 32.9h2.2l4.3 9.5h-3.7" fill="none" stroke="#151F81" stroke-width="1.5px"></path><path stroke-miterlimit="10" d="M15 33.4c.4-1.6.8-3.1 1-4.6v-5.6c0-1 .8-1.9 1.9-1.9 1 0 1.9.8 1.9 1.9V25c0 1 .8 1.7 1.7 1.7h7.1c1 0 1.7-.8 1.7-1.7v-1.9c0-1 .8-1.9 1.9-1.9 1 0 1.9.8 1.9 1.9v5.6c.6 4.3 1.9 8 4.3 13.7" fill="none" stroke="#151F81" stroke-width="1.5px"></path><circle cx="25" cy="34.6" r="4.8" stroke-dasharray="0 3.042" fill="none" stroke="#151F81" stroke-width="1.5px"></circle><circle cx="25" cy="34.6" r="2.1" stroke-miterlimit="10" fill="none" stroke="#151F81" stroke-width="1.5px"></circle><path stroke-miterlimit="10" d="M14.5 42.4h27.1c.7 0 1.3.6 1.3 1.3V47c0 .7-.6 1.3-1.3 1.3h-33c-.7 0-1.3-.6-1.3-1.3v-3.3c0-.7.6-1.3 1.3-1.3H11" fill="none" stroke="#151F81" stroke-width="1.5px"></path><g stroke-miterlimit="10" stroke="#151F81" fill="none" stroke-width="1.5px"><path d="M46.1 24.2v-1.4c0-7.2-42.2-7.1-42.2.1v1.4M30.3 24H19.7" fill="none" stroke="#151F81" stroke-width="1.5px"></path><path d="M34.1 24h1.6c1.2 0 2.1.9 2.1 2.1v.9M15.9 24h-1.6c-1.2 0-2.1 1-2.1 2.1v.9" fill="none" stroke="#151F81" stroke-width="1.5px"></path></g><path stroke-miterlimit="10" d="M13 29.1 2.7 32.7l-.5-1.5c-1.2-3.2.1-6.7 3-7.8 2.8-1 6 .7 7.2 3.9zM37 29l10.3 3.6.5-1.5c1.2-3.2-.2-6.7-3-7.8-2.8-1-6 .8-7.2 3.9zM20.4 13.5H3.7c-1.1 0-2-.9-2-2V3.8c0-1.1.9-2 2-2h16.7c1.1 0 2 .9 2 2v7.7c0 1.1-.9 2-2 2z" fill="none" stroke="#151F81" stroke-width="1.5px"></path><path stroke-miterlimit="10" d="m2.5 2.3 7.4 5.3 1.2.9c.5.4 1.3.4 1.8 0l1.3-.9 7.4-5.3M9.9 7.6l-7.4 5.3M21.6 12.9l-7.4-5.3M48.2 4.2v5.7c0 1.4-1.1 2.5-2.5 2.5h-8.9l-3.1 2.7v-2.7H33c-1.4 0-2.5-1.1-2.5-2.5V4.2c0-1.4 1.1-2.5 2.5-2.5h12.7c1.4.1 2.5 1.2 2.5 2.5zM33.7 4.8h11.5M43.4 7.1h1.9M33.7 7.1h7.5M33.7 9.4h7.8M16.5 36.5c0 2.1-3.8 9.6-3.8 9.6s-3.8-7.5-3.8-9.6 1.7-3.8 3.8-3.8 3.8 1.7 3.8 3.8z" fill="none" stroke="#151F81" stroke-width="1.5px"></path><circle cx="12.7" cy="36.5" r="1.5" stroke-miterlimit="10" fill="none" stroke="#151F81" stroke-width="1.5px"></circle></g></g></svg>