<svg xmlns="http://www.w3.org/2000/svg" version="1.1" xmlns:xlink="http://www.w3.org/1999/xlink" xmlns:svgjs="http://svgjs.com/svgjs" width="512" height="512" x="0" y="0" viewBox="0 0 64 64" style="enable-background:new 0 0 512 512" xml:space="preserve" class=""><g><g data-name="school-online learning-education-internet-teach"><path d="M26 44h4a1 1 0 0 0 1-1v-4a1 1 0 0 0-1-1h-4a1 1 0 0 0-1 1v4a1 1 0 0 0 1 1Zm1-4h2v2h-2ZM34 38a1 1 0 0 0-1 1v4a1 1 0 0 0 1 1h4a1 1 0 0 0 1-1v-4a1 1 0 0 0-1-1Zm3 4h-2v-2h2ZM49 44h4a1 1 0 0 0 1-1v-4a1 1 0 0 0-1-1h-4a1 1 0 0 0-1 1v4a1 1 0 0 0 1 1Zm1-4h2v2h-2ZM49 52h4a1 1 0 0 0 1-1v-4a1 1 0 0 0-1-1h-4a1 1 0 0 0-1 1v4a1 1 0 0 0 1 1Zm1-4h2v2h-2ZM15 38h-4a1 1 0 0 0-1 1v4a1 1 0 0 0 1 1h4a1 1 0 0 0 1-1v-4a1 1 0 0 0-1-1Zm-1 4h-2v-2h2ZM15 46h-4a1 1 0 0 0-1 1v4a1 1 0 0 0 1 1h4a1 1 0 0 0 1-1v-4a1 1 0 0 0-1-1Zm-1 4h-2v-2h2ZM32 35a6 6 0 1 0-6-6 6.006 6.006 0 0 0 6 6Zm0-10a4 4 0 1 1-4 4 4 4 0 0 1 4-4ZM3.172 7.171a1 1 0 0 0 .674-.26l.236-.217a12.355 12.355 0 0 1 15.8-.028l.268.244a1 1 0 0 0 1.35-1.48l-.3-.272a14.372 14.372 0 0 0-18.431.029l-.27.245a1 1 0 0 0 .674 1.739ZM15.437 13.071a1 1 0 0 0 .641-1.768 6.367 6.367 0 0 0-8.156 0A1 1 0 1 0 9.2 12.839a4.37 4.37 0 0 1 5.594 0 1 1 0 0 0 .643.232Z" fill="#FFFFFF" data-original="#000000" opacity="1"></path><circle cx="12" cy="16" r="2" fill="#FFFFFF" data-original="#000000" opacity="1"></circle><path d="M18 10a1 1 0 0 0 .641-1.77 10.359 10.359 0 0 0-13.278 0A1 1 0 0 0 6 10a.991.991 0 0 0 .6-.2 8.389 8.389 0 0 1 10.8 0 .991.991 0 0 0 .6.2ZM61 56h-2V36h1a1 1 0 0 0 1-1v-4a1 1 0 0 0-1-1H45v-2.72l.95.55a1.013 1.013 0 0 0 1.37-.37l2-3.46a1 1 0 0 0-.37-1.37L33 13.42V10h10a1 1 0 0 0 1-1V3a1 1 0 0 0-1-1H32a1 1 0 0 0-1 1v10.42l-15.95 9.21a1 1 0 0 0-.37 1.37l2 3.46a1.01 1.01 0 0 0 1.37.37l.95-.55V30H4a1 1 0 0 0-1 1v4a1 1 0 0 0 1 1h1v20H3a1 1 0 0 0-1 1v4a1 1 0 0 0 1 1h58a1 1 0 0 0 1-1v-4a1 1 0 0 0-1-1ZM33 4h9v4h-9Zm26 28v2H45v-2Zm-2 4v20H45V36ZM17.92 25.59l-1-1.72L32 15.15l15.08 8.72-1 1.72-13.58-7.84a1.027 1.027 0 0 0-1 0ZM38 46H26a1 1 0 0 0-1 1v9h-4V26.12l11-6.35 11 6.35V56h-4v-9a1 1 0 0 0-1-1Zm-1 2v8h-4v-8Zm-6 0v8h-4v-8ZM5 32h14v2H5Zm14 4v20H7V36Zm41 24H4v-2h56Z" fill="#FFFFFF" data-original="#000000" opacity="1"></path></g></g></svg>