<svg xmlns="http://www.w3.org/2000/svg" version="1.1" xmlns:xlink="http://www.w3.org/1999/xlink" xmlns:svgjs="http://svgjs.com/svgjs" width="512" height="512" x="0" y="0" viewBox="0 0 512.042 512.042" style="enable-background:new 0 0 512 512" xml:space="preserve" class=""><g><path d="M504.519 0H7.523a7.5 7.5 0 0 0-7.5 7.5v52.61c0 4.143 3.358 7.5 7.5 7.5s7.5-3.357 7.5-7.5V15h481.996v326.73H15.023V86.415c0-4.143-3.358-7.5-7.5-7.5s-7.5 3.357-7.5 7.5v324.813a7.5 7.5 0 0 0 7.5 7.5h124.283c4.142 0 7.5-3.357 7.5-7.5s-3.358-7.5-7.5-7.5H15.023V356.73h481.996v46.998H162.834c-4.142 0-7.5 3.357-7.5 7.5s3.358 7.5 7.5 7.5h39.094v22.529c0 8.76-3.411 16.996-9.605 23.189l-1.668 1.668c-19.752 1.652-35.32 18.255-35.32 38.427a7.5 7.5 0 0 0 7.5 7.5h186.373a7.5 7.5 0 0 0 7.5-7.5c0-20.172-15.568-36.775-35.32-38.427l-1.668-1.668c-6.194-6.193-9.605-14.43-9.605-23.189v-22.529H504.52a7.5 7.5 0 0 0 7.5-7.5V7.5a7.501 7.501 0 0 0-7.501-7.5zM340.484 497.042H171.558c3.139-9.327 11.967-16.063 22.338-16.063h124.249c10.372 0 19.2 6.736 22.339 16.063zm-38.502-31.063H210.06c10.089-16.635 5.877-30.727 6.868-47.251h78.187c.987 16.475-3.215 30.63 6.867 47.251z" fill="#FFFFFF" data-original="#000000" opacity="1" class=""></path><path d="M411.366 310.59c-4.142 0-7.5 3.357-7.5 7.5s3.358 7.5 7.5 7.5h62.089a7.5 7.5 0 0 0 7.5-7.5V38.563a7.5 7.5 0 0 0-7.5-7.5H38.586a7.5 7.5 0 0 0-7.5 7.5V318.09a7.5 7.5 0 0 0 7.5 7.5h341.718c4.142 0 7.5-3.357 7.5-7.5s-3.358-7.5-7.5-7.5H46.086V77.155h419.869V310.59zM46.086 46.063h16.095v16.093H46.086zm31.096 16.092V46.063h388.774v16.093H77.182z" fill="#FFFFFF" data-original="#000000" opacity="1" class=""></path><path d="M343.413 171.637a7.5 7.5 0 0 0 0-10.607c-48.169-48.168-126.546-48.168-174.715 0a7.5 7.5 0 0 0 10.606 10.607c42.32-42.322 111.182-42.322 153.502 0a7.501 7.501 0 0 0 10.607 0z" fill="#FFFFFF" data-original="#000000" opacity="1" class=""></path><path d="M314.305 200.606a7.5 7.5 0 0 0 0-10.607c-32.119-32.117-84.38-32.117-116.499 0a7.5 7.5 0 0 0 10.606 10.607c26.271-26.271 69.016-26.271 95.286 0a7.501 7.501 0 0 0 10.607 0z" fill="#FFFFFF" data-original="#000000" opacity="1" class=""></path><path d="M284.741 229.515a7.5 7.5 0 0 0 0-10.607c-15.817-15.816-41.555-15.816-57.372 0a7.5 7.5 0 0 0 10.606 10.607c9.97-9.971 26.189-9.971 36.159 0a7.502 7.502 0 0 0 10.607 0zM255.839 247.926a7.5 7.5 0 0 0-7.5 7.5c0 9.992 15.432 10.011 15.432 0a7.5 7.5 0 0 0-7.5-7.5z" fill="#FFFFFF" data-original="#000000" opacity="1" class=""></path></g></svg>