<svg xmlns="http://www.w3.org/2000/svg" version="1.1" xmlns:xlink="http://www.w3.org/1999/xlink" xmlns:svgjs="http://svgjs.com/svgjs" width="512" height="512" x="0" y="0" viewBox="0 0 512 512" style="enable-background:new 0 0 512 512" xml:space="preserve" class=""><g><path d="M271 424.763V367.5h-30v57.263c-17.422 6.213-30 22.707-30 42.237 0 24.814 20.186 45 45 45s45-20.186 45-45c0-19.53-12.578-36.024-30-42.237zM151 367.5v31.473l-48.171 32.115C95.316 425.457 86.091 422 76 422c-24.814 0-45 20.186-45 45s20.186 45 45 45 45-20.186 45-45c0-3.803-.617-7.436-1.509-10.966l54.829-36.553a15.04 15.04 0 0 0 6.68-12.48v-39.5h-30zM436 422c-10.091 0-19.316 3.457-26.829 9.088L361 398.973V367.5h-30V407c0 5.01 2.52 9.697 6.68 12.48l54.829 36.553C391.617 459.564 391 463.197 391 467c0 24.814 20.186 45 45 45s45-20.186 45-45-20.186-45-45-45zM450.824 155.215c.117-1.729.176-3.457.176-5.215 0-66.167-53.818-120-120-120-14.209 0-28.242 2.637-41.895 7.866C263.939 13.682 230.57 0 196 0 121.557 0 61 60.557 61 135c0 6.489.557 13.008 1.729 19.893C26.635 166.904 1 201.035 1 240c0 49.629 40.371 90 90 90h330c49.629 0 90-40.371 90-90 0-38.672-24.58-72.334-60.176-84.785zM256 270c-8.284 0-15-6.716-15-15 0-8.286 6.716-15 15-15s15 6.714 15 15c0 8.284-6.716 15-15 15zm53.027-46.787c-5.934 5.876-15.439 5.771-21.24-.029-16.934-16.992-46.641-16.992-63.574 0-5.859 5.859-15.381 5.83-21.24.029-5.859-5.859-5.859-15.352-.029-21.24 28.301-28.301 77.812-28.301 106.113 0 5.83 5.888 5.83 15.381-.03 21.24zm42.393-42.422c-5.859 5.859-15.352 5.859-21.211 0-39.727-39.727-108.691-39.727-148.418 0-5.859 5.859-15.352 5.859-21.211 0s-5.859-15.352 0-21.211C186.127 134.048 219.994 120 256 120s69.873 14.048 95.42 39.58c5.859 5.859 5.859 15.352 0 21.211z" fill="#FFFFFF" data-original="#000000" opacity="1" class=""></path></g></svg>