<svg xmlns="http://www.w3.org/2000/svg" version="1.1" xmlns:xlink="http://www.w3.org/1999/xlink" xmlns:svgjs="http://svgjs.com/svgjs" width="512" height="512" x="0" y="0" viewBox="0 0 64 64" style="enable-background:new 0 0 512 512" xml:space="preserve" class=""><g><g data-name="20-wifi"><path d="M62.436 39.879a19.023 19.023 0 0 0-26.871 0 3 3 0 0 0 0 4.242 3.073 3.073 0 0 0 4.243 0 13.016 13.016 0 0 1 18.384 0 3 3 0 0 0 4.244-4.242Zm-1.415 2.828a1 1 0 0 1-1.415 0 15.016 15.016 0 0 0-21.212 0 1 1 0 1 1-1.415-1.414 17.02 17.02 0 0 1 24.042 0 1 1 0 0 1 0 1.414Z" fill="#FFFFFF" data-original="#000000" class="" opacity="1"></path><path d="M58.192 45.879a13.016 13.016 0 0 0-18.385 0 3 3 0 0 0 4.243 4.242 7.011 7.011 0 0 1 9.9 0 3 3 0 0 0 4.243-4.242Zm-1.414 2.828a1 1 0 0 1-1.414 0 9.009 9.009 0 0 0-12.728 0 1 1 0 0 1-1.414-1.414 11.011 11.011 0 0 1 15.556 0 1 1 0 0 1 0 1.414Z" fill="#FFFFFF" data-original="#000000" class="" opacity="1"></path><path d="M49 49.828a6.957 6.957 0 0 0-4.95 2.051 3 3 0 1 0 4.243 4.242 1.021 1.021 0 0 1 1.414 0 3 3 0 1 0 4.243-4.242A6.957 6.957 0 0 0 49 49.828Zm3.536 4.879a1 1 0 0 1-1.414 0 3 3 0 0 0-4.243 0 1 1 0 1 1-1.415-1.414 5 5 0 0 1 7.072 0 1 1 0 0 1 0 1.414ZM49 58a3 3 0 1 0 3 3 3 3 0 0 0-3-3Zm0 4a1 1 0 1 1 1-1 1 1 0 0 1-1 1ZM28.6 46.838 23 44.351V41.3A12.018 12.018 0 0 0 30.958 31H31a4 4 0 0 0 4-4 3.962 3.962 0 0 0-.6-2.086 14.717 14.717 0 0 0-6.26-23.055 16.649 16.649 0 0 0-4.273-.984 13.833 13.833 0 0 0-8.738 2.213 4.114 4.114 0 0 1-2.915.593 5.958 5.958 0 0 0-3.283.337 13.471 13.471 0 0 0-7.968 9.516 13.281 13.281 0 0 0 2.652 11.358A3.982 3.982 0 0 0 7 31h.042A12.018 12.018 0 0 0 15 41.3v3.05l-5.6 2.488a13.822 13.822 0 0 0-8.37 11.638c-.02.307-.03.617-.03.927V63a1 1 0 0 0 1 1h34a1 1 0 0 0 1-1v-3.6c0-.31-.01-.62-.03-.927a13.822 13.822 0 0 0-8.37-11.635ZM2.915 13.972a11.468 11.468 0 0 1 6.779-8.106 3.978 3.978 0 0 1 2.183-.215 6.094 6.094 0 0 0 4.332-.88 11.884 11.884 0 0 1 7.47-1.906 14.64 14.64 0 0 1 3.758.867 12.535 12.535 0 0 1 7.9 8.926 12.681 12.681 0 0 1-2.407 10.855 3.9 3.9 0 0 0-.93-.386v-4.073a2.679 2.679 0 0 0-4.573-1.895 3.124 3.124 0 0 1-2.314.907 3.071 3.071 0 0 1-2.238-1.083 5.105 5.105 0 0 0-7.75 0 3.074 3.074 0 0 1-2.238 1.082 3.111 3.111 0 0 1-2.314-.907A2.679 2.679 0 0 0 6 19.054v4.073a3.975 3.975 0 0 0-.932.386 11.3 11.3 0 0 1-2.153-9.541ZM9 30a1 1 0 0 0-1-1H7a2 2 0 0 1 0-4 1 1 0 0 0 1-1v-4.946a.659.659 0 0 1 .419-.628.728.728 0 0 1 .274-.055.644.644 0 0 1 .466.2 5.057 5.057 0 0 0 3.805 1.491 5.123 5.123 0 0 0 3.68-1.778 3.1 3.1 0 0 1 4.712 0 5.1 5.1 0 0 0 7.485.288.679.679 0 0 1 1.159.482V24a1 1 0 0 0 1 1 2 2 0 0 1 0 4h-1a1 1 0 0 0-1 1 10 10 0 0 1-20 0Zm7.406 15.914A1 1 0 0 0 17 45v-3.177a11.388 11.388 0 0 0 4 0V45a1 1 0 0 0 .594.914l4.316 1.918A4.965 4.965 0 0 1 21 52h-4a4.964 4.964 0 0 1-4.91-4.168ZM35 62H3v-2.6c0-.267.009-.534.026-.8a11.825 11.825 0 0 1 7.174-9.928A6.97 6.97 0 0 0 17 54h4a6.97 6.97 0 0 0 6.8-5.328 11.825 11.825 0 0 1 7.174 9.928c.017.265.026.532.026.8Z" fill="#FFFFFF" data-original="#000000" class="" opacity="1"></path><path d="M16 25a1 1 0 0 0-2 0v1a1 1 0 0 0 2 0ZM23 27a1 1 0 0 0 1-1v-1a1 1 0 0 0-2 0v1a1 1 0 0 0 1 1Z" fill="#FFFFFF" data-original="#000000" class="" opacity="1"></path></g></g></svg>