<svg xmlns="http://www.w3.org/2000/svg" version="1.1" xmlns:xlink="http://www.w3.org/1999/xlink" xmlns:svgjs="http://svgjs.com/svgjs" width="512" height="512" x="0" y="0" viewBox="0 0 512 512" style="enable-background:new 0 0 512 512" xml:space="preserve" class=""><g><path d="M256 104a111.135 111.135 0 0 1 73.337 27.349L317.986 142.7a95.993 95.993 0 0 0-127.878 3.483l10.984 11.634a80.006 80.006 0 0 1 105.538-3.76l-11.393 11.393a64 64 0 0 0-72.226-4.3l8.259 13.7a48.019 48.019 0 0 1 52.538 2.026l-17.457 17.458a24.006 24.006 0 1 0 6.619 38.635 24.035 24.035 0 0 0 4.693-27.321l85.816-85.816-11.312-11.312-11.495 11.5A128 128 0 0 0 153.6 139.2l12.79 9.6A111.149 111.149 0 0 1 256 104zm5.657 117.656A8 8 0 1 1 264 216a7.944 7.944 0 0 1-2.344 5.657z" fill="#FFFFFF" data-original="#000000" opacity="1" class=""></path><path d="M48 312h416a32.036 32.036 0 0 0 32-32v-16a8 8 0 0 0-8-8h-16V48a32.036 32.036 0 0 0-32-32H72a32.036 32.036 0 0 0-32 32v208H24a8 8 0 0 0-8 8v16a32.036 32.036 0 0 0 32 32zm8-264a16.019 16.019 0 0 1 16-16h368a16.019 16.019 0 0 1 16 16v208H352a7.994 7.994 0 0 0-3.578.845L334.111 264H177.889l-14.311-7.155A7.994 7.994 0 0 0 160 256H56zM32 272h126.111l14.311 7.155A7.994 7.994 0 0 0 176 280h160a7.994 7.994 0 0 0 3.578-.845L353.889 272H480v8a16.019 16.019 0 0 1-16 16H48a16.019 16.019 0 0 1-16-16z" fill="#FFFFFF" data-original="#000000" opacity="1" class=""></path><path d="M424 240h16V56a8 8 0 0 0-8-8H80a8 8 0 0 0-8 8v184h16V64h336zM192 328h16v32h-16zM328 328h16v32h-16zM256 448h16v24h-16zM211.571 377.338l8.858 13.324A40.007 40.007 0 0 1 282.542 424a40.474 40.474 0 0 1-.553 6.676l15.779 2.648A56.042 56.042 0 0 0 242.542 368a55.758 55.758 0 0 0-30.971 9.338zM123.188 469.334l15.086 5.332a40.02 40.02 0 0 1 75.452 0l15.086-5.332a56.02 56.02 0 0 0-105.624 0zM362.731 432a56.1 56.1 0 0 0-52.811 37.334l15.085 5.332a40.02 40.02 0 0 1 75.453 0l15.085-5.332A56.1 56.1 0 0 0 362.731 432zM64 440c.571 0 1.141.015 1.709.039.434.019.87.05 1.306.084.117.009.235.014.352.024.516.044 1.032.1 1.55.164l.116.013c.5.064 1 .14 1.508.222a39.9 39.9 0 0 1 20.124 9.638l10.67-11.922a55.862 55.862 0 0 0-20.943-11.8 40.007 40.007 0 0 1 59.6-29.115l8.012-13.85A55.876 55.876 0 0 0 128 376.58V328h-16v48.574A56.125 56.125 0 0 0 64.569 424H64a56.206 56.206 0 0 0-48.5 27.994l13.849 8.012A40.161 40.161 0 0 1 64 440zM448 424.006V424h-.569A56.125 56.125 0 0 0 400 376.574V328h-16v48.58a55.876 55.876 0 0 0-20.006 6.917l8.012 13.85a40.009 40.009 0 0 1 59.6 29.114 55.88 55.88 0 0 0-20.945 11.8l10.67 11.922a39.9 39.9 0 0 1 20.124-9.638c.5-.082 1-.158 1.508-.222l.116-.013c.518-.064 1.034-.12 1.55-.164.117-.01.235-.015.352-.024.436-.034.872-.065 1.306-.084a40.486 40.486 0 0 1 1.709-.039 40.161 40.161 0 0 1 34.654 20.006l13.849-8.012A56.142 56.142 0 0 0 448 424.006zM168 392h16v16h-16zM320 384h16v16h-16zM144 344h16v16h-16zM256 336h16v16h-16z" fill="#FFFFFF" data-original="#000000" opacity="1" class=""></path><path d="M136 208h16v16h-16zM168 208h16v16h-16zM200 208h16v16h-16zM296 208h16v16h-16zM328 208h16v16h-16zM360 208h16v16h-16z" fill="#FFFFFF" data-original="#000000" opacity="1" class=""></path></g></svg>