<svg xmlns="http://www.w3.org/2000/svg" version="1.1" xmlns:xlink="http://www.w3.org/1999/xlink" xmlns:svgjs="http://svgjs.com/svgjs" width="512" height="512" x="0" y="0" viewBox="0 0 512 512" style="enable-background:new 0 0 512 512" xml:space="preserve" class=""><g><path d="M256 376a31.789 31.789 0 0 1 22.627 9.373l11.314-11.314a48 48 0 0 0-67.882 0l11.314 11.314A31.789 31.789 0 0 1 256 376Z" fill="#FFFFFF" data-original="#000000" opacity="1"></path><path d="m239.029 391.03 11.315 11.313a8 8 0 0 1 11.312 0l11.315-11.313a24 24 0 0 0-33.942 0ZM454.226 310.059a48 48 0 0 0-67.883 0l11.314 11.314a32 32 0 0 1 45.254 0Z" fill="#FFFFFF" data-original="#000000" opacity="1"></path><path d="m403.313 327.03 11.315 11.313a8 8 0 0 1 11.313 0l11.314-11.313a24 24 0 0 0-33.942 0Z" fill="#FFFFFF" data-original="#000000" opacity="1"></path><circle cx="256" cy="416" r="8.5" fill="#FFFFFF" data-original="#000000" opacity="1"></circle><path d="M184 96h144a8 8 0 0 0 8-8V38a14.015 14.015 0 0 0-14-14H190a14.015 14.015 0 0 0-14 14v50a8 8 0 0 0 8 8Zm104-16h-64v-8h64Zm-96-40h128v40h-16V64a8 8 0 0 0-8-8h-80a8 8 0 0 0-8 8v16h-16ZM480 120h-96a16.019 16.019 0 0 0-16 16v16h-32a8 8 0 0 0-7.353 4.849l-18.2 42.477A55.858 55.858 0 0 0 280 184.573V168a8 8 0 0 0-3.562-6.656L232 131.719V112h-16v24a8 8 0 0 0 3.562 6.656L264 172.281v12.3a55.616 55.616 0 0 0-21.026 7.481l-45.852-38.21A8 8 0 0 0 192 152h-64v-40a16.019 16.019 0 0 0-16-16H32a16.019 16.019 0 0 0-16 16v120a8 8 0 0 0 8 8h96a8 8 0 0 0 8-8v-64h61.1l41.343 34.453a56.224 56.224 0 0 0-5.152 6.636 40.04 40.04 0 0 0-46.623 24.517A55.95 55.95 0 0 0 136.581 296H120a8 8 0 0 0-6.4 3.2l-20.363 27.15-9.268-5.3a8 8 0 0 0-7.938 0l-56 32A8 8 0 0 0 24 368v64a8 8 0 0 0 8 8h96a8 8 0 0 0 8-8v-64a8 8 0 0 0 3.969-14.946l-32.732-18.7L124 312h17.414A56.069 56.069 0 0 0 192 344h8v122a22.025 22.025 0 0 0 22 22h68a22.025 22.025 0 0 0 22-22V344h8a56 56 0 0 0 7.5-111.5 55.561 55.561 0 0 0-5.931-18.518L341.275 168H368v32a16.019 16.019 0 0 0 16 16h20.9l-4.49 13.47A8 8 0 0 0 408 240h48a8 8 0 0 0 7.589-10.53L459.1 216H480a16.019 16.019 0 0 0 16-16v-64a16.019 16.019 0 0 0-16-16ZM112 224H32v-16h80Zm0-32H32v-80h80ZM80 337.214 105.875 352h-51.75ZM88 424H72v-24h16Zm32-56v56h-16v-32a8 8 0 0 0-8-8H64a8 8 0 0 0-8 8v32H40v-56Zm152-120a8 8 0 1 1-8 8 8.009 8.009 0 0 1 8-8Zm24 218a6.006 6.006 0 0 1-6 6h-68a6.006 6.006 0 0 1-6-6v-10h80Zm0-26h-80v-96h80Zm0-112h-80v-10a6.006 6.006 0 0 1 6-6h68a6.006 6.006 0 0 1 6 6Zm64-40a40.045 40.045 0 0 1-40 40h-8v-10a22.025 22.025 0 0 0-22-22h-68a22.025 22.025 0 0 0-22 22v10h-8a40 40 0 0 1-5.938-79.559 8 8 0 0 0 6.6-6.051 24 24 0 0 1 33.05-16.334 8 8 0 0 0 10.415-3.764A39.758 39.758 0 0 1 264 200.806v32.57a24 24 0 1 0 16 0v-32.571A40.067 40.067 0 0 1 312 240a8 8 0 0 0 8 8 40.045 40.045 0 0 1 40 40Zm24-152h96l.006 40H384Zm35.1 88 2.666-8h20.468l2.666 8Zm60.9-24h-96v-8h96.009v8Z" fill="#FFFFFF" data-original="#000000" opacity="1"></path><path d="M72 184a32 32 0 1 0-32-32 32.036 32.036 0 0 0 32 32Zm0-48a16 16 0 1 1-16 16 16.019 16.019 0 0 1 16-16ZM184 264h16v16h-16zM216 264h16v16h-16zM312 264h16v16h-16zM489.94 384.239l-28.731-7.183a3.632 3.632 0 0 0-.458-.352l-14.095-21.142A8 8 0 0 0 440 352h-56a8 8 0 0 0-6.656 3.562l-16 24A7.993 7.993 0 0 0 360 384v40a8 8 0 0 0 8 8h9.376a24 24 0 0 0 45.248 0h10.752a24 24 0 0 0 45.248 0H488a8 8 0 0 0 8-8v-32a8 8 0 0 0-6.06-7.761ZM441.052 376H416v-8h19.719Zm-52.771-8H400v8h-17.052ZM400 432a8 8 0 1 1 8-8 8.009 8.009 0 0 1-8 8Zm56 0a8 8 0 1 1 8-8 8.009 8.009 0 0 1-8 8Zm24-16h-1.376a24 24 0 0 0-45.248 0h-10.752a24 24 0 0 0-45.248 0H376v-24h79.015L480 398.246Z" fill="#FFFFFF" data-original="#000000" opacity="1"></path></g></svg>