<svg xmlns="http://www.w3.org/2000/svg" version="1.1" xmlns:xlink="http://www.w3.org/1999/xlink" xmlns:svgjs="http://svgjs.com/svgjs" width="512" height="512" x="0" y="0" viewBox="0 0 480 480" style="enable-background:new 0 0 512 512" xml:space="preserve" class=""><g><path d="M141.488 80.367A7.991 7.991 0 0 0 136 87.961v32.078a7.991 7.991 0 0 0 5.488 7.594l17.414 5.765 3 7.235-7.343 15.472a8.003 8.003 0 0 0 .714 8.07 104.117 104.117 0 0 0 24.559 24.56 7.998 7.998 0 0 0 8.07.714l15.153-7.191a85.89 85.89 0 0 0 7.664 3.183l5.656 17.079a7.977 7.977 0 0 0 7.586 5.48h32.078a7.991 7.991 0 0 0 7.594-5.488l5.656-17.078a86.792 86.792 0 0 0 7.664-3.176l15.152 7.183a8.02 8.02 0 0 0 8.07-.714 104.117 104.117 0 0 0 24.56-24.559 7.994 7.994 0 0 0 .714-8.07l-7.191-15.153a85.89 85.89 0 0 0 3.183-7.664l17.079-5.656a7.977 7.977 0 0 0 5.48-7.586V87.961a7.991 7.991 0 0 0-5.488-7.594l-17.078-5.656a86.792 86.792 0 0 0-3.176-7.664l7.183-15.152a8.003 8.003 0 0 0-.714-8.07 104.117 104.117 0 0 0-24.559-24.56 7.995 7.995 0 0 0-8.07-.714l-15.153 7.183a86.792 86.792 0 0 0-7.664-3.175L263.625 5.48A7.977 7.977 0 0 0 256.039 0h-32.078a7.991 7.991 0 0 0-7.594 5.488l-5.765 17.414-7.235 3-15.472-7.343a8.003 8.003 0 0 0-8.07.714 104.117 104.117 0 0 0-24.56 24.559 7.994 7.994 0 0 0-.714 8.07l7.351 15.473-3.007 7.234zm25.91 8.274a8.019 8.019 0 0 0 4.875-4.52l5.774-13.898a7.993 7.993 0 0 0-.168-6.496l-6.8-14.313a88.23 88.23 0 0 1 14.32-14.324l14.312 6.797c2.059.976 4.426 1.043 6.496.168l13.898-5.766a7.966 7.966 0 0 0 4.528-4.875L229.743 16h20.515l5.101 15.398a8.008 8.008 0 0 0 5.266 5.145 70.31 70.31 0 0 1 12.465 5.168 8.06 8.06 0 0 0 7.191.168l14.313-6.8a89.088 89.088 0 0 1 14.328 14.327l-6.8 14.313a7.987 7.987 0 0 0 .167 7.191 69.21 69.21 0 0 1 5.168 12.465 7.976 7.976 0 0 0 5.145 5.266L328 93.742v20.516l-15.398 5.101a8.008 8.008 0 0 0-5.145 5.266 69.363 69.363 0 0 1-5.168 12.453 8.012 8.012 0 0 0-.168 7.203l6.8 14.313a88.41 88.41 0 0 1-14.32 14.328l-14.312-6.8a7.938 7.938 0 0 0-7.191.167 69.21 69.21 0 0 1-12.465 5.168 7.976 7.976 0 0 0-5.266 5.145L250.257 192h-20.515l-5.101-15.398a8.008 8.008 0 0 0-5.266-5.145 69.363 69.363 0 0 1-12.453-5.168 7.928 7.928 0 0 0-7.203-.168l-14.313 6.8a88.41 88.41 0 0 1-14.328-14.32l6.8-14.312a8.025 8.025 0 0 0 .169-6.496l-5.766-13.898a7.966 7.966 0 0 0-4.875-4.528L152 114.257V93.743zm0 0" fill="#FFFFFF" data-original="#000000" opacity="1" class=""></path><path d="M240 156c28.672 0 52-23.328 52-52s-23.328-52-52-52-52 23.328-52 52 23.328 52 52 52zm0-88c19.848 0 36 16.152 36 36s-16.152 36-36 36-36-16.152-36-36 16.152-36 36-36zM134.688 1.07l-48 8 2.624 15.785 26.833-4.472C97.87 45.938 88 76.527 88 108.48c0 39.368 15 76.68 42.223 105.063l11.547-11.078C117.414 177.078 104 143.695 104 108.48c0-35.222 13.414-68.601 37.777-93.976a8.006 8.006 0 0 0 1.301-9.274c-1.613-3.062-5.023-4.71-8.39-4.16zM349.777 3.426 338.23 14.504C362.586 39.87 376 73.246 376 108.48c0 35.215-13.414 68.598-37.777 93.985a8 8 0 0 0 8.168 13.168l48-15.04-4.782-15.265-22.953 7.184C383.136 167.809 392 138.754 392 108.48c0-39.375-15-76.68-42.223-105.054zM224 352H96v-32a7.986 7.986 0 0 0-4.742-7.305 7.994 7.994 0 0 0-8.61 1.36l-80 72C.961 387.566 0 389.735 0 392s.96 4.434 2.648 5.945l80 72a7.994 7.994 0 0 0 8.61 1.36A7.986 7.986 0 0 0 96 464v-24h128c4.426 0 8-3.574 8-8v-72c0-4.426-3.574-8-8-8zm-8 72H88a7.99 7.99 0 0 0-8 8v14.04L19.96 392 80 337.96V360c0 4.426 3.574 8 8 8h128zM397.352 234.055a7.975 7.975 0 0 0-8.61-1.36A7.986 7.986 0 0 0 384 240v24H256a7.99 7.99 0 0 0-8 8v72c0 4.426 3.574 8 8 8h128v32a7.986 7.986 0 0 0 4.742 7.305 7.994 7.994 0 0 0 8.61-1.36l80-72c1.687-1.511 2.648-3.68 2.648-5.945s-.96-4.434-2.648-5.945zM400 366.039V344c0-4.426-3.574-8-8-8H264v-56h128c4.426 0 8-3.574 8-8v-14.04L460.04 312zM256 424h72v16h-72zM256 384h72v16h-72zM344 384h16v16h-16zM344 424h16v16h-16zM152 264h72v16h-72zM152 304h72v16h-72zM120 304h16v16h-16zM120 264h16v16h-16zm0 0" fill="#FFFFFF" data-original="#000000" opacity="1" class=""></path></g></svg>