<svg xmlns="http://www.w3.org/2000/svg" version="1.1" xmlns:xlink="http://www.w3.org/1999/xlink" xmlns:svgjs="http://svgjs.com/svgjs" width="512" height="512" x="0" y="0" viewBox="0 0 64 64" style="enable-background:new 0 0 512 512" xml:space="preserve" class=""><g><path d="M60 50h-6a1 1 0 0 1-1-1v-1h-2v1c0 1.654 1.346 3 3 3h6a1 1 0 0 1 0 2H44.899c.066.323.101.658.101 1 0 .352-.072.686-.184 1H60c1.654 0 3-1.346 3-3s-1.346-3-3-3zM40 52h-1.764c-.499 0-.986.089-1.452.239A3.423 3.423 0 0 1 39 55.433c0 .192-.02.381-.052.566H42a1 1 0 0 0 1-1A3.003 3.003 0 0 0 40 52zM61 43v-3H18.37c-.422.327-.941.572-1.37.731v1.503a11.792 11.792 0 0 1 6.488 3.765H58c1.654.001 3-1.345 3-2.999zm-10 1h-2v-2h2zm4 0h-2v-2h2zm2-2h2v2h-2zM12.553 24.657a2.984 2.984 0 0 1 2.684-1.658h1.592A3.004 3.004 0 0 0 14.001 21H10c-2.757 0-5 2.243-5 5v.999h6.382zM38.236 50H40c.342 0 .677.035 1 .101V48h-8v4.476C34.238 50.95 36.187 50 38.236 50zM24.414 58.91l-.828-1.82 1.33-.605-.593-4.147C23.645 47.584 19.512 44 14.711 44 9.356 44 5 48.356 5 53.711V61h15.043a8.26 8.26 0 0 1-2.559-3.906l-1.442-4.807 1.916-.574L19.4 56.52A6.248 6.248 0 0 0 25.421 61c.904 0 1.779-.189 2.601-.563l3.484-1.584-1.171-2.634zM35.566 54c-.243 0-.447.044-.632.128l-2.778 1.263 1.171 2.635 2.831-1.287c.512-.233.842-.745.842-1.305 0-.79-.644-1.434-1.434-1.434zM5 28.999v2.676a7.757 7.757 0 0 0 4 6.783v-3.043l-.646-.646A4.657 4.657 0 0 1 7 31.5c0-.902.262-1.761.741-2.501zM18.085 21.148c.385.55.676 1.17.815 1.851H21c1.654 0 3 1.346 3 3s-1.346 3-3 3h-1.895l.74 7.399A4.167 4.167 0 0 1 19.677 38H61V17a2.993 2.993 0 0 0-2.063-2.835C58.353 19.684 53.672 24 48 24c-5.728 0-10.442-4.402-10.949-10H22.797a10.915 10.915 0 0 1-4.712 7.148zM59 36H42v-2h17zM38 26h21v2H38zm0 4h21v2H38zm0 4h2v2h-2zm-3 1h-8v-6h8zm-9-19h10v2H26zm0 4h10v2H26zm0 4h10v2H26zM7.197 19.59A6.956 6.956 0 0 1 10 19h4.001c.944 0 1.823.269 2.577.726C19.311 18.106 21 15.207 21 12c0-4.962-4.037-9-9-9s-9 4.038-9 9c0 3.09 1.604 5.945 4.197 7.59zM5 11h3.618l1.196 2.394L13 3.838 15.721 12H19v2h-4.721L13 10.162l-2.814 8.444L7.382 13H5z" fill="#FFFFFF" data-original="#000000" opacity="1" class=""></path><path d="M48 22c4.963 0 9-4.038 9-9s-4.037-9-9-9-9 4.038-9 9 4.037 9 9 9zM46 8h8v2h-8zm0 4h8v2h-8zm0 4h8v2h-8zm-4-8h2v2h-2zm0 4h2v2h-2zm0 4h2v2h-2zM14.711 42c.097 0 .192.011.289.013v-2.792l.755-.192c.434-.11 1.2-.398 1.471-.669a2.174 2.174 0 0 0 .629-1.762l-.76-7.6h-6.68l-.647.647A2.608 2.608 0 0 0 9 31.5c0 .69.28 1.366.768 1.854L11 34.586v8.027A11.634 11.634 0 0 1 14.711 42zM14.342 25.552l-.724 1.447H21a1.001 1.001 0 0 0 0-2h-5.764a.993.993 0 0 0-.894.553z" fill="#FFFFFF" data-original="#000000" opacity="1" class=""></path></g></svg>