<svg xmlns="http://www.w3.org/2000/svg" version="1.1" xmlns:xlink="http://www.w3.org/1999/xlink" xmlns:svgjs="http://svgjs.com/svgjs" width="512" height="512" x="0" y="0" viewBox="0 0 512 512" style="enable-background:new 0 0 512 512" xml:space="preserve" class=""><g><path d="M497 30H15C6.716 30 0 36.716 0 45v422c0 8.284 6.716 15 15 15h482c8.284 0 15-6.716 15-15V45c0-8.284-6.716-15-15-15zM361 196c0 8.284-6.716 15-15 15h-30c-8.284 0-15-6.716-15-15s6.716-15 15-15h30c8.284 0 15 6.716 15 15zm-73.18-53.033 21.213-21.213c5.858-5.858 15.354-5.858 21.213 0 5.857 5.857 5.857 15.355 0 21.213l-21.213 21.213c-5.857 5.857-15.354 5.86-21.213 0-5.858-5.858-5.858-15.356 0-21.213zm-.001 84.853c5.858-5.857 15.356-5.857 21.213 0l21.213 21.213c5.858 5.857 5.858 15.355 0 21.213-5.859 5.858-15.355 5.858-21.213 0l-21.213-21.213c-5.857-5.857-5.857-15.355 0-21.213zM241 106c0-8.284 6.716-15 15-15s15 6.716 15 15v30c0 8.284-6.716 15-15 15s-15-6.716-15-15zm0 150c0-8.284 6.716-15 15-15s15 6.716 15 15v30c0 8.284-6.716 15-15 15s-15-6.716-15-15zm-59.247-134.246c5.858-5.857 15.356-5.857 21.213 0l21.213 21.213c5.858 5.857 5.858 15.355 0 21.213-5.859 5.858-15.355 5.858-21.213 0l-21.213-21.213c-5.857-5.858-5.857-15.356 0-21.213zm42.427 127.279-21.213 21.213c-5.857 5.857-15.354 5.86-21.213 0-5.857-5.857-5.857-15.355 0-21.213l21.213-21.213c5.858-5.858 15.355-5.858 21.213 0s5.858 15.356 0 21.213zM166 181h30c8.284 0 15 6.716 15 15s-6.716 15-15 15h-30c-8.284 0-15-6.716-15-15s6.716-15 15-15zm240 240H106c-24.813 0-45-20.187-45-45s20.187-45 45-45h300c24.813 0 45 20.187 45 45s-20.187 45-45 45z" fill="#FFFFFF" data-original="#000000" opacity="1" class=""></path><path d="M91 376c0 8.271 6.729 15 15 15h75v-30h-75c-8.271 0-15 6.729-15 15zM406 361H211v30h195c8.271 0 15-6.729 15-15s-6.729-15-15-15z" fill="#FFFFFF" data-original="#000000" opacity="1" class=""></path></g></svg>