<svg xmlns="http://www.w3.org/2000/svg" version="1.1" xmlns:xlink="http://www.w3.org/1999/xlink" xmlns:svgjs="http://svgjs.com/svgjs" width="512" height="512" x="0" y="0" viewBox="0 0 64 64" style="enable-background:new 0 0 512 512" xml:space="preserve" class=""><g><path d="m33.67 55.21 8.109-7.096a16.823 16.823 0 0 0-5.057-2.45l.555-1.922c2.194.633 4.214 1.663 6.041 3.025l1.536-1.344c-1.866-1.451-3.929-2.586-6.173-3.338l.636-1.896c1.303.437 2.547.999 3.739 1.654A20.97 20.97 0 0 0 48.467 37H45v-2h4.861a21.026 21.026 0 0 0 3.105-10H43v-1a24.13 24.13 0 0 0-2.624-11H23.624A24.13 24.13 0 0 0 21 24v1h-9.967a21.026 21.026 0 0 0 3.105 10H19v2h-3.468a20.97 20.97 0 0 0 5.406 4.84 22.948 22.948 0 0 1 3.744-1.651l.636 1.896A20.98 20.98 0 0 0 11.023 61h2.018c.427-8.006 5.924-15.019 13.681-17.257l.555 1.922C20.371 47.657 15.466 53.88 15.042 61H25.08c.488-3.387 3.401-6 6.92-6 .577 0 1.134.078 1.67.21zm-14.9-23.572-1.54-1.276C21.163 25.614 26.408 23 32 23s10.837 2.614 14.77 7.362l-1.54 1.276C41.684 27.357 36.985 25 32 25s-9.684 2.357-13.23 6.638zm4 4-1.54-1.276C24.095 30.904 27.919 29 32 29s7.905 1.904 10.77 5.362l-1.54 1.276C38.752 32.647 35.474 31 32 31s-6.752 1.647-9.23 4.638zm4 4-1.54-1.275C27.026 36.194 29.43 35 32 35s4.974 1.194 6.77 3.362l-1.54 1.275C35.821 37.937 33.963 37 32 37s-3.821.937-5.23 2.638zM29 44c0-1.654 1.346-3 3-3s3 1.346 3 3-1.346 3-3 3-3-1.346-3-3z" fill="#FFFFFF" data-original="#000000" opacity="1" class=""></path><path d="M21.364 13h-7.218a20.833 20.833 0 0 0-3.095 10h7.967a26.183 26.183 0 0 1 2.346-10zM28.655 3.292A20.986 20.986 0 0 0 15.539 11h6.836c1.966-3.514 4.413-6.077 6.28-7.708zM41.625 11h6.836a20.983 20.983 0 0 0-13.116-7.708c1.867 1.631 4.314 4.194 6.28 7.708zM44.982 23h7.967a20.823 20.823 0 0 0-3.095-10h-7.218a26.183 26.183 0 0 1 2.346 10zM39.248 11C36.583 6.722 33.265 4.107 32 3.207c-1.265.9-4.583 3.515-7.248 7.793zM49 45.454c0-.361-.482-.58-.753-.341L35.715 56.078a7.046 7.046 0 0 1 2.207 2.207l10.966-12.532a.458.458 0 0 0 .112-.299zM47.236 50.677A19.026 19.026 0 0 1 50.956 61h2.019a20.974 20.974 0 0 0-4.395-11.861zM38.79 60.33c.054.22.097.443.13.67h10.037a17.023 17.023 0 0 0-3.066-8.785zM32 57a5.01 5.01 0 0 0-4.899 4h9.798A5.01 5.01 0 0 0 32 57zM1 13h2v22H1zM5 19h2v10H5zM61 13h2v22h-2zM57 19h2v10h-2z" fill="#FFFFFF" data-original="#000000" opacity="1" class=""></path></g></svg>