<svg xmlns="http://www.w3.org/2000/svg" version="1.1" xmlns:xlink="http://www.w3.org/1999/xlink" xmlns:svgjs="http://svgjs.com/svgjs" width="512" height="512" x="0" y="0" viewBox="0 0 512 512" style="enable-background:new 0 0 512 512" xml:space="preserve" class=""><g><path d="M224.242 208.698c-5.859 5.859-5.859 15.352 0 21.211s15.352 5.859 21.211 0c1.655-1.641 5.215-4.409 10.547-4.409s8.892 2.769 10.547 4.409c5.859 5.859 15.351 5.86 21.211 0 5.859-5.859 5.859-15.352 0-21.211-4.922-4.936-15.601-13.198-31.758-13.198s-26.836 8.262-31.758 13.198zM256 15.5c-60.088 0-116.602 23.438-159.111 65.977-5.859 5.859-5.859 15.366 0 21.211 5.859 5.859 15.352 5.859 21.211 0C154.955 65.803 203.925 45.5 256 45.5s101.045 20.303 137.9 57.188c5.859 5.859 15.351 5.86 21.211 0 5.859-5.845 5.859-15.352 0-21.211C372.602 38.938 316.088 15.5 256 15.5z" fill="#FFFFFF" data-original="#000000" opacity="1"></path><path d="M372.66 145.095c5.859-5.845 5.859-15.352 0-21.211C341.488 92.683 300.063 75.5 256 75.5s-85.488 17.183-116.66 48.384c-5.859 5.859-5.859 15.366 0 21.211 5.859 5.859 15.352 5.859 21.211 0C186.068 119.563 219.95 105.5 256 105.5s69.932 14.063 95.449 39.595c5.859 5.859 15.352 5.859 21.211 0z" fill="#FFFFFF" data-original="#000000" opacity="1"></path><path d="M330.209 187.502c5.859-5.845 5.859-15.352 0-21.211-39.668-39.697-108.75-39.697-148.418 0-5.859 5.859-5.859 15.366 0 21.211 5.859 5.859 15.352 5.859 21.211 0 28.359-28.389 77.637-28.389 105.996 0 5.859 5.859 15.351 5.859 21.211 0zM467 285.5H45c-24.814 0-45 20.186-45 45v90c0 24.814 20.186 45 45 45h15v16c0 8.291 6.709 15 15 15s15-6.709 15-15v-16h332v16c0 8.291 6.709 15 15 15s15-6.709 15-15v-16h15c24.814 0 45-20.186 45-45v-90c0-24.814-20.186-45-45-45zm-135 105c0 8.291-6.709 15-15 15s-15-6.709-15-15v-30c0-8.291 6.709-15 15-15s15 6.709 15 15zm60 0c0 8.291-6.709 15-15 15s-15-6.709-15-15v-30c0-8.291 6.709-15 15-15s15 6.709 15 15zm60 0c0 8.291-6.709 15-15 15s-15-6.709-15-15v-30c0-8.291 6.709-15 15-15s15 6.709 15 15zM10.097 76.716C2.479 79.982-1.051 88.801 2.216 96.403L70.401 255.5h32.628L29.784 84.597c-3.266-7.647-12.173-11.192-19.687-7.881zM441.599 255.5l68.185-159.097c3.267-7.603-.264-16.421-7.881-19.688-7.573-3.281-16.421.249-19.688 7.881L408.972 255.5z" fill="#FFFFFF" data-original="#000000" opacity="1"></path></g></svg>