<?xml version="1.0" encoding="utf-8"?>
<!-- Generator: Adobe Illustrator 24.2.1, SVG Export Plug-In . SVG Version: 6.00 Build 0)  -->
<svg version="1.1" id="Layer_1" xmlns="http://www.w3.org/2000/svg" xmlns:xlink="http://www.w3.org/1999/xlink" x="0px" y="0px"
	 viewBox="0 0 449.9 114" style="enable-background:new 0 0 449.9 114;" xml:space="preserve">
<style type="text/css">
	.st0{fill:#2E3192;stroke:#2E3192;stroke-width:1.2671;}
	.st1{fill:#0072BC;stroke:#0072BC;stroke-width:1.2671;}
	.st2{fill:none;stroke:#808285;stroke-width:1.5203;}
	.st3{fill:#808285;}
	.st4{fill:url(#SVGID_1_);}
	.st5{fill:url(#SVGID_2_);}
	.st6{fill:url(#SVGID_3_);}
	.st7{fill:#E6E7E8;}
</style>
<g>
	<path class="st0" d="M131.2,60.8h-9.7l-21.1-26.6c-0.3-0.4-0.9-1.1-1.6-2c-0.3-0.4-0.8-1-1.5-1.9v30.5h-8.1V19.1h11.1l19.4,24.5
		c0.2,0.2,1.3,1.7,3.5,4.5v-29h7.9L131.2,60.8L131.2,60.8z"/>
	<path class="st0" d="M169,51l8.4,0.9c-1.1,2.8-3.2,5.1-6.3,6.9c-3.1,1.8-7.1,2.7-11.8,2.7c-5.7,0-10.3-1.4-13.7-4.3
		c-3.5-2.9-5.2-6.8-5.2-11.7c0-4.7,1.7-8.5,5.2-11.6s8.2-4.6,14.2-4.6c5.9,0,10.4,1.5,13.6,4.5c3.2,3,4.8,6.9,4.8,11.6v0.8H150
		c0,2.1,0.3,3.8,0.8,5c0.5,1.3,1.6,2.4,3.2,3.3c1.6,0.9,3.5,1.4,5.9,1.4C164.3,56,167.4,54.3,169,51z M168.4,41.8
		c0-2.2-0.9-4-2.7-5.4c-1.7-1.4-3.9-2.1-6.5-2.1c-2.5,0-4.7,0.7-6.4,2s-2.7,3.2-3,5.6L168.4,41.8L168.4,41.8z"/>
	<path class="st0" d="M205.1,55.4v5.4c-2.8,0.4-4.9,0.7-6.4,0.7c-2.5,0-4.6-0.4-6.4-1.1c-1.8-0.7-3.1-1.8-3.9-3.1
		c-0.8-1.3-1.2-3.3-1.2-6v-16h-5.1V30h5.7l0.9-8l7.6-0.5V30h8.3v5.4h-8.3v15c0,1.9,0.5,3.2,1.4,4c0.9,0.7,2.7,1.1,5.3,1.1
		C203.5,55.4,204.3,55.4,205.1,55.4z"/>
	<path class="st1" d="M244.3,60.8h-10V19.1H257c6.5,0,11.3,1.2,14.4,3.7s4.7,5.3,4.7,8.7c0,3.8-1.7,6.9-5.1,9.2
		c-3.4,2.4-7.7,3.5-12.9,3.5h-13.9L244.3,60.8L244.3,60.8z M244.3,37.8h11.8c3.1,0,5.5-0.6,7.1-1.7c1.6-1.1,2.4-2.7,2.4-4.5
		c0-1.7-0.8-3.2-2.3-4.4c-1.5-1.2-4.2-1.8-8.2-1.8h-10.9L244.3,37.8L244.3,37.8z"/>
	<path class="st1" d="M298.5,61.4c-6.1,0-10.7-1.6-13.9-4.9c-3.2-3.3-4.8-7-4.8-11.3c0-4.6,1.8-8.3,5.3-11.4c3.5-3,8.2-4.5,14-4.5
		c5.5,0,10,1.5,13.6,4.4c3.5,2.9,5.3,6.8,5.3,11.5c0,4.9-1.8,8.8-5.5,11.7C308.8,60,304.2,61.4,298.5,61.4z M298.9,55.7
		c6.2,0,9.4-3.5,9.4-10.5c0-3.2-0.7-5.6-2.2-7.5c-1.5-1.8-3.8-2.7-6.9-2.7c-3.2,0-5.6,0.9-7.1,2.8c-1.5,1.9-2.3,4.4-2.3,7.5
		c0,3.4,0.8,5.9,2.5,7.7C293.8,54.8,296,55.7,298.9,55.7z"/>
	<path class="st1" d="M335.7,26.4h-9.3v-7.2h9.3V26.4z M335.7,60.8h-9.3V30h9.3V60.8z"/>
	<path class="st1" d="M380.9,60.8h-9.3V41.5c0-2-0.6-3.6-1.9-4.6c-1.2-1-2.8-1.5-4.5-1.5c-2.4,0-4.5,0.8-6.3,2.4
		c-1.8,1.6-2.7,4-2.7,7.2v15.8h-9.3V30h8.5v7.1c3-5.2,7.1-7.8,12.4-7.8c3.6,0,6.7,0.9,9.3,2.6c2.6,1.7,3.8,4.7,3.8,9V60.8z"/>
	<path class="st1" d="M411,55.4v5.4c-2.8,0.4-4.9,0.7-6.4,0.7c-2.5,0-4.6-0.4-6.4-1.1c-1.8-0.7-3.1-1.8-3.9-3.1s-1.2-3.3-1.2-6v-16
		H388V30h5.7l0.9-8l7.6-0.5V30h8.3v5.4H402v15c0,1.9,0.5,3.2,1.4,4c0.9,0.7,2.7,1.1,5.3,1.1C409.5,55.4,410.2,55.4,411,55.4z"/>
</g>
<path class="st2" d="M434,40.8c-1.5,1.3-4,1.3-5.6,0l-11.6-10c-1.5-1.3-1.5-3.5,0-4.8l11.6-10c1.5-1.3,4-1.3,5.6,0l11.6,10
	c1.5,1.3,1.5,3.5,0,4.8L434,40.8z"/>
<g>
	<path class="st3" d="M427.3,27.8c1.1,0.1,1.9,0.3,2.3,0.6c0.5,0.4,0.7,0.9,0.7,1.5c0,0.8-0.4,1.5-1.2,2.1c-0.8,0.6-1.8,0.9-3.1,0.9
		h-0.6c-0.5,0-0.9,0-1.3,0c-0.3,0-0.6,0-0.9,0h-0.6v-0.3c0.3-0.1,0.5-0.2,0.6-0.3s0.1-0.2,0.1-0.3c0-0.5,0.1-1.1,0.1-1.7v-3.9
		c0-1.1,0-1.7-0.1-1.8c-0.1-0.2-0.4-0.2-0.8-0.2H422V24h0.6h0.7c0.4,0,0.6,0,0.9,0s0.9,0,1.9,0h1.1c0.9,0,1.5,0.1,1.9,0.4
		c0.5,0.3,0.8,0.8,0.8,1.4c0,0.5-0.2,0.9-0.6,1.3C428.8,27.3,428.2,27.6,427.3,27.8z M424.8,27.6c0.3,0,0.5,0,0.7,0
		c1,0,1.7-0.1,2.2-0.4c0.4-0.3,0.7-0.7,0.7-1.3c0-0.5-0.2-0.9-0.5-1.1c-0.4-0.3-0.9-0.4-1.7-0.4c-0.4,0-0.7,0-1.2,0.1
		c0,0.5-0.1,1.3-0.1,2.3v0.8H424.8z M424.8,32.3c0.5,0.1,0.9,0.1,1.2,0.1c0.9,0,1.6-0.2,2.1-0.6s0.7-0.9,0.7-1.6
		c0-0.5-0.1-0.8-0.3-1.1c-0.2-0.3-0.5-0.5-0.9-0.7c-0.4-0.1-1-0.2-1.9-0.2c-0.3,0-0.5,0-0.9,0v2.2v0.8c0,0.3,0,0.5,0,0.7
		C424.8,32,424.8,32.1,424.8,32.3z"/>
	<path class="st3" d="M432.6,32.3c0.1-0.7,0.1-1.8,0.1-3.4V27c0-0.7,0-1.4-0.1-1.9c0-0.3-0.1-0.5-0.1-0.5c-0.1-0.1-0.3-0.1-0.6-0.1
		l-0.6-0.1V24c0.8,0,1.4,0,1.7,0h2h1.7c0.7,0,1.3,0,2,0.2c0.7,0.1,1.3,0.4,1.9,0.7c0.6,0.4,1,0.8,1.3,1.3s0.4,1.2,0.4,1.9
		c0,1.4-0.6,2.6-1.7,3.5S438,33,436.1,33h-0.9c-0.9,0-1.5,0-1.7,0c-0.4,0-0.9,0-1.6,0.1v-0.3L432.6,32.3z M434.2,32.2
		c0.7,0.1,1.3,0.1,1.8,0.1c1.4,0,2.5-0.3,3.3-0.9c0.9-0.7,1.4-1.8,1.4-3.2c0-1.2-0.4-2.2-1.2-2.8c-0.8-0.6-1.9-1-3.4-1
		c-0.5,0-1.2,0-1.9,0.1c-0.1,0.4-0.1,0.9-0.1,1.4V30C434.1,30.9,434.2,31.6,434.2,32.2z"/>
</g>
<g>
	
		<linearGradient id="SVGID_1_" gradientUnits="userSpaceOnUse" x1="73.1301" y1="91.7342" x2="-3.4295" y2="51.6927" gradientTransform="matrix(1 0 0 -1 0 113.8898)">
		<stop  offset="0" style="stop-color:#00C0F3"/>
		<stop  offset="1" style="stop-color:#0083CA"/>
	</linearGradient>
	<path class="st4" d="M71.2,20.7V0C57.4,3.7-25.1,36.5,11.7,80.3C2.1,56.6,22.6,32.5,71.2,20.7z"/>
	
		<linearGradient id="SVGID_2_" gradientUnits="userSpaceOnUse" x1="71.8026" y1="66.5083" x2="12.8007" y2="35.6496" gradientTransform="matrix(1 0 0 -1 0 113.8898)">
		<stop  offset="0" style="stop-color:#00C0F3"/>
		<stop  offset="1" style="stop-color:#0083CA"/>
	</linearGradient>
	<path class="st5" d="M71.2,53.2V32c-16.1,3.5-81,27.5-45.3,59.3C17.8,76.6,33,57.3,71.2,53.2z"/>
	
		<linearGradient id="SVGID_3_" gradientUnits="userSpaceOnUse" x1="70.0476" y1="42.9286" x2="29.4503" y2="21.6957" gradientTransform="matrix(1 0 0 -1 0 113.8898)">
		<stop  offset="0" style="stop-color:#00C0F3"/>
		<stop  offset="1" style="stop-color:#0083CA"/>
	</linearGradient>
	<path class="st6" d="M71.4,81.3V63.8c-9,2-67.9,16.8-29.2,33.9C41.3,93.8,34.5,84.4,71.4,81.3z"/>
	<path class="st7" d="M74.5,101c0,0.9-14.6,1.6-32.7,1.6c-18,0-32.7-0.7-32.7-1.6s14.6-1.6,32.7-1.6S74.5,100.1,74.5,101z"/>
</g>
<g>
	<path class="st3" d="M100.1,98.1c0.7,0,1.6,0.1,2.7,0.1c2.1,0,9-0.4,11.7-2.9c0.6-0.5,1.3-1.4,1.3-2.7c0-3.2-3.4-4-5.9-4.6
		c-1.8-0.4-5.5-1.3-6.9-1.9c-2.2-1-2.4-2.9-2.4-3.4c0-5,9.6-11.5,16.2-11.5c3.1,0,3.2,1.9,3.2,2.4c0,1.9-3.1,5-5.5,6.7l-0.4-0.5
		c1.4-1,2-2.1,2-3.2c0-2-2.1-2.8-3.8-2.8c-3.3,0-7.7,2.3-7.7,5.8c0,2.3,1.7,3.2,4.9,4c5.9,1.5,7,1.7,8.2,2.9
		c0.7,0.7,1.3,1.8,1.3,2.9c0,2.3-1.7,4.8-3.9,6.6c-4.7,3.9-12.5,5.2-17.4,5.2c-4.6,0-10.2-1-10.2-1.5c0-0.1,0.1-0.2,0.2-0.2
		c0.9-0.6,2.6-2,4-3.1c2.9,0.3,4.4,0.4,6.6,0.4c1.5,0,2.3,0,3-0.1L100.1,98.1z"/>
	<path class="st3" d="M121.6,90.9c-0.2,0-0.2-0.2-0.2-0.2s0.8-1.5,1.1-1.5h1.7l1.7-4.8l3.1-0.7c0.4-0.1,0.4,0.2,0.4,0.4l-2,5.1h2
		c0.1,0,0.2,0,0.2,0.1c0,0-0.7,1.6-1,1.6h-1.7l-1.7,5c-0.2,0.4-0.4,1.1-0.4,1.6c0,1.6,2.4,1.6,2.7,1.6c0.4,0,1.4-0.1,2.2-0.2v0.5
		c-2.4,0.8-5,1.6-6.6,1.6c-1.1,0-1.9-0.6-1.9-2c0-1.8,1.7-6.2,2.5-8.1H121.6z"/>
	<path class="st3" d="M145.4,99.3c-1.1,0.4-5.5,1.7-6.4,1.7c-0.8,0-1.4-0.6-1.4-1.3c0-0.6,0.9-2.9,1.3-3.7c-2.8,4-5.9,5-6.9,5
		c-1.2,0-1.9-1.1-1.9-2.2c0-1.5,1.1-4.5,4.5-7c3.1-2.2,6.5-3.1,7.8-3.1c0.2,0,2.7,0.2,2.7,0.7s-3.6,7.4-3.6,8.4
		c0,1.1,1.1,1.1,1.6,1.1c0.1,0,1,0,2.5-0.2v0.6H145.4z M138.2,90.8c-1.9,0-2.5,1-3.1,2.4c-0.4,1.2-1.2,3.3-1.2,4.4
		c0,0.7,0.4,1.2,1.1,1.2c1.7,0,3.3-3,5.8-7.6C140,91,138.9,90.8,138.2,90.8z"/>
	<path class="st3" d="M156,99.3c-2.1,0.7-5.5,1.7-7.5,1.7c-0.5,0-2.2,0-2.2-1.8c0-1.6,1.3-2.8,2.5-3.8c1.5-1.3,3.5-2.8,4.6-3.5
		c-0.4,0-2.3,0.1-2.5,0.1c-0.2,0.1-0.2,0.2-0.4,0.6c-0.1,0.2-0.2,0.4-0.8,0.6c-0.2,0-1.7,0.5-1.7,0.5s-0.1,0-0.1-0.1
		s0.5-1.1,0.5-1.3c0-0.2-0.4-0.8-0.4-0.9c0-0.4,0.6-2.9,1.9-3.5c0.3-0.2,1.7-0.4,2-0.6c0.1,0,0.5-0.2,0.6-0.2s0.2,0.1,0.2,0.2
		c0,0-0.8,2.3-0.9,2.5c1.9-0.2,2.3-0.2,4.2-0.2v0.6c-1,0.9-1.9,1.7-3.5,3.6c-1.4,1.6-1.9,2.3-1.9,3.3c0,2.1,2,2.1,2.7,2.1
		c0.9,0,1.9-0.1,2.7-0.3L156,99.3z"/>
	<path class="st3" d="M158.4,90.9c-0.2,0-0.2-0.2-0.2-0.2s0.8-1.5,1.1-1.5h1.7l1.7-4.8l3.1-0.7c0.4-0.1,0.4,0.2,0.4,0.4l-2,5.1h2
		c0.1,0,0.2,0,0.2,0.1c0,0-0.7,1.6-1,1.6h-1.7l-1.7,5c-0.2,0.4-0.4,1.1-0.4,1.6c0,1.6,2.4,1.6,2.7,1.6c0.4,0,1.4-0.1,2.2-0.2v0.5
		c-2.4,0.8-5,1.6-6.6,1.6c-1.1,0-1.9-0.6-1.9-2c0-1.8,1.7-6.2,2.5-8.1H158.4z"/>
	<path class="st3" d="M207.5,95.3c-0.2,0.1-4.7,1.1-7.7,2.4c-4.4,7.9-13,10.3-17.2,10.3c-1.6,0-2.7-0.3-3.3-0.5
		c-0.8,0.2-1.5,0.5-2.5,0.5c-0.2,0-1.6,0-1.6-0.8c0-1.1,3.7-3.6,5.2-3.6c0.2,0,0.4,0,1.3,0.2c6.7-2.7,11-4.2,14.8-5.6
		c0.7-1.7,1-2.7,2-6.9c-2.3,3.5-6.4,6.3-9.6,6.3c-2.3,0-5.4-1.5-5.4-6.2c0-2.1,1.1-11.3,1.1-13.1c0-2.1-0.5-2.9-0.8-3.4
		c0.9-0.4,2.2-1,3.5-1.7c0,0,1.2-0.8,1.3-0.8c0.4,0,0.4,2.3,0.4,2.7c0,1.7-0.2,3.9-0.5,6c-1.1,7.6-1.1,7.7-1.1,9.1
		c0,0.6,0,5.4,4.1,5.4c4.8,0,6.9-5.8,9.2-12.1c1-2.8,2-5.7,2.8-8.6c0.1-0.5,0.3-0.6,1.7-0.9c0.5-0.1,1.8-0.6,2.4-0.8
		c0.5-0.2,0.5-0.3,0.6-0.3s0.2,0.1,0.2,0.2c0,0.2-1.3,3.2-1.5,3.8c-1,2.8-1.4,4.1-5,15.5c-0.5,1.5-1,3-1.5,4.3
		c3.5-1.1,3.8-1.2,7.1-2.1V95.3z M184.8,104.6c2.1,0.7,3.7,0.7,4,0.7c4.8,0,6.3-3.9,7.3-6.2C194.5,99.6,190.4,101.4,184.8,104.6z"/>
	<path class="st3" d="M220.3,90.1c0,0.3-0.5,1-0.8,1.2c0.7,4.9-5,9.7-9,9.7c-1.8,0-3.1-1.1-3.1-2.9c0-3.4,2.9-5.8,5.9-7.4
		c-0.3-0.1-0.7-0.3-0.7-0.6c0-0.3,0.3-0.4,1.5-0.6c0.4-0.1,0.7-0.2,1.2-0.4c1-0.4,1.2-0.4,1.5-0.4c1.1,0,1.7,0.8,2,1.2
		C220.1,89.9,220.3,89.9,220.3,90.1z M214,90.9c-1.1,0.9-2.9,3.2-2.9,5.7c0,1.3,0.4,2.9,2.2,2.9c1.9,0,2.9-2.1,2.9-4.9
		c0-0.5,0-2.4-1.1-3.3C214.8,91.2,214.4,91.1,214,90.9z"/>
	<path class="st3" d="M236.2,99.1c-1.3,0.5-5.2,2-6.3,2c-0.6,0-1.4-0.5-1.4-1.3c0-0.9,0.5-2.2,1.1-3.7c-0.9,1.2-1.9,2.6-3.5,3.7
		c-1,0.7-2.4,1.3-3.5,1.3c-0.8,0-1.5-0.5-1.5-1.4c0-0.7,0.1-1,1.1-3.8l2.2-5.6c0.2-0.5,0.2-0.6,0.8-0.7c0.4-0.1,3.1-0.8,3.1-0.8
		c0.1,0,0.1,0,0.1,0.1c0,0.2-3.4,7.6-3.4,9.1c0,0.5,0.2,0.9,0.7,0.9c1.1,0,3.5-2.1,5.6-8.3c0.3-0.8,0.4-0.9,1.2-1.1
		c0.5-0.1,2.7-0.8,2.8-0.8s0.1,0.1,0.1,0.1s-0.1,0.4-0.2,0.6l-2.4,5.8c-0.4,1.1-0.8,2-0.8,2.5c0,1,1.2,1,1.9,1
		c0.8,0,1.8-0.1,2.1-0.2v0.6H236.2z"/>
	<path class="st3" d="M246.6,99.3c-2.1,0.7-5.5,1.7-7.5,1.7c-0.5,0-2.2,0-2.2-1.8c0-1.6,1.3-2.8,2.5-3.8c1.5-1.3,3.5-2.8,4.6-3.5
		c-0.4,0-2.3,0.1-2.5,0.1c-0.2,0.1-0.2,0.2-0.4,0.6c-0.1,0.2-0.2,0.4-0.8,0.6c-0.2,0-1.7,0.5-1.7,0.5s-0.1,0-0.1-0.1
		s0.5-1.1,0.5-1.3c0-0.2-0.4-0.8-0.4-0.9c0-0.4,0.6-2.9,1.9-3.5c0.3-0.2,1.7-0.4,2-0.6c0.1,0,0.5-0.2,0.6-0.2s0.2,0.1,0.2,0.2
		c0,0-0.8,2.3-0.9,2.5c1.9-0.2,2.3-0.2,4.2-0.2v0.6c-1,0.9-1.9,1.7-3.5,3.6c-1.4,1.6-1.9,2.3-1.9,3.3c0,2.1,2,2.1,2.7,2.1
		c0.9,0,1.9-0.1,2.7-0.3L246.6,99.3z"/>
	<path class="st3" d="M266,80.3c3.1-1.5,3.4-1.8,4.9-3.3c4.7-4.6,8.7-4.6,9-4.6c0.2,0,1,0,1,0.4s-2.3,4.5-9.2,6.2
		c0.1,1.7,1,2.6,3.5,3.4c2.7,0.9,2.9,0.9,2.9,1.4c0,0.8-3.8,4-6.1,4.7c-0.9,0.3-5,1-5.8,1.3c-1.4,0.4-3,1.1-3,3.3
		c0,2.9,3.6,5.3,11.5,5.3c3.6,0,5.6-0.4,6.9-0.8l0.2,0.4c-0.7,0.4-2.7,1.5-4,2.7c-2.5,0.4-6.2,0.5-6.7,0.5c-8.5,0-11.9-3-11.9-5.8
		c0-3.9,6.5-6.1,9.4-7.1c1.8-0.6,4.2-1.4,5.6-2.1c-1.9-0.5-5.9-1.7-5.9-4.1c0-0.6,0.2-1.3,0.6-1.8l-2.3,0.7L266,80.3z"/>
	<path class="st3" d="M282.4,93c0.9-0.8,2.1-1.8,4-3.4c1.1-0.9,1.5-1,1.9-1c0.6,0,1,0.4,1.3,1.2c0.4,0.8,0.7,2.7,0.9,3.6
		c0.3-0.3,1.8-1.9,2.9-4.1c0.2-0.3,0.3-0.4,0.5-0.4s2.3-0.2,2.4-0.2c0.2,0,0.2,0.1,0.2,0.2c0,0.2-4.8,4.7-5.7,5.6
		c0.1,0.8,0.7,4.3,3.4,4.3c0.3,0,1,0,2.2-0.3l0.1,0.5c-0.6,0.2-2.9,1.2-3.5,1.4c-1,0.4-1.8,0.6-2.4,0.6c-1.5,0-1.9-1.1-2.7-4
		c-1.2,1-2.5,1.9-3.6,2.9c-0.4,0.4-1.3,1.1-1.7,1.1c-0.3,0-0.3-0.2-0.3-0.6c0-0.3,0-2.5,0.1-2.7c0.1-0.3,0.5-0.6,3.1-2.3l0.1,0.5
		c-0.5,0.6-0.6,1.4-0.6,2.1c0,0.2,0,0.4,0.1,0.4s2.3-1.9,2.6-2.3c-0.4-1.7-0.7-2.8-0.8-3.3c-0.2-0.8-0.5-1.5-1.3-1.5
		c-1.3,0-2.3,1.7-2.8,3.9h-0.4L282.4,93z"/>
	<path class="st3" d="M301,101.4l-2.1,6.6c-0.1,0.2-1,0.4-1.3,0.5c-0.4,0.1-2.1,0.6-2.3,0.6c-0.1,0-0.1-0.1-0.1-0.2s0-0.3,0.2-0.7
		l2.4-7.3c-0.3-0.1-1.4-0.7-1.4-0.9c0,0,0-0.1,0.1-0.1c0.1-0.1,1.8-0.8,2.1-1c0.3-0.9,1.9-5.1,1.9-6.5c0-0.4-0.2-0.8-0.6-0.8
		c-0.8,0-2.8,2.1-3.8,5.7h-0.3V95c3-4.2,6.1-6.3,7.7-6.3c0.4,0,1.2,0.1,1.2,1.1c0,0.6-0.4,1.7-0.5,1.9c1.4-1.3,3.3-2.9,5.4-2.9
		c1.2,0,2.1,0.6,2.1,2.5c0,4-3.3,6.1-5.9,7.5h5.8c0.1,0,0.1,0,0.1,0.1s-2.9,1.6-3.1,1.6h-5.8L301,101.4z M304.6,98.8
		c0.8-1,3-3.5,3-6.6c0-0.8-0.3-1.4-1.1-1.4c-0.5,0-1,0.2-1.6,1.2c-1.3,1.9-2.3,4.4-3.1,6.8H304.6z"/>
	<path class="st3" d="M325.3,99.6c-3.4,0.9-5.5,1.4-7.5,1.4c-1.8,0-3.4-0.5-3.4-2.9c0-4.5,5.2-13.7,8.7-20.1
		c1.3-0.3,1.9-0.5,2.6-0.7c0.2,0,0.7-0.2,0.8-0.2c0.2,0,0.2,0.1,0.2,0.8c0,11.9-2.9,16.2-8.4,20.2c1.3,1,3.9,1.1,4.7,1.1
		c0.4,0,1.4,0,2.3-0.2L325.3,99.6L325.3,99.6z M319.6,91.6c-1.5,3.8-1.6,4.6-1.6,6c0.8-0.5,2.2-1.4,3.9-5.5c2.1-5.1,2.3-9,2.5-11.1
		C322.1,85.2,320,90.5,319.6,91.6z"/>
	<path class="st3" d="M338.8,90.1c0,0.3-0.5,1-0.8,1.2c0.7,4.9-5,9.7-9,9.7c-1.8,0-3.1-1.1-3.1-2.9c0-3.4,2.9-5.8,5.9-7.4
		c-0.3-0.1-0.7-0.3-0.7-0.6c0-0.3,0.3-0.4,1.5-0.6c0.4-0.1,0.7-0.2,1.2-0.4c1-0.4,1.2-0.4,1.5-0.4c1.1,0,1.7,0.8,2,1.2
		C338.7,89.9,338.8,89.9,338.8,90.1z M332.5,90.9c-1.1,0.9-2.9,3.2-2.9,5.7c0,1.3,0.4,2.9,2.2,2.9c1.9,0,2.9-2.1,2.9-4.9
		c0-0.5,0-2.4-1.1-3.3C333.3,91.2,332.9,91.1,332.5,90.9z"/>
	<path class="st3" d="M349.4,99.3c-2.1,0.7-5.5,1.7-7.5,1.7c-0.5,0-2.2,0-2.2-1.8c0-1.6,1.3-2.8,2.5-3.8c1.5-1.3,3.5-2.8,4.6-3.5
		c-0.4,0-2.3,0.1-2.5,0.1c-0.2,0.1-0.2,0.2-0.4,0.6c-0.1,0.2-0.2,0.4-0.8,0.6c-0.2,0-1.7,0.5-1.7,0.5s-0.1,0-0.1-0.1
		s0.5-1.1,0.5-1.3c0-0.2-0.4-0.8-0.4-0.9c0-0.4,0.6-2.9,1.9-3.5c0.3-0.2,1.7-0.4,2-0.6c0.1,0,0.5-0.2,0.6-0.2s0.2,0.1,0.2,0.2
		c0,0-0.8,2.3-0.9,2.5c1.9-0.2,2.3-0.2,4.2-0.2v0.6c-1,0.9-1.9,1.7-3.5,3.6c-1.4,1.6-1.9,2.3-1.9,3.3c0,2.1,2,2.1,2.7,2.1
		c0.9,0,1.9-0.1,2.7-0.3L349.4,99.3z"/>
	<path class="st3" d="M365.1,99.3c-1.1,0.4-5.5,1.7-6.4,1.7c-0.8,0-1.4-0.6-1.4-1.3c0-0.6,0.9-2.9,1.3-3.7c-2.8,4-5.9,5-6.9,5
		c-1.2,0-1.9-1.1-1.9-2.2c0-1.5,1.2-4.5,4.5-7c3.1-2.2,6.5-3.1,7.8-3.1c0.2,0,2.7,0.2,2.7,0.7s-3.6,7.4-3.6,8.4
		c0,1.1,1.2,1.1,1.6,1.1c0.1,0,1,0,2.5-0.2v0.6H365.1z M357.9,90.8c-1.9,0-2.5,1-3.1,2.4c-0.4,1.2-1.2,3.3-1.2,4.4
		c0,0.7,0.4,1.2,1.1,1.2c1.7,0,3.3-3,5.8-7.6C359.7,91,358.6,90.8,357.9,90.8z"/>
	<path class="st3" d="M367.5,90.9c-0.2,0-0.2-0.2-0.2-0.2s0.8-1.5,1.1-1.5h1.7l1.7-4.8l3.1-0.7c0.4-0.1,0.4,0.2,0.4,0.4l-2,5.1h2
		c0.1,0,0.2,0,0.2,0.1c0,0-0.7,1.6-1,1.6h-1.7l-1.7,5c-0.2,0.4-0.4,1.1-0.4,1.6c0,1.6,2.4,1.6,2.7,1.6c0.4,0,1.4-0.1,2.2-0.2v0.5
		c-2.4,0.8-5,1.6-6.6,1.6c-1.1,0-1.9-0.6-1.9-2c0-1.8,1.7-6.2,2.5-8.1H367.5z"/>
	<path class="st3" d="M384.7,99c-1.4,0.6-4.6,2-6.7,2c-1,0-1.7-0.8-1.7-1.7c0-0.8,0.3-1.8,0.6-2.6l2.5-6.6c0-0.2,1.9-0.5,2.2-0.6
		c0.3-0.1,1.7-0.6,1.7-0.6s0.2,0.1,0.2,0.2c0,0.2-0.6,1.6-1,2.5c-0.9,1.9-2.2,5.2-2.2,6.1c0,1.2,1.2,1.2,1.7,1.2
		c1,0,1.9-0.1,2.8-0.4V99H384.7z M383.1,82.1c1.1,0,2,0.9,2,1.9c0,1.1-0.9,2-2,2s-1.9-0.9-1.9-2C381.1,83,382,82.1,383.1,82.1z"/>
	<path class="st3" d="M397.4,90.1c0,0.3-0.5,1-0.8,1.2c0.7,4.9-5,9.7-9,9.7c-1.8,0-3.1-1.1-3.1-2.9c0-3.4,2.9-5.8,5.9-7.4
		c-0.3-0.1-0.7-0.3-0.7-0.6c0-0.3,0.3-0.4,1.5-0.6c0.4-0.1,0.7-0.2,1.2-0.4c1-0.4,1.2-0.4,1.5-0.4c1.1,0,1.7,0.8,2,1.2
		C397.3,89.9,397.4,89.9,397.4,90.1z M391.1,90.9c-1.1,0.9-2.9,3.2-2.9,5.7c0,1.3,0.4,2.9,2.2,2.9c1.9,0,2.9-2.1,2.9-4.9
		c0-0.5,0-2.4-1.1-3.3C391.9,91.2,391.5,91.1,391.1,90.9z"/>
	<path class="st3" d="M413.1,99.3c-1.2,0.4-5,1.7-6.3,1.7c-1.1,0-1.7-0.8-1.7-1.8c0-0.4,0.1-0.8,0.4-1.5l2.1-4.8
		c0.1-0.2,0.3-0.6,0.3-1s-0.3-0.8-1-0.8c-0.4,0-1.5,0-3.3,3c-1,1.6-1.7,3.5-2.1,4.9c-0.3,0.8-0.3,0.8-0.8,1c-1,0.3-2.7,0.9-2.9,0.9
		c-0.1,0-0.2-0.1-0.2-0.2s0.2-0.6,0.2-0.8l3.5-10.3c0-0.1,0.6-0.2,1-0.3c0.6-0.2,1.6-0.4,2.4-0.7c0,0,0.2-0.1,0.3-0.1
		c0.1,0,0.1,0.1,0.1,0.1l-0.6,1.3c-0.1,0.2-0.9,2.1-1.2,3.2c2.5-3.3,5.6-4.6,7.2-4.6c0.6,0,1.5,0.2,1.5,1.3c0,0.2,0,0.4-0.2,0.7
		l-2.6,6.2c-0.1,0.2-0.3,0.7-0.3,1.1c0,1.1,1.2,1.1,1.5,1.1c0.8,0,2.3-0.3,2.6-0.4L413.1,99.3z"/>
</g>
</svg>
