<svg xmlns="http://www.w3.org/2000/svg" version="1.1" xmlns:xlink="http://www.w3.org/1999/xlink" xmlns:svgjs="http://svgjs.com/svgjs" width="512" height="512" x="0" y="0" viewBox="0 0 512 512" style="enable-background:new 0 0 512 512" xml:space="preserve" class=""><g><path fill-rule="evenodd" d="M221.453 163.762c-20.63-36.854-66.889-91.099-32.351-125.638 18.273-18.273 48.174-18.273 66.447 0 34.879 34.879-13.813 92.752-32.349 125.64a1.003 1.003 0 0 1-1.747-.002zm-90.559-1.588c8.974-22.117 21.63-44.416 39.031-60.897a122.198 122.198 0 0 1-3.157-8.892c-34.598 9.638-65.533 28.064-90.244 52.725 16.1 6.895 34.403 12.669 54.37 17.064zM382.129 31.419a7 7 0 1 1 0-14c62.866 0 113.802 50.98 113.798 113.833a6.973 6.973 0 0 1-13.946 0c.003-55.159-44.697-99.833-99.852-99.833zm0 67.367c16.329 0 30.166 12.206 32.206 28.372a6.973 6.973 0 1 0 13.836-1.75c-2.927-23.185-22.62-40.569-46.042-40.567a6.973 6.973 0 0 0 0 13.945zm80.133 32.466c0-44.223-35.91-80.136-80.133-80.136a7 7 0 1 0 0 14c36.559 0 66.133 29.577 66.133 66.135a7 7 0 0 0 14 .001zm-227.411 40.279c22.72-.616 44.497-2.888 64.821-6.568-7.496-17.892-17.62-35.913-31.058-49.958-4.711 9.481-10.168 18.632-15.765 27.581-5.806 9.284-12.084 18.526-17.453 28.051a14.1 14.1 0 0 1-.545.894zm-5.604 14.121v98.475h93.418c-.693-39.236-7.188-75.555-17.882-105.884-23.545 4.428-48.978 7.02-75.536 7.409zm0 112.475v101.202c26.206.383 51.324 2.913 74.619 7.236 11.239-30.835 18.087-68.094 18.799-108.437h-93.418zm0 115.204v76.277c33.483-4.705 56.858-40.947 69.346-69.786-21.679-3.863-45-6.126-69.346-6.491zm-14 76.277v-76.277c-24.346.365-47.667 2.628-69.346 6.49 12.485 28.839 35.865 65.082 69.346 69.787zm0-90.279V298.127H121.83c.713 40.343 7.56 77.602 18.799 108.437 23.294-4.322 48.412-6.852 74.618-7.235zm0-115.202v-98.475c-26.558-.389-51.99-2.98-75.535-7.409-10.695 30.329-17.19 66.648-17.882 105.884zm-39.18-169.319c-13.531 14.071-23.718 32.188-31.246 50.156 20.373 3.689 42.207 5.963 64.986 6.572-.2-.303-.39-.615-.57-.936-10.668-19.057-23.341-36.326-33.17-55.792zM16.073 284.127c1.634-48.988 20.347-93.649 50.375-128.218 17.533 7.93 37.589 14.535 59.491 19.485-10.856 31.452-17.423 68.713-18.111 108.732H16.073zm320.593 0c-.689-40.019-7.255-77.28-18.111-108.732 21.902-4.951 41.958-11.555 59.491-19.485 30.028 34.569 48.741 79.23 50.375 128.218h-91.755zm91.754 14c-1.665 49.914-21.061 95.335-52.09 130.167-17.362-7.693-37.129-14.1-58.661-18.91 11.383-31.974 18.29-70.161 18.997-111.256h91.754zm-320.593 0c.707 41.096 7.614 79.282 18.997 111.256-21.532 4.81-41.299 11.217-58.661 18.911-31.029-34.832-50.425-80.253-52.09-130.167zM274.689 101.39c17.336 16.469 29.957 38.715 38.911 60.783 19.966-4.394 38.27-10.169 54.37-17.063-24.69-24.641-55.595-43.057-90.158-52.701a123.634 123.634 0 0 1-3.123 8.981zm37.882 321.19c19.571 4.248 37.56 9.818 53.465 16.466-29.396 28.58-67.284 48.471-109.517 55.534 26.267-15.063 44.559-44.526 56.052-72zm-124.597 72.001c-42.233-7.063-80.121-26.954-109.517-55.534 15.905-6.648 33.894-12.218 53.465-16.466 11.494 27.473 29.785 56.936 56.052 72zm34.272-443.418c-9.583 0-17.351 7.768-17.351 17.351 0 9.582 7.768 17.351 17.351 17.351s17.351-7.768 17.351-17.351-7.768-17.351-17.351-17.351z" clip-rule="evenodd" fill="#FFFFFF" data-original="#000000" opacity="1"></path></g></svg>