<svg xmlns="http://www.w3.org/2000/svg" version="1.1" xmlns:xlink="http://www.w3.org/1999/xlink" xmlns:svgjs="http://svgjs.com/svgjs" width="512" height="512" x="0" y="0" viewBox="0 0 64 64" style="enable-background:new 0 0 512 512" xml:space="preserve" class=""><g><circle cx="32" cy="50" r="3" fill="#FFFFFF" data-original="#000000" class="" opacity="1"></circle><path d="M26 59v2a1 1 0 0 0 1 1h10a1 1 0 0 0 1-1v-2a5 5 0 0 0-5-5h-2a5 5 0 0 0-5 5z" fill="#FFFFFF" data-original="#000000" class="" opacity="1"></path><circle cx="19" cy="50" r="3" fill="#FFFFFF" data-original="#000000" class="" opacity="1"></circle><path d="M13 59v2a1 1 0 0 0 1 1h10a1 1 0 0 0 1-1v-2a5 5 0 0 0-5-5h-2a5 5 0 0 0-5 5z" fill="#FFFFFF" data-original="#000000" class="" opacity="1"></path><circle cx="45" cy="50" r="3" fill="#FFFFFF" data-original="#000000" class="" opacity="1"></circle><path d="M46 54h-2a5 5 0 0 0-5 5v2a1 1 0 0 0 1 1h10a1 1 0 0 0 1-1v-2a5 5 0 0 0-5-5z" fill="#FFFFFF" data-original="#000000" class="" opacity="1"></path><circle cx="58" cy="50" r="3" fill="#FFFFFF" data-original="#000000" class="" opacity="1"></circle><path d="M59 54h-2a5 5 0 0 0-5 5v2a1 1 0 0 0 1 1h10a1 1 0 0 0 1-1v-2a5 5 0 0 0-5-5z" fill="#FFFFFF" data-original="#000000" class="" opacity="1"></path><circle cx="6" cy="50" r="3" fill="#FFFFFF" data-original="#000000" class="" opacity="1"></circle><path d="M1 62h10a1 1 0 0 0 1-1v-2a5 5 0 0 0-5-5H5a5 5 0 0 0-5 5v2a1 1 0 0 0 1 1zM30.68 29.73a2 2 0 0 1 2.64 0 1 1 0 0 0 1.36 0l4-3.7a1 1 0 0 0 .32-.73 1 1 0 0 0-.32-.73 10 10 0 0 0-13.36 0 1 1 0 0 0-.32.73 1 1 0 0 0 .32.73l4 3.7a1 1 0 0 0 1.36 0z" fill="#FFFFFF" data-original="#000000" class="" opacity="1"></path><path d="M16.31 18.19a1 1 0 0 0 0 1.45l4.29 4.08a1 1 0 0 0 1.38 0 14.7 14.7 0 0 1 20 0 1 1 0 0 0 .69.28 1 1 0 0 0 .69-.28l4.29-4.08a1 1 0 0 0 0-1.45 23 23 0 0 0-31.34 0zM16.69 9.52 15.41 8a26.18 26.18 0 0 0-7.18 9.47l1.83.81a24.08 24.08 0 0 1 6.63-8.76zM48.57 8 47.3 9.5a24.19 24.19 0 0 1 6.63 8.74l1.83-.81A26.21 26.21 0 0 0 48.57 8zM26.05 2.68l.45 1.95a24.38 24.38 0 0 1 11 0l.45-1.95a26.47 26.47 0 0 0-11.9 0zM56 29.05a24.38 24.38 0 0 1-.77 4.95H35.44a4 4 0 0 0-6.88 0H8.77A24.38 24.38 0 0 1 8 29.05l-2 .09a26.56 26.56 0 0 0 .88 5.6l-6.63 7.6A1 1 0 0 0 1 44h62a1 1 0 0 0 .75-1.66l-6.65-7.6a26.56 26.56 0 0 0 .88-5.6zM60.8 42H3.2l5.25-6H28a4 4 0 0 0 8 0h19.55z" fill="#FFFFFF" data-original="#000000" class="" opacity="1"></path><path d="M38 38h4v2h-4zM44 38h4v2h-4zM16 38h4v2h-4zM22 38h4v2h-4z" fill="#FFFFFF" data-original="#000000" class="" opacity="1"></path></g></svg>