<svg xmlns="http://www.w3.org/2000/svg" version="1.1" xmlns:xlink="http://www.w3.org/1999/xlink" xmlns:svgjs="http://svgjs.com/svgjs" width="512" height="512" x="0" y="0" viewBox="0 0 64 64" style="enable-background:new 0 0 512 512" xml:space="preserve" class=""><g><g data-name="Layer 16"><path d="M29 59H19a3.006 3.006 0 0 0-2.829 2h15.658A3.006 3.006 0 0 0 29 59ZM32 29a13 13 0 1 0-13-13 13.015 13.015 0 0 0 13 13ZM25 8a15.017 15.017 0 0 1 15 15h-2a13.015 13.015 0 0 0-13-13Zm0 4a11.013 11.013 0 0 1 11 11h-2a9.011 9.011 0 0 0-9-9Zm0 4a7.008 7.008 0 0 1 7 7h-2a5.006 5.006 0 0 0-5-5ZM3 50a2 2 0 0 0 2 2h34v-3H3ZM22 54h4v3h-4z" fill="#FFFFFF" data-original="#000000" opacity="1"></path><rect width="20" height="29" x="41" y="32" rx="2" fill="#FFFFFF" data-original="#000000" opacity="1"></rect><path d="M45 30v-3a2.01 2.01 0 0 0-1.17-1.811A14.945 14.945 0 0 1 20.029 25H5a2 2 0 0 0-2 2v20h36V34a4 4 0 0 1 4-4Z" fill="#FFFFFF" data-original="#000000" opacity="1"></path></g></g></svg>